<svg width="80" height="21" viewBox="0 0 80 21" fill="none" xmlns="http://www.w3.org/2000/svg">
<path d="M4.368 20V1.8L5.964 3.452H0.224V0.399999H8.008V20H4.368ZM20.0721 20.28C18.5227 20.28 17.1227 19.888 15.8721 19.104C14.6401 18.32 13.6694 17.1813 12.9601 15.688C12.2507 14.176 11.8961 12.3467 11.8961 10.2C11.8961 8.05333 12.2507 6.23333 12.9601 4.74C13.6694 3.228 14.6401 2.08 15.8721 1.296C17.1227 0.511999 18.5227 0.119999 20.0721 0.119999C21.6401 0.119999 23.0401 0.511999 24.2721 1.296C25.5041 2.08 26.4747 3.228 27.1841 4.74C27.9121 6.23333 28.2761 8.05333 28.2761 10.2C28.2761 12.3467 27.9121 14.176 27.1841 15.688C26.4747 17.1813 25.5041 18.32 24.2721 19.104C23.0401 19.888 21.6401 20.28 20.0721 20.28ZM20.0721 17.116C20.9867 17.116 21.7801 16.8733 22.4521 16.388C23.1241 15.884 23.6467 15.1187 24.0201 14.092C24.4121 13.0653 24.6081 11.768 24.6081 10.2C24.6081 8.61333 24.4121 7.316 24.0201 6.308C23.6467 5.28133 23.1241 4.52533 22.4521 4.04C21.7801 3.536 20.9867 3.284 20.0721 3.284C19.1947 3.284 18.4107 3.536 17.7201 4.04C17.0481 4.52533 16.5161 5.28133 16.1241 6.308C15.7507 7.316 15.5641 8.61333 15.5641 10.2C15.5641 11.768 15.7507 13.0653 16.1241 14.092C16.5161 15.1187 17.0481 15.884 17.7201 16.388C18.4107 16.8733 19.1947 17.116 20.0721 17.116ZM38.9119 20.28C37.3626 20.28 35.9626 19.888 34.7119 19.104C33.4799 18.32 32.5092 17.1813 31.7999 15.688C31.0906 14.176 30.7359 12.3467 30.7359 10.2C30.7359 8.05333 31.0906 6.23333 31.7999 4.74C32.5092 3.228 33.4799 2.08 34.7119 1.296C35.9626 0.511999 37.3626 0.119999 38.9119 0.119999C40.4799 0.119999 41.8799 0.511999 43.1119 1.296C44.3439 2.08 45.3146 3.228 46.0239 4.74C46.7519 6.23333 47.1159 8.05333 47.1159 10.2C47.1159 12.3467 46.7519 14.176 46.0239 15.688C45.3146 17.1813 44.3439 18.32 43.1119 19.104C41.8799 19.888 40.4799 20.28 38.9119 20.28ZM38.9119 17.116C39.8266 17.116 40.6199 16.8733 41.2919 16.388C41.9639 15.884 42.4866 15.1187 42.8599 14.092C43.2519 13.0653 43.4479 11.768 43.4479 10.2C43.4479 8.61333 43.2519 7.316 42.8599 6.308C42.4866 5.28133 41.9639 4.52533 41.2919 4.04C40.6199 3.536 39.8266 3.284 38.9119 3.284C38.0346 3.284 37.2506 3.536 36.5599 4.04C35.8879 4.52533 35.3559 5.28133 34.9639 6.308C34.5906 7.316 34.4039 8.61333 34.4039 10.2C34.4039 11.768 34.5906 13.0653 34.9639 14.092C35.3559 15.1187 35.8879 15.884 36.5599 16.388C37.2506 16.8733 38.0346 17.116 38.9119 17.116ZM60.058 20L73.442 0.399999H76.186L62.802 20H60.058ZM61.682 10.956C60.7674 10.956 59.9554 10.732 59.246 10.284C58.5367 9.836 57.986 9.21067 57.594 8.408C57.202 7.60533 57.006 6.66267 57.006 5.58C57.006 4.49733 57.202 3.55467 57.594 2.752C57.986 1.94933 58.5367 1.324 59.246 0.875999C59.9554 0.427999 60.7674 0.204 61.682 0.204C62.634 0.204 63.4554 0.427999 64.146 0.875999C64.8554 1.324 65.406 1.94933 65.798 2.752C66.19 3.55467 66.386 4.49733 66.386 5.58C66.386 6.66267 66.19 7.60533 65.798 8.408C65.406 9.21067 64.8554 9.836 64.146 10.284C63.4554 10.732 62.634 10.956 61.682 10.956ZM61.71 8.996C62.4567 8.996 63.0354 8.70667 63.446 8.128C63.8754 7.53067 64.09 6.68133 64.09 5.58C64.09 4.47867 63.8754 3.63867 63.446 3.06C63.0354 2.46267 62.4567 2.164 61.71 2.164C60.9634 2.164 60.366 2.46267 59.918 3.06C59.4887 3.65733 59.274 4.49733 59.274 5.58C59.274 6.66267 59.4887 7.50267 59.918 8.1C60.366 8.69733 60.9634 8.996 61.71 8.996ZM74.534 20.196C73.6194 20.196 72.8074 19.972 72.098 19.524C71.3887 19.076 70.838 18.4507 70.446 17.648C70.054 16.8453 69.858 15.9027 69.858 14.82C69.858 13.7373 70.054 12.7947 70.446 11.992C70.838 11.1893 71.3887 10.564 72.098 10.116C72.8074 9.668 73.6194 9.444 74.534 9.444C75.486 9.444 76.3074 9.668 76.998 10.116C77.7074 10.564 78.258 11.1893 78.65 11.992C79.042 12.7947 79.238 13.7373 79.238 14.82C79.238 15.9027 79.042 16.8453 78.65 17.648C78.258 18.4507 77.7074 19.076 76.998 19.524C76.3074 19.972 75.486 20.196 74.534 20.196ZM74.534 18.236C75.2807 18.236 75.8687 17.9373 76.298 17.34C76.7274 16.7427 76.942 15.9027 76.942 14.82C76.942 13.7373 76.7274 12.8973 76.298 12.3C75.8687 11.7027 75.2807 11.404 74.534 11.404C73.806 11.404 73.218 11.7027 72.77 12.3C72.3407 12.8787 72.126 13.7187 72.126 14.82C72.126 15.9213 72.3407 16.7707 72.77 17.368C73.218 17.9467 73.806 18.236 74.534 18.236Z" fill="#232C30"/>
</svg>
