<svg width="201" height="59" viewBox="0 0 201 59" fill="none" xmlns="http://www.w3.org/2000/svg">
<path d="M30.132 4.152V2.652H28.632H3H1.5V4.152V16.968V18.468H3H10.14V54.552V56.052H11.64H28.632H30.132V54.552V4.152ZM44.9756 53.883L44.9861 53.8895L44.9966 53.8958C48.7099 56.1134 52.9413 57.204 57.6458 57.204C62.3499 57.204 66.5611 56.1135 70.2308 53.8911L70.2359 53.8879C73.955 51.6152 76.8295 48.3668 78.8643 44.197C80.9541 39.9648 81.9698 35.0006 81.9698 29.352C81.9698 23.7071 80.9554 18.7658 78.8643 14.5791C76.8321 10.3663 73.9583 7.11395 70.2334 4.88645C66.5642 2.61549 62.3518 1.5 57.6458 1.5C52.9361 1.5 48.7009 2.61712 44.9865 4.88631C41.3077 7.11492 38.4359 10.3669 36.3569 14.5757L36.3536 14.5824C34.3119 18.7678 33.3218 23.7076 33.3218 29.352C33.3218 34.9972 34.3122 39.9577 36.3505 44.1872L36.3552 44.1971L36.3601 44.2068C38.4399 48.3663 41.3086 51.6105 44.9756 53.883ZM94.8272 53.883L94.8376 53.8895L94.8482 53.8958C98.5614 56.1134 102.793 57.204 107.497 57.204C112.201 57.204 116.413 56.1135 120.082 53.8911L120.087 53.8879C123.807 51.6152 126.681 48.3668 128.716 44.197C130.806 39.9648 131.821 35.0006 131.821 29.352C131.821 23.7071 130.807 18.7658 128.716 14.5791C126.684 10.3663 123.81 7.11396 120.085 4.88646C116.416 2.6155 112.203 1.5 107.497 1.5C102.788 1.5 98.5524 2.61714 94.8379 4.88637C91.1592 7.11498 88.2875 10.367 86.2084 14.5757L86.2052 14.5824C84.1635 18.7678 83.1733 23.7076 83.1733 29.352C83.1733 34.9972 84.1637 39.9577 86.202 44.1872L86.2068 44.1971L86.2117 44.2068C88.2914 48.3663 91.1601 51.6105 94.8272 53.883ZM139.361 3.76532L139.355 3.76881L139.348 3.77235C137.068 5.0209 135.283 6.84199 134 9.19373C132.704 11.5691 132.089 14.3471 132.089 17.472C132.089 22.1377 133.431 25.9877 136.272 28.8287C139.083 31.6395 142.697 33.012 146.981 33.012C151.265 33.012 154.879 31.6395 157.69 28.8287C157.998 28.5205 158.288 28.2004 158.561 27.8688L140.918 53.7061L139.316 56.052H142.157H154.325H155.117L155.564 55.3979L171.157 32.5624C171.082 32.6911 171.008 32.8216 170.936 32.9537C169.64 35.3291 169.025 38.1071 169.025 41.232C169.025 45.8977 170.367 49.7477 173.208 52.5887C176.019 55.3995 179.633 56.772 183.917 56.772C188.201 56.772 191.815 55.3995 194.626 52.5887C197.467 49.7477 198.809 45.8977 198.809 41.232C198.809 38.1071 198.193 35.3291 196.898 32.9537C195.611 30.5951 193.797 28.7748 191.471 27.5291C189.213 26.2938 186.683 25.692 183.917 25.692C181.148 25.692 178.598 26.295 176.297 27.5253L176.291 27.5288L176.284 27.5324C174.726 28.3859 173.398 29.5071 172.304 30.8825L189.98 4.99788L191.582 2.652H188.741H176.573H175.781L175.334 3.30611L159.902 25.9057C161.233 23.5257 161.873 20.6933 161.873 17.472C161.873 14.3471 161.257 11.5691 159.962 9.19373C158.675 6.83511 156.861 5.01478 154.535 3.76906C152.277 2.5338 149.747 1.932 146.981 1.932C144.212 1.932 141.662 2.53497 139.361 3.76532ZM147.937 21.5065L147.932 21.5153L147.927 21.5243C147.55 22.1521 147.24 22.236 146.981 22.236C146.714 22.236 146.376 22.1403 145.959 21.5159C145.594 20.8492 145.313 19.5772 145.313 17.472C145.313 15.3281 145.605 14.0958 145.958 13.5001C146.399 12.7923 146.744 12.708 146.981 12.708C147.203 12.708 147.517 12.7756 147.911 13.4642L147.932 13.5015L147.955 13.5375C148.331 14.1164 148.649 15.3281 148.649 17.472C148.649 19.6053 148.335 20.8639 147.937 21.5065ZM184.873 45.2665L184.868 45.2753L184.863 45.2843C184.486 45.9121 184.176 45.996 183.917 45.996C183.65 45.996 183.312 45.9003 182.895 45.2759C182.53 44.6092 182.249 43.3372 182.249 41.232C182.249 39.0881 182.541 37.8558 182.894 37.2601C183.335 36.5523 183.68 36.468 183.917 36.468C184.139 36.468 184.453 36.5356 184.847 37.2242L184.868 37.2615L184.891 37.2975C185.268 37.8764 185.585 39.0881 185.585 41.232C185.585 43.3653 185.271 44.6239 184.873 45.2665ZM61.9058 29.352C61.9058 33.5338 61.426 36.4622 60.5989 38.2922C60.1935 39.189 59.7354 39.7531 59.2754 40.0923C58.8326 40.4189 58.3102 40.596 57.6458 40.596C56.9813 40.596 56.4589 40.4189 56.0161 40.0923C55.5561 39.7531 55.098 39.189 54.6926 38.2922C53.8655 36.4622 53.3857 33.5338 53.3857 29.352C53.3857 25.1702 53.8655 22.2418 54.6926 20.4118C55.098 19.515 55.5561 18.9509 56.0161 18.6117C56.4589 18.2851 56.9813 18.108 57.6458 18.108C58.3102 18.108 58.8326 18.2851 59.2754 18.6117C59.7354 18.9509 60.1935 19.515 60.5989 20.4118C61.426 22.2418 61.9058 25.1702 61.9058 29.352ZM111.757 29.352C111.757 33.5338 111.278 36.4622 110.45 38.2922C110.045 39.189 109.587 39.7531 109.127 40.0923C108.684 40.4189 108.162 40.596 107.497 40.596C106.833 40.596 106.31 40.4189 105.868 40.0923C105.408 39.7531 104.95 39.189 104.544 38.2922C103.717 36.4622 103.237 33.5338 103.237 29.352C103.237 25.1702 103.717 22.2418 104.544 20.4118C104.95 19.515 105.408 18.9509 105.868 18.6117C106.31 18.2851 106.833 18.108 107.497 18.108C108.162 18.108 108.684 18.2851 109.127 18.6117C109.587 18.9509 110.045 19.515 110.45 20.4118C111.278 22.2418 111.757 25.1702 111.757 29.352Z" stroke="white" stroke-width="3"/>
</svg>
