<svg width="50" height="58" viewBox="0 0 50 58" fill="none" xmlns="http://www.w3.org/2000/svg">
<path d="M26.32 19.284H25.3406L25.4832 17.316H43.6H45.1V15.816V3V1.5H43.6H10.12H8.73845L8.62506 2.87689L6.10506 33.4769L5.97139 35.1H7.6H22.216C25.0884 35.1 26.7227 35.4285 27.4539 35.8418L27.4758 35.8542L27.4981 35.8659C27.8578 36.0535 28.0507 36.25 28.1601 36.4259C28.2675 36.5987 28.348 36.8377 28.348 37.2C28.348 37.8178 28.0974 38.3478 27.2347 38.8479C26.3349 39.3493 25.0337 39.66 23.224 39.66C21.1595 39.66 19.0102 39.3685 16.7724 38.7752C14.5938 38.1848 12.504 37.3219 10.501 36.1838L9.07992 35.3764L8.39715 36.8614L2.63715 49.3894L2.06011 50.6445L3.26348 51.3227C6.05457 52.8959 9.27124 54.071 12.8949 54.8652L12.899 54.8661C16.5528 55.6561 20.211 56.052 23.872 56.052C29.1572 56.052 33.6878 55.2136 37.4005 53.4604L37.4082 53.4568L37.4158 53.4531C41.0651 51.6791 43.8522 49.3481 45.6657 46.4163C47.4935 43.4908 48.412 40.2882 48.412 36.84C48.412 31.6482 46.5746 27.3605 42.8661 24.1247C39.1566 20.7969 33.5348 19.284 26.32 19.284Z" stroke="white" stroke-width="3"/>
</svg>
