<svg width="52" height="52" viewBox="0 0 52 52" fill="none" xmlns="http://www.w3.org/2000/svg">
<path fill-rule="evenodd" clip-rule="evenodd" d="M15.1643 7.26039C16.177 6.68052 17.3753 6.71448 18.3526 7.19125C23.1383 9.52584 28.8692 9.52827 33.6569 7.19779C34.6452 6.7167 35.8583 6.68867 36.8757 7.2862L44.3862 11.6971C45.068 12.1087 45.4974 12.8629 45.5 13.6611L45.5 13.6643C45.5035 26.5649 38.4149 38.7419 27.2443 45.1679C26.4819 45.6061 25.5186 45.6063 24.7563 45.1681C13.5501 38.7218 6.4551 26.4893 6.50021 13.548C6.50279 12.7499 6.93226 11.9958 7.61408 11.5842L7.63549 11.5712L15.1643 7.26039ZM23.1565 19.0938C23.1565 18.2105 23.1565 17.7688 23.3008 17.4204C23.4932 16.9558 23.8623 16.5868 24.3268 16.3944C24.6752 16.2501 25.1169 16.2501 26.0003 16.2501C26.8836 16.2501 27.3253 16.2501 27.6737 16.3944C28.1382 16.5868 28.5073 16.9558 28.6997 17.4204C28.844 17.7688 28.844 18.2105 28.844 19.0938V20.8986C28.844 20.9415 28.844 20.963 28.8573 20.9763C28.8707 20.9896 28.8921 20.9896 28.935 20.9896H30.7398C31.6232 20.9896 32.0649 20.9896 32.4133 21.1339C32.8778 21.3264 33.2469 21.6954 33.4393 22.16C33.5836 22.5084 33.5836 22.95 33.5836 23.8334C33.5836 24.7167 33.5836 25.1584 33.4393 25.5068C33.2469 25.9713 32.8778 26.3404 32.4133 26.5328C32.0649 26.6771 31.6232 26.6771 30.7398 26.6771H28.935C28.8921 26.6771 28.8707 26.6771 28.8573 26.6905C28.844 26.7038 28.844 26.7252 28.844 26.7681V28.573C28.844 29.4563 28.844 29.898 28.6997 30.2464C28.5073 30.7109 28.1382 31.08 27.6737 31.2724C27.3253 31.4167 26.8836 31.4167 26.0003 31.4167C25.1169 31.4167 24.6752 31.4167 24.3268 31.2724C23.8623 31.08 23.4932 30.7109 23.3008 30.2464C23.1565 29.898 23.1565 29.4563 23.1565 28.573V26.7681C23.1565 26.7252 23.1565 26.7038 23.1432 26.6905C23.1299 26.6771 23.1084 26.6771 23.0655 26.6771H21.2607C20.3773 26.6771 19.9357 26.6771 19.5873 26.5328C19.1227 26.3404 18.7537 25.9713 18.5612 25.5068C18.4169 25.1584 18.4169 24.7167 18.4169 23.8334C18.4169 22.95 18.4169 22.5084 18.5612 22.16C18.7537 21.6954 19.1227 21.3264 19.5873 21.1339C19.9357 20.9896 20.3773 20.9896 21.2607 20.9896H23.0655C23.1084 20.9896 23.1299 20.9896 23.1432 20.9763C23.1565 20.963 23.1565 20.9415 23.1565 20.8986V19.0938Z" fill="white"/>
</svg>
