<svg width="54" height="55" viewBox="0 0 54 55" fill="none" xmlns="http://www.w3.org/2000/svg">
<path d="M6.00977 21.6177C6.00977 14.5561 11.3892 8.71875 18.1691 8.71875C21.6692 8.71875 24.7985 10.287 26.9975 12.7689C29.2006 10.2864 32.3431 8.71875 35.825 8.71875C42.6049 8.71875 47.9844 14.5561 47.9844 21.6177C47.9844 23.1911 47.7746 24.7927 47.3815 26.3923H40.7098L38.2613 23.9438C37.4616 23.1442 36.1135 23.3629 35.6078 24.3745L33.322 28.9459L31.5529 27.1768C30.829 26.4528 29.6282 26.5522 29.0331 27.3854L25.3132 32.5931L22.8735 22.0211C22.5323 20.5423 20.5477 20.2623 19.8107 21.589L15.8128 28.7852L13.9031 26.239C13.2981 25.4323 12.119 25.3485 11.406 26.0615L9.97061 27.4969H6.73502C6.26231 25.6097 6.00977 23.6449 6.00977 21.6177Z" fill="white"/>
<path d="M7.39983 29.7061C10.3928 38.2004 17.8864 44.8762 26.6055 48.1816C26.8578 48.2772 27.1364 48.2772 27.3886 48.1816C33.123 46.0077 38.2535 41.9611 41.9532 37.1955C44.0298 34.5206 45.6781 31.5892 46.7232 28.6015H40.481C40.0415 28.6015 39.6201 28.4269 39.3094 28.1162L37.241 26.0478L34.9553 30.6193C34.4495 31.6308 33.1014 31.8496 32.3017 31.0499L30.4518 29.1999L26.3988 34.8741C25.5692 36.0356 23.7571 35.6745 23.4361 34.2836L21.044 23.918L17.3303 30.6026C16.7473 31.6519 15.2767 31.7524 14.5564 30.7921L12.5178 28.0739L11.371 29.2208C11.0602 29.5315 10.6388 29.7061 10.1994 29.7061H7.39983Z" fill="white"/>
</svg>
