<svg width="52" height="52" viewBox="0 0 52 52" fill="none" xmlns="http://www.w3.org/2000/svg">
<path fill-rule="evenodd" clip-rule="evenodd" d="M31.4164 32.5C31.4166 32.7182 31.351 32.9386 31.2145 33.1297L25.7978 40.7131C25.4501 41.1999 24.7735 41.3127 24.2866 40.9649C23.7998 40.6172 23.687 39.9406 24.0347 39.4537L24.8555 38.3046L19.817 33.2661C19.6054 33.0545 19.4997 32.7773 19.4997 32.5H18.4163C17.0478 32.5 15.1903 33.1518 13.6771 34.3624C12.1295 35.6004 10.833 37.5139 10.833 40.0833C10.833 41.2446 10.9758 42.3761 11.4641 43.3952C11.965 44.4405 12.7855 45.2774 13.9795 45.9142C16.273 47.1375 20.0428 47.6662 25.9927 47.6667L25.9997 47.6667C31.9537 47.6667 35.7255 47.1379 38.0199 45.9142C39.2139 45.2775 40.0344 44.4405 40.5353 43.3952C41.0236 42.3761 41.1664 41.2447 41.1664 40.0833C41.1664 37.514 39.8699 35.6005 38.3223 34.3624C36.809 33.1518 34.9515 32.5 33.583 32.5H31.4164ZM18.958 37.375C18.958 36.7767 18.473 36.2917 17.8747 36.2917C17.2764 36.2917 16.7913 36.7767 16.7913 37.375V37.9167H16.2497C15.6514 37.9167 15.1663 38.4017 15.1663 39C15.1663 39.5983 15.6514 40.0833 16.2497 40.0833H16.7913V40.625C16.7913 41.2233 17.2764 41.7083 17.8747 41.7083C18.473 41.7083 18.958 41.2233 18.958 40.625V40.0833H19.4997C20.098 40.0833 20.583 39.5983 20.583 39C20.583 38.4017 20.098 37.9167 19.4997 37.9167H18.958V37.375Z" fill="white"/>
<path fill-rule="evenodd" clip-rule="evenodd" d="M34.184 11.0153C35.2452 11.7228 36.1637 13.0644 36.8258 14.5675C37.5025 16.1039 37.9775 17.9569 38.051 19.8369C38.1243 21.715 37.7982 23.6813 36.8034 25.3824C36.0042 26.7488 34.8014 27.8945 33.1344 28.6718C32.8985 29.1063 32.6388 29.5224 32.3577 29.9151C30.9443 31.8894 28.7415 33.5834 25.9997 33.5834C23.2578 33.5834 21.055 31.8894 19.6417 29.9151C19.3606 29.5224 19.1008 29.1063 18.8649 28.6718C17.1979 27.8945 15.9952 26.7488 15.196 25.3824C14.2011 23.6813 13.875 21.715 13.9484 19.8369C14.0218 17.9569 14.4969 16.1039 15.1736 14.5675C15.8357 13.0644 16.7541 11.7228 17.8154 11.0153C19.2317 10.0711 20.124 12.9357 20.6442 13.785C20.8236 14.0959 21.2204 14.2004 21.5422 14.0413C22.9256 13.3576 24.4507 13 25.9997 13C27.5487 13 29.0737 13.3576 30.4572 14.0413C30.779 14.2004 31.1757 14.0959 31.3552 13.785C31.8751 12.9362 32.7675 10.0709 34.184 11.0153ZM28.9323 15.484C29.3554 15.9071 29.3554 16.593 28.9323 17.0161C28.7181 17.2303 28.4278 17.5193 28.0484 17.849C28.5068 18.3013 28.906 18.6587 29.4633 18.9373C30.0895 19.2504 30.9976 19.5 32.4997 19.5C33.098 19.5 33.583 19.9851 33.583 20.5834C33.583 20.774 33.5338 20.9531 33.4474 21.1086C33.5365 21.641 33.583 22.1898 33.583 22.75C33.583 25.0771 32.7807 27.4631 31.4768 29.2845C30.182 31.0932 28.2681 32.5 25.9997 32.5C23.7313 32.5 21.8174 31.0932 20.5226 29.2845C19.2187 27.4631 18.4164 25.0771 18.4164 22.75C18.4164 22.3219 18.4435 21.9004 18.4961 21.4878C18.0927 21.3654 17.7811 21.0121 17.7333 20.5665C17.6693 19.9716 18.0998 19.4376 18.6947 19.3737C24.0912 18.7939 26.5058 16.3787 27.3833 15.501L27.4003 15.484C27.8233 15.0609 28.5093 15.0609 28.9323 15.484Z" fill="white"/>
<path fill-rule="evenodd" clip-rule="evenodd" d="M17.3958 6.77774C20.0442 5.37835 22.9973 4.64441 25.9996 4.64441C29.002 4.64441 31.9551 5.37835 34.6035 6.77774C35.4876 7.24489 35.7526 8.33514 35.2795 9.15455L32.2934 14.3267C31.8064 15.1701 30.7709 15.4048 29.9772 15.0126C28.7427 14.4025 27.3818 14.0834 25.9996 14.0834C24.6175 14.0834 23.2566 14.4025 22.0221 15.0126C21.2284 15.4048 20.1929 15.1701 19.7059 14.3267L16.7198 9.15455C16.2467 8.33514 16.5117 7.24489 17.3958 6.77774ZM18.8309 8.4778L21.392 12.9138C22.8354 12.2584 24.4061 11.9167 25.9996 11.9167C27.5932 11.9167 29.1639 12.2584 30.6073 12.9138L33.1684 8.4778C30.9421 7.38339 28.49 6.81108 25.9996 6.81108C23.5093 6.81108 21.0572 7.38339 18.8309 8.4778Z" fill="white"/>
</svg>
