<svg width="52" height="52" viewBox="0 0 52 52" fill="none" xmlns="http://www.w3.org/2000/svg">
<path d="M8.67094 11.8556L8.67108 11.826C8.66732 12.4166 8.18175 12.9374 7.58331 12.9911C6.98254 13.045 6.49552 12.6076 6.49552 12.0142L6.49552 12.0121C6.49868 10.9281 7.03977 9.81597 7.9487 9.21002C8.47816 8.85704 9.11763 8.67115 9.84834 8.67114H32.8922C34.4974 8.67114 35.8176 9.53985 36.4488 10.8289C37.9572 10.8316 39.0466 10.8701 39.9799 11.3089C40.2838 11.4518 40.5705 11.6248 40.8358 11.8255C41.7303 12.5019 42.2456 13.5452 42.9886 15.0498C43.5439 16.174 44.0997 17.298 44.6557 18.4219H40.8113C39.6147 18.4219 38.5486 19.3872 38.4302 20.578L37.7869 27.0461C37.6092 28.8322 38.9203 30.2801 40.7152 30.2801H47.1716L46.8796 33.4849C46.5696 36.8847 43.6836 39.6723 40.314 39.9374C40.4464 37.9138 38.9372 36.2943 36.8868 36.2943C34.8295 36.2943 32.9927 37.9248 32.7323 39.958H21.4559C21.6 37.9248 20.0875 36.2943 18.0302 36.2943C15.9729 36.2943 14.1361 37.9248 13.8757 39.958H11.6227C7.43454 39.958 4.34767 36.5769 4.72798 32.406L4.93007 30.1896C4.9717 29.7321 5.01215 29.2875 5.0951 28.9207C5.18861 28.5073 5.36761 28.0356 5.79682 27.6437C6.22604 27.2518 6.7121 27.1164 7.1323 27.0608C7.50502 27.0115 7.95146 27.0116 8.41083 27.0117L31.2198 27.0117C32.4165 27.0117 33.4746 26.0457 33.5833 24.854L34.6654 12.9866C34.7755 11.7783 33.8879 10.8289 32.6955 10.8289H9.65162C9.06794 10.8289 8.71251 11.2437 8.6726 11.8024C8.67182 11.8174 8.67134 11.8386 8.6711 11.8492L8.67094 11.8556Z" fill="white"/>
<path d="M39.2286 39.958H33.8163C34.0169 38.5203 35.3206 37.3723 36.7796 37.3723C38.2386 37.3723 39.3139 38.5203 39.2286 39.958Z" fill="white"/>
<path d="M17.923 37.3723C19.382 37.3723 20.4573 38.5203 20.372 39.958H14.9597C15.1603 38.5203 16.464 37.3723 17.923 37.3723Z" fill="white"/>
<path d="M47.3682 28.1241L47.466 27.0539C47.5604 26.0227 47.6259 25.3064 47.5009 24.6129C47.3758 23.919 47.0696 23.3007 46.6285 22.4095L45.7224 20.578H40.5968L39.9535 27.0461C39.8943 27.6414 40.3313 28.1241 40.9296 28.1241H47.3682Z" fill="white"/>
<path d="M14.947 40.0673C15.0951 38.5789 16.4276 37.3723 17.9234 37.3723C19.4192 37.3723 20.5117 38.5789 20.3637 40.0673C20.2157 41.5558 18.8831 42.7624 17.3873 42.7624C15.8915 42.7624 14.799 41.5558 14.947 40.0673Z" fill="white"/>
<path d="M33.8035 40.0673C33.9515 38.5789 35.2841 37.3723 36.7799 37.3723C38.2756 37.3723 39.3682 38.5789 39.2201 40.0673C39.0721 41.5558 37.7395 42.7624 36.2438 42.7624C34.748 42.7624 33.6554 41.5558 33.8035 40.0673Z" fill="white"/>
<path fill-rule="evenodd" clip-rule="evenodd" d="M4.33301 23.8333C4.33301 23.235 4.81803 22.75 5.41634 22.75H9.74967C10.348 22.75 10.833 23.235 10.833 23.8333C10.833 24.4316 10.348 24.9167 9.74967 24.9167H5.41634C4.81803 24.9167 4.33301 24.4316 4.33301 23.8333Z" fill="white"/>
<path fill-rule="evenodd" clip-rule="evenodd" d="M4.33301 19.5001C4.33301 18.9018 4.81803 18.4167 5.41634 18.4167H11.9163C12.5146 18.4167 12.9997 18.9018 12.9997 19.5001C12.9997 20.0984 12.5146 20.5834 11.9163 20.5834H5.41634C4.81803 20.5834 4.33301 20.0984 4.33301 19.5001Z" fill="white"/>
<path fill-rule="evenodd" clip-rule="evenodd" d="M4.33301 15.1667C4.33301 14.5684 4.81803 14.0834 5.41634 14.0834H14.083C14.6813 14.0834 15.1663 14.5684 15.1663 15.1667C15.1663 15.765 14.6813 16.25 14.083 16.25H5.41634C4.81803 16.25 4.33301 15.765 4.33301 15.1667Z" fill="white"/>
<path d="M23.0172 14.7494C22.9166 14.9476 22.8937 15.199 22.8479 15.7017L22.7542 16.7287C22.752 16.7531 22.7509 16.7654 22.7426 16.7729C22.7343 16.7805 22.722 16.7805 22.6975 16.7805H21.6662C21.1614 16.7805 20.909 16.7805 20.7024 16.8626C20.427 16.9721 20.197 17.1822 20.0629 17.4465C19.9624 17.6448 19.9395 17.8961 19.8936 18.3988C19.8478 18.9015 19.8249 19.1528 19.8892 19.3511C19.9751 19.6154 20.1668 19.8255 20.4223 19.935C20.6139 20.0171 20.8663 20.0171 21.3711 20.0171H22.4024C22.4269 20.0171 22.4392 20.0171 22.4461 20.0247C22.453 20.0323 22.4519 20.0445 22.4497 20.0689L22.356 21.0959C22.3102 21.5986 22.2873 21.85 22.3516 22.0482C22.4375 22.3126 22.6292 22.5226 22.8847 22.6321C23.0763 22.7142 23.3287 22.7142 23.8335 22.7142C24.3382 22.7142 24.5906 22.7142 24.7972 22.6321C25.0726 22.5226 25.3027 22.3126 25.4367 22.0482C25.5373 21.85 25.5602 21.5986 25.606 21.0959L25.6997 20.0689C25.7019 20.0445 25.703 20.0323 25.7113 20.0247C25.7196 20.0171 25.7319 20.0171 25.7564 20.0171H26.7877C27.2925 20.0171 27.5449 20.0171 27.7514 19.935C28.0269 19.8255 28.2569 19.6154 28.391 19.3511C28.4915 19.1528 28.5144 18.9015 28.5603 18.3988C28.6061 17.8961 28.629 17.6448 28.5647 17.4465C28.4788 17.1822 28.2871 16.9721 28.0316 16.8626C27.84 16.7805 27.5876 16.7805 27.0828 16.7805H26.0515C26.027 16.7805 26.0147 16.7805 26.0078 16.7729C26.0009 16.7654 26.002 16.7531 26.0042 16.7287L26.0979 15.7017C26.1437 15.199 26.1666 14.9476 26.1023 14.7494C26.0164 14.485 25.8247 14.275 25.5692 14.1655C25.3776 14.0834 25.1252 14.0834 24.6204 14.0834C24.1157 14.0834 23.8633 14.0834 23.6567 14.1655C23.3813 14.275 23.1512 14.485 23.0172 14.7494Z" fill="white"/>
</svg>
