<svg width="19" height="28" viewBox="0 0 19 28" fill="none" xmlns="http://www.w3.org/2000/svg">
<path fill-rule="evenodd" clip-rule="evenodd" d="M6.87503 0.25C5.68496 0.25 4.67986 1.04194 4.35797 2.12756C4.02639 2.13287 3.76038 2.14893 3.51844 2.19706C2.03085 2.49296 0.867983 3.65582 0.572083 5.14341C0.499758 5.50701 0.499862 5.92498 0.500014 6.53818L0.500027 19.8061C0.500011 21.5263 0.5 22.8936 0.644009 23.9647C0.792485 25.069 1.1063 25.9702 1.81805 26.682C2.5298 27.3937 3.43098 27.7075 4.53532 27.856C5.60646 28 6.97374 28 8.69388 28H10.3062C12.0263 28 13.3936 28 14.4647 27.856C15.5691 27.7075 16.4703 27.3937 17.182 26.682C17.8938 25.9702 18.2076 25.069 18.356 23.9647C18.5001 22.8936 18.5 21.5263 18.5 19.8061L18.5 6.5382C18.5002 5.925 18.5003 5.50701 18.428 5.14341C18.1321 3.65582 16.9692 2.49296 15.4816 2.19706C15.2397 2.14893 14.9737 2.13287 14.6421 2.12756C14.3202 1.04194 13.3151 0.25 12.125 0.25H6.87503ZM5.75003 2.875C5.75003 2.25368 6.25371 1.75 6.87503 1.75H12.125C12.7463 1.75 13.25 2.25368 13.25 2.875C13.25 3.49632 12.7463 4 12.125 4H6.87503C6.25371 4 5.75003 3.49632 5.75003 2.875ZM5.79854 17.4483L7.06049 13.2418L8.5778 21.8399C8.76068 22.8762 10.2286 22.9278 10.4839 21.9069L11.5856 17.5H14.75C15.1642 17.5 15.5 17.1642 15.5 16.75C15.5 16.3358 15.1642 16 14.75 16H11.2928C10.7766 16 10.3266 16.3513 10.2014 16.8521L9.62655 19.1515L8.15331 10.8031C7.97474 9.7912 6.55453 9.70817 6.25927 10.6924L4.44198 16.75H4.25C3.83579 16.75 3.5 17.0858 3.5 17.5C3.5 17.9142 3.83579 18.25 4.25 18.25H4.72099C5.2178 18.25 5.65579 17.9241 5.79854 17.4483Z" fill="white"/>
</svg>
