<svg width="28" height="28" viewBox="0 0 28 28" fill="none" xmlns="http://www.w3.org/2000/svg">
<path fill-rule="evenodd" clip-rule="evenodd" d="M14.0006 6.44493L14.8932 5.486C17.3579 2.838 21.354 2.838 23.8188 5.486C25.7416 7.55179 26.1644 10.6189 25.0871 13.125H18.6673C18.3748 13.125 18.1016 13.2712 17.9393 13.5146L16.334 15.9226L12.3954 10.0146C12.2331 9.77121 11.9599 9.625 11.6673 9.625C11.3748 9.625 11.1016 9.77121 10.9393 10.0146L8.8657 13.125H2.91423C1.83695 10.6189 2.25972 7.55179 4.18253 5.486C6.64726 2.838 10.6434 2.838 13.1081 5.486L14.0006 6.44493ZM4.00347 14.875C4.06164 14.9427 4.12132 15.0095 4.18253 15.0753L12.2155 23.7056C13.2014 24.7648 14.7999 24.7648 15.7858 23.7056L23.8188 15.0753C23.88 15.0095 23.9397 14.9427 23.9978 14.875H19.1356L17.062 17.9854C16.8997 18.2288 16.6265 18.375 16.334 18.375C16.0414 18.375 15.7682 18.2288 15.6059 17.9854L11.6673 12.0774L10.062 14.4854C9.89975 14.7288 9.62654 14.875 9.33398 14.875H4.00347Z" fill="url(#paint0_linear_98_1321)"/>
<defs>
<linearGradient id="paint0_linear_98_1321" x1="23.7347" y1="1.30182" x2="8.82811" y2="29.3668" gradientUnits="userSpaceOnUse">
<stop stop-color="#03637E"/>
<stop offset="0.932292" stop-color="#41AAC9"/>
</linearGradient>
</defs>
</svg>
