<svg width="36" height="36" viewBox="0 0 36 36" fill="none" xmlns="http://www.w3.org/2000/svg">
<path fill-rule="evenodd" clip-rule="evenodd" d="M15.375 3.75C14.185 3.75 13.1799 4.54194 12.858 5.62756C12.5264 5.63287 12.2604 5.64893 12.0184 5.69706C10.5308 5.99296 9.36798 7.15582 9.07208 8.64341C8.99976 9.00701 8.99986 9.42498 9.00001 10.0382L9.00003 23.3061C9.00001 25.0263 9 26.3936 9.14401 27.4647C9.29248 28.569 9.6063 29.4702 10.318 30.182C11.0298 30.8937 11.931 31.2075 13.0353 31.356C14.1065 31.5 15.4737 31.5 17.1939 31.5H18.8062C20.5263 31.5 21.8936 31.5 22.9647 31.356C24.0691 31.2075 24.9703 30.8937 25.682 30.182C26.3938 29.4702 26.7076 28.569 26.856 27.4647C27.0001 26.3936 27 25.0263 27 23.3061L27 10.0382C27.0002 9.425 27.0003 9.00701 26.928 8.64341C26.6321 7.15582 25.4692 5.99296 23.9816 5.69706C23.7397 5.64893 23.4737 5.63287 23.1421 5.62756C22.8202 4.54194 21.8151 3.75 20.625 3.75H15.375ZM14.25 6.375C14.25 5.75368 14.7537 5.25 15.375 5.25H20.625C21.2463 5.25 21.75 5.75368 21.75 6.375C21.75 6.99632 21.2463 7.5 20.625 7.5H15.375C14.7537 7.5 14.25 6.99632 14.25 6.375ZM14.2985 20.9483L15.5605 16.7418L17.0778 25.3399C17.2607 26.3762 18.7286 26.4278 18.9839 25.4069L20.0856 21H23.25C23.6642 21 24 20.6642 24 20.25C24 19.8358 23.6642 19.5 23.25 19.5H19.7928C19.2766 19.5 18.8266 19.8513 18.7014 20.3521L18.1266 22.6515L16.6533 14.3031C16.4747 13.2912 15.0545 13.2082 14.7593 14.1924L12.942 20.25H12.75C12.3358 20.25 12 20.5858 12 21C12 21.4142 12.3358 21.75 12.75 21.75H13.221C13.7178 21.75 14.1558 21.4241 14.2985 20.9483Z" fill="white"/>
</svg>
