<svg width="36" height="36" viewBox="0 0 36 36" fill="none" xmlns="http://www.w3.org/2000/svg">
<path fill-rule="evenodd" clip-rule="evenodd" d="M4.5 29V7C4.5 4.79086 6.29086 3 8.5 3H17.8431C18.022 3 18.1997 3.01198 18.375 3.0355L18.375 9C18.375 12.935 21.565 16.125 25.5 16.125H31.4645C31.488 16.3003 31.5 16.478 31.5 16.6569V29C31.5 31.2091 29.7091 33 27.5 33L8.5 33C6.29086 33 4.5 31.2091 4.5 29ZM20.625 9V4.12576C20.6406 4.14089 20.6562 4.15616 20.6716 4.17157L30.3284 13.8284C30.3438 13.8438 30.3591 13.8594 30.3742 13.875H25.5C22.8076 13.875 20.625 11.6924 20.625 9ZM15.0981 23.7085C15.0981 23.0522 15.1963 22.5015 15.3926 22.0562C15.5391 21.728 15.7383 21.4336 15.9902 21.1729C16.2451 20.9121 16.5234 20.7188 16.8252 20.5928C17.2266 20.4229 17.6895 20.3379 18.2139 20.3379C19.1631 20.3379 19.9219 20.6323 20.4902 21.2212C21.0615 21.8101 21.3472 22.6289 21.3472 23.6777C21.3472 24.7178 21.0645 25.5322 20.499 26.1211C19.9336 26.707 19.1777 27 18.2314 27C17.2734 27 16.5117 26.7085 15.9463 26.1255C15.3809 25.5396 15.0981 24.7339 15.0981 23.7085ZM16.4385 23.6646C16.4385 24.394 16.6069 24.9478 16.9438 25.3257C17.2808 25.7007 17.7085 25.8882 18.2271 25.8882C18.7456 25.8882 19.1704 25.7021 19.5015 25.3301C19.8355 24.9551 20.0024 24.394 20.0024 23.647C20.0024 22.9087 19.8398 22.3579 19.5146 21.9946C19.1924 21.6313 18.7632 21.4497 18.2271 21.4497C17.6909 21.4497 17.2588 21.6343 16.9307 22.0034C16.6025 22.3696 16.4385 22.9233 16.4385 23.6646ZM8.85352 20.4478H11.231C11.7671 20.4478 12.1758 20.4888 12.457 20.5708C12.835 20.6821 13.1587 20.8799 13.4282 21.1641C13.6978 21.4482 13.9028 21.7969 14.0435 22.21C14.1841 22.6201 14.2544 23.127 14.2544 23.7305C14.2544 24.2607 14.1885 24.7178 14.0566 25.1016C13.8955 25.5703 13.6655 25.9497 13.3667 26.2397C13.1411 26.4595 12.8364 26.6309 12.4526 26.7539C12.1655 26.8447 11.7817 26.8901 11.3013 26.8901H8.85352V20.4478ZM10.1543 21.5376V25.8047H11.1255C11.4888 25.8047 11.751 25.7842 11.9121 25.7432C12.123 25.6904 12.2974 25.6011 12.4351 25.4751C12.5757 25.3491 12.6899 25.1426 12.7778 24.8555C12.8657 24.5654 12.9097 24.1714 12.9097 23.6733C12.9097 23.1753 12.8657 22.793 12.7778 22.5264C12.6899 22.2598 12.5669 22.0518 12.4087 21.9023C12.2505 21.7529 12.0498 21.6519 11.8066 21.5991C11.625 21.5581 11.269 21.5376 10.7388 21.5376H10.1543ZM27.75 24.9214L26.4888 24.5215C26.3804 24.9932 26.2017 25.3389 25.9526 25.5586C25.7036 25.7783 25.4062 25.8882 25.0605 25.8882C24.5918 25.8882 24.2109 25.7153 23.918 25.3696C23.625 25.0239 23.4785 24.4438 23.4785 23.6294C23.4785 22.8618 23.6265 22.3066 23.9224 21.9639C24.2212 21.6211 24.6094 21.4497 25.0869 21.4497C25.4326 21.4497 25.7256 21.5464 25.9658 21.7397C26.209 21.9331 26.3687 22.1968 26.4448 22.5308L27.7324 22.2231C27.5859 21.7075 27.3662 21.312 27.0732 21.0366C26.5811 20.5708 25.9409 20.3379 25.1528 20.3379C24.2505 20.3379 23.5225 20.6353 22.9688 21.23C22.415 21.8218 22.1382 22.6538 22.1382 23.7261C22.1382 24.7397 22.4136 25.5396 22.9644 26.1255C23.5151 26.7085 24.2183 27 25.0737 27C25.7651 27 26.335 26.8301 26.7832 26.4902C27.2344 26.1475 27.5566 25.6245 27.75 24.9214Z" fill="white"/>
</svg>
