<svg width="43" height="41" viewBox="0 0 43 41" fill="none" xmlns="http://www.w3.org/2000/svg">
<path d="M0.935547 13.6179C0.935547 6.5563 6.31502 0.718994 13.0949 0.718994C16.595 0.718994 19.7243 2.28723 21.9233 4.76915C24.1263 2.2866 27.2689 0.718994 30.7508 0.718994C37.5307 0.718994 42.9102 6.5563 42.9102 13.6179C42.9102 15.1913 42.7004 16.7929 42.3073 18.3925H35.6355L33.1871 15.9441C32.3874 15.1444 31.0393 15.3632 30.5335 16.3747L28.2478 20.9462L26.4787 19.1771C25.7547 18.4531 24.554 18.5525 23.9588 19.3856L20.239 24.5934L17.7993 14.0213C17.458 12.5425 15.4735 12.2626 14.7364 13.5892L10.7385 20.7854L8.82888 18.2392C8.2239 17.4326 7.04474 17.3488 6.33176 18.0617L4.89639 19.4971H1.6608C1.18809 17.6099 0.935547 15.6451 0.935547 13.6179Z" fill="white"/>
<path d="M2.32561 21.7063C5.31857 30.2006 12.8121 36.8764 21.5313 40.1819C21.7836 40.2775 22.0621 40.2775 22.3144 40.1819C28.0488 38.0079 33.1793 33.9613 36.879 29.1958C38.9556 26.5209 40.6039 23.5895 41.6489 20.6017H35.4068C34.9673 20.6017 34.5459 20.4271 34.2352 20.1164L32.1668 18.0481L29.8811 22.6195C29.3753 23.631 28.0272 23.8498 27.2275 23.0501L25.3776 21.2002L21.3246 26.8744C20.495 28.0359 18.6828 27.6747 18.3619 26.2839L15.9698 15.9182L12.2561 22.6028C11.6731 23.6522 10.2025 23.7526 9.48221 22.7923L7.44361 20.0742L6.29676 21.221C5.98603 21.5317 5.56459 21.7063 5.12516 21.7063H2.32561Z" fill="white"/>
</svg>
