<svg width="25" height="18" viewBox="0 0 25 18" fill="none" xmlns="http://www.w3.org/2000/svg">
<path fill-rule="evenodd" clip-rule="evenodd" d="M4.58868 3.15497C4.58868 2.36295 3.94662 1.72089 3.1546 1.72089C2.36258 1.72089 1.72052 2.36295 1.72052 3.15497V7.74401C1.72052 9.50758 2.94491 10.9852 4.59 11.3731C4.5899 11.3591 4.58984 11.345 4.58984 11.331V6.64189C4.58907 6.62694 4.58868 6.61189 4.58868 6.59675V3.15497ZM6.30957 4.05788V3.15497C6.30957 1.41253 4.89704 0 3.1546 0C1.41216 0 -0.000366211 1.41253 -0.000366211 3.15497V7.74401C-0.000366211 10.5712 2.15259 12.8956 4.90844 13.167C5.23258 14.0727 5.79458 14.8873 6.55065 15.5174L7.37625 16.2054C10.2481 18.5986 14.4196 18.5986 17.2914 16.2054L18.117 15.5174C18.8731 14.8873 19.4351 14.0727 19.7593 13.1669C22.5148 12.8952 24.6673 10.571 24.6673 7.74401V3.15497C24.6673 1.41253 23.2548 0 21.5124 0C19.7699 0 18.3574 1.41253 18.3574 3.15497V4.05753L14.7709 2.26428C13.2367 1.49719 11.4309 1.49719 9.89676 2.26428L6.30957 4.05788ZM21.5124 1.72089C20.7204 1.72089 20.0783 2.36295 20.0783 3.15497V6.59675C20.0783 6.60621 20.0782 6.61563 20.0779 6.62502V11.331L20.0777 11.373C21.7224 10.9848 22.9465 9.50733 22.9465 7.74401V3.15497C22.9465 2.36295 22.3044 1.72089 21.5124 1.72089Z" fill="#B3E0EC"/>
</svg>
