<svg width="19" height="19" viewBox="0 0 19 19" fill="none" xmlns="http://www.w3.org/2000/svg">
<path d="M9.17491 1.15881C9.24975 0.928485 9.5756 0.928488 9.65044 1.15881L11.169 5.83258C11.4033 6.55362 12.0752 7.0418 12.8334 7.0418H17.7477C17.9899 7.0418 18.0905 7.3517 17.8946 7.49405L13.9189 10.3826C13.3055 10.8282 13.0489 11.6181 13.2832 12.3392L14.8018 17.0129C14.8766 17.2432 14.613 17.4348 14.417 17.2924L10.4413 14.4039C9.82795 13.9583 8.99741 13.9583 8.38405 14.4039L4.40832 17.2924C4.21239 17.4348 3.94877 17.2432 4.0236 17.0129L5.5422 12.3392C5.77648 11.6181 5.51983 10.8282 4.90648 10.3826L0.930738 7.49405C0.734809 7.3517 0.835504 7.0418 1.07768 7.0418H5.99197C6.75011 7.0418 7.42204 6.55362 7.65632 5.83258L9.17491 1.15881Z" stroke="#036F8C" stroke-width="1.5"/>
</svg>
