<svg width="24" height="24" viewBox="0 0 24 24" fill="none" xmlns="http://www.w3.org/2000/svg">
<path d="M10.1051 13.9088C10.1962 14.8579 10.3507 15.5633 10.5633 16.0286C10.7786 16.4925 11.1607 16.7239 11.7123 16.7239C11.8155 16.7239 11.9077 16.7078 11.9992 16.689C12.093 16.7078 12.1848 16.7239 12.2887 16.7239C12.8388 16.7239 13.2221 16.4925 13.4362 16.0286C13.65 15.5633 13.8018 14.8579 13.8948 13.9088L14.3846 6.58051C14.4757 5.15213 14.5222 4.12726 14.5222 3.50513C14.5222 2.65838 14.3013 1.99763 13.8581 1.52326C13.4133 1.04888 12.8291 0.812256 12.1053 0.812256C12.0667 0.812256 12.0378 0.820881 12 0.822381C11.964 0.820881 11.9343 0.812256 11.8968 0.812256C11.1716 0.812256 10.5885 1.04888 10.1445 1.52326C9.70083 1.99838 9.47845 2.65951 9.47845 3.50551C9.47845 4.12763 9.52383 5.15251 9.61645 6.58088L10.1051 13.9088ZM12.0183 19.4025C11.3156 19.4025 10.7186 19.6241 10.2228 20.0674C9.72745 20.511 9.4792 21.0495 9.4792 21.6818C9.4792 22.3954 9.73045 22.9571 10.2292 23.3651C10.7302 23.7731 11.3145 23.9771 11.9823 23.9771C12.6622 23.9771 13.2551 23.7761 13.7621 23.373C14.2683 22.971 14.5215 22.4063 14.5215 21.6825C14.5215 21.0503 14.2792 20.5118 13.7947 20.0681C13.3102 19.6241 12.7181 19.4025 12.0172 19.4025" fill="white"/>
</svg>
