<svg width="76" height="45" viewBox="0 0 76 45" fill="none" xmlns="http://www.w3.org/2000/svg">
<g clip-path="url(#clip0_810_4538)">
<path d="M69.8476 0H6.04741C2.70752 0 0 2.70432 0 6.04027V38.9597C0 42.2957 2.70752 45 6.04741 45H69.8476C73.1875 45 75.895 42.2957 75.895 38.9597V6.04027C75.895 2.70432 73.1875 0 69.8476 0Z" fill="url(#paint0_linear_810_4538)"/>
<path d="M12.4717 38.9595V35.9575H13.7162C13.846 35.9575 13.9646 35.9856 14.0718 36.0421C14.1819 36.0955 14.2764 36.1674 14.3554 36.2577C14.4345 36.345 14.4966 36.4453 14.5417 36.5579C14.5869 36.6706 14.6094 36.7847 14.6094 36.9004C14.6094 37.0245 14.5883 37.1441 14.5459 37.2598C14.5036 37.3725 14.4443 37.4727 14.3681 37.56C14.292 37.6473 14.2002 37.718 14.093 37.7714C13.9886 37.8249 13.8714 37.8517 13.7416 37.8517H12.768V38.9595H12.4717ZM12.768 37.5896H13.7289C13.8164 37.5896 13.8955 37.5712 13.966 37.5346C14.0394 37.4951 14.1015 37.4443 14.1523 37.3824C14.2031 37.3175 14.2426 37.2444 14.2708 37.1626C14.299 37.078 14.3131 36.9907 14.3131 36.9004C14.3131 36.8074 14.2962 36.7201 14.2623 36.6383C14.2313 36.5537 14.1875 36.4803 14.1311 36.4184C14.0775 36.3565 14.0126 36.3085 13.9364 36.2746C13.863 36.2381 13.7854 36.2197 13.7035 36.2197H12.768V37.5896Z" fill="url(#paint1_linear_810_4538)"/>
<path d="M16.8613 36.52C16.7767 36.4243 16.6638 36.3467 16.5227 36.2875C16.3816 36.2283 16.2207 36.1987 16.0401 36.1987C15.7748 36.1987 15.5815 36.2494 15.4602 36.3509C15.3388 36.4496 15.2781 36.5849 15.2781 36.7568C15.2781 36.8471 15.2936 36.9217 15.3247 36.9809C15.3586 37.0374 15.4094 37.0866 15.4771 37.1289C15.5448 37.1712 15.6309 37.2077 15.7353 37.2388C15.8425 37.2699 15.9681 37.3007 16.1121 37.3318C16.2729 37.3657 16.4169 37.4037 16.5439 37.446C16.6737 37.4883 16.7837 37.5417 16.874 37.6067C16.9643 37.6686 17.0335 37.7447 17.0815 37.835C17.1294 37.9253 17.1534 38.0379 17.1534 38.1732C17.1534 38.3113 17.1266 38.4312 17.073 38.5326C17.0194 38.6341 16.9446 38.7187 16.8486 38.7863C16.7527 38.854 16.6384 38.9047 16.5058 38.9385C16.3731 38.9696 16.2278 38.985 16.0697 38.985C15.6041 38.985 15.2019 38.8398 14.8633 38.5495L15.0114 38.3085C15.0651 38.365 15.1286 38.4185 15.2019 38.4692C15.2781 38.5199 15.3614 38.5649 15.4517 38.6045C15.5448 38.6411 15.6436 38.6707 15.748 38.6933C15.8524 38.7129 15.9625 38.7229 16.0782 38.7229C16.3181 38.7229 16.5043 38.6806 16.637 38.5961C16.7724 38.5088 16.8402 38.3777 16.8402 38.2028C16.8402 38.1098 16.8204 38.0322 16.7809 37.9703C16.7442 37.9053 16.6878 37.8504 16.6116 37.8054C16.5354 37.7574 16.4408 37.7166 16.328 37.6828C16.2151 37.6489 16.0838 37.6151 15.9343 37.5813C15.7762 37.5447 15.638 37.5067 15.5194 37.4671C15.4009 37.4276 15.3007 37.3783 15.2189 37.3191C15.137 37.2599 15.0749 37.1896 15.0326 37.1077C14.9931 37.0232 14.9733 36.9202 14.9733 36.7991C14.9733 36.6611 14.9987 36.5384 15.0495 36.4312C15.1032 36.3213 15.1779 36.231 15.2739 36.1606C15.3698 36.0872 15.4827 36.0323 15.6126 35.9957C15.7424 35.9562 15.8863 35.9365 16.0443 35.9365C16.2447 35.9365 16.4225 35.9676 16.5777 36.0295C16.7357 36.0887 16.8783 36.1733 17.0053 36.2832L16.8613 36.52Z" fill="url(#paint2_linear_810_4538)"/>
<path d="M17.6316 35.9575L18.6137 37.5727L19.6043 35.9575H19.926L18.7619 37.8433V38.9595H18.4656V37.8348L17.3057 35.9575H17.6316Z" fill="url(#paint3_linear_810_4538)"/>
<path d="M19.9697 37.4377C19.9697 37.2574 20.0008 37.0783 20.0629 36.9007C20.1278 36.7204 20.2209 36.5597 20.3422 36.4187C20.4636 36.2777 20.6132 36.1635 20.791 36.0762C20.9688 35.9859 21.1706 35.9409 21.3963 35.9409C21.6644 35.9409 21.893 36.0016 22.0821 36.1227C22.274 36.2438 22.4151 36.4018 22.5054 36.5963L22.2726 36.74C22.2246 36.6413 22.1654 36.5582 22.0948 36.4906C22.0271 36.4229 21.9537 36.368 21.8747 36.3257C21.7957 36.2834 21.7138 36.2538 21.6291 36.2369C21.5445 36.2173 21.4612 36.2073 21.3794 36.2073C21.1988 36.2073 21.0393 36.2438 20.901 36.3172C20.7628 36.3906 20.6456 36.4864 20.5497 36.6047C20.4565 36.7231 20.386 36.8569 20.338 37.0064C20.2901 37.1529 20.2661 37.3024 20.2661 37.4546C20.2661 37.621 20.2943 37.7802 20.3507 37.9324C20.41 38.0846 20.489 38.2199 20.5878 38.3383C20.6894 38.454 20.8079 38.547 20.9434 38.6174C21.0817 38.685 21.2312 38.7188 21.3921 38.7188C21.4767 38.7188 21.5628 38.7089 21.6503 38.6892C21.7406 38.6666 21.8267 38.6328 21.9085 38.5878C21.9932 38.5397 22.0708 38.4821 22.1414 38.4144C22.2119 38.344 22.2712 38.2595 22.3191 38.1607L22.5647 38.2876C22.5167 38.4002 22.449 38.5005 22.3615 38.5878C22.274 38.6723 22.1766 38.7442 22.0694 38.8034C21.9622 38.8626 21.8479 38.9076 21.7265 38.9387C21.608 38.9698 21.4909 38.9852 21.3751 38.9852C21.1691 38.9852 20.9801 38.9402 20.8079 38.8499C20.6358 38.7596 20.4876 38.6427 20.3634 38.499C20.2393 38.3525 20.1419 38.1876 20.0713 38.0043C20.0036 37.8182 19.9697 37.6295 19.9697 37.4377Z" fill="url(#paint4_linear_810_4538)"/>
<path d="M25.4419 35.9575V38.9595H25.1498V37.5558H23.3676V38.9595H23.0713V35.9575H23.3676V37.2936H25.1498V35.9575H25.4419Z" fill="url(#paint5_linear_810_4538)"/>
<path d="M26.1963 38.9595V35.9575H26.4926V38.9595H26.1963Z" fill="url(#paint6_linear_810_4538)"/>
<path d="M28.1782 35.9575H28.4279L29.6767 38.9595H29.3634L28.974 38.0209H27.6236L27.2384 38.9595H26.9209L28.1782 35.9575ZM28.9063 37.7883L28.3009 36.3042L27.6871 37.7883H28.9063Z" fill="url(#paint7_linear_810_4538)"/>
<path d="M31.9432 36.2197H30.8722V38.9595H30.5759V36.2197H29.5049V35.9575H31.9432V36.2197Z" fill="url(#paint8_linear_810_4538)"/>
<path d="M32.3936 38.9595V35.9575H33.6635C33.7932 35.9575 33.9118 35.9856 34.0191 36.0421C34.1292 36.0955 34.2238 36.1674 34.3027 36.2577C34.3816 36.345 34.4424 36.4453 34.4847 36.5579C34.5298 36.6706 34.5525 36.7847 34.5525 36.9004C34.5525 37.0103 34.5355 37.116 34.5017 37.2175C34.4705 37.3163 34.4255 37.4063 34.3662 37.4881C34.3097 37.5669 34.2407 37.6346 34.1588 37.6911C34.0769 37.7445 33.9852 37.7814 33.8836 37.801L34.6202 38.9595H34.2858L33.5788 37.8517H32.6899V38.9595H32.3936ZM32.6899 37.5896H33.672C33.7594 37.5896 33.8386 37.5712 33.909 37.5346C33.9825 37.4951 34.0445 37.4431 34.0953 37.3782C34.1461 37.3133 34.1857 37.2402 34.2138 37.1583C34.2419 37.0765 34.2562 36.9907 34.2562 36.9004C34.2562 36.8101 34.2392 36.7243 34.2054 36.6425C34.1742 36.5579 34.1307 36.4845 34.0741 36.4226C34.0206 36.3607 33.9556 36.3112 33.8794 36.2746C33.8059 36.2381 33.7285 36.2197 33.6466 36.2197H32.6899V37.5896Z" fill="url(#paint9_linear_810_4538)"/>
<path d="M35.0769 35.9575L36.059 37.5727L37.0496 35.9575H37.3713L36.2072 37.8433V38.9595H35.9109V37.8348L34.751 35.9575H35.0769Z" fill="url(#paint10_linear_810_4538)"/>
<path d="M39.0473 36.5072V38.9595H38.751V35.9575H38.9796L40.9692 38.4564V35.9617H41.2655V38.9595H41.0073L39.0473 36.5072Z" fill="url(#paint11_linear_810_4538)"/>
<path d="M42.9526 35.9575H43.2023L44.4511 38.9595H44.1379L43.7484 38.0209H42.398L42.0128 38.9595H41.6953L42.9526 35.9575ZM43.6807 37.7883L43.0753 36.3042L42.4615 37.7883H43.6807Z" fill="url(#paint12_linear_810_4538)"/>
<path d="M44.8818 38.9595V35.9575H46.1518C46.2815 35.9575 46.4 35.9856 46.5074 36.0421C46.6174 36.0955 46.7118 36.1674 46.791 36.2577C46.8699 36.345 46.9307 36.4453 46.973 36.5579C47.0181 36.6706 47.0408 36.7847 47.0408 36.9004C47.0408 37.0103 47.0238 37.116 46.99 37.2175C46.9588 37.3163 46.9138 37.4063 46.8545 37.4881C46.798 37.5669 46.7287 37.6346 46.6471 37.6911C46.5651 37.7445 46.4735 37.7814 46.3719 37.801L47.1085 38.9595H46.7741L46.0671 37.8517H45.1782V38.9595H44.8818ZM45.1782 37.5896H46.1603C46.2476 37.5896 46.3266 37.5712 46.3973 37.5346C46.4705 37.4951 46.5328 37.4431 46.5836 37.3782C46.6344 37.3133 46.6737 37.2402 46.7021 37.1583C46.7302 37.0765 46.7444 36.9907 46.7444 36.9004C46.7444 36.8101 46.7275 36.7243 46.6936 36.6425C46.6625 36.5579 46.6187 36.4845 46.5624 36.4226C46.5086 36.3607 46.4439 36.3112 46.3677 36.2746C46.2942 36.2381 46.2165 36.2197 46.1349 36.2197H45.1782V37.5896Z" fill="url(#paint13_linear_810_4538)"/>
<path d="M47.4482 37.4377C47.4482 37.2574 47.4794 37.0783 47.5414 36.9007C47.6064 36.7204 47.6995 36.5597 47.8208 36.4187C47.942 36.2777 48.0917 36.1635 48.2695 36.0762C48.4473 35.9859 48.649 35.9409 48.8748 35.9409C49.143 35.9409 49.3716 36.0016 49.5606 36.1227C49.7526 36.2438 49.8935 36.4018 49.9839 36.5963L49.7511 36.74C49.703 36.6413 49.6438 36.5582 49.5733 36.4906C49.5056 36.4229 49.4321 36.368 49.3532 36.3257C49.2743 36.2834 49.1923 36.2538 49.1077 36.2369C49.023 36.2173 48.9398 36.2073 48.8579 36.2073C48.6774 36.2073 48.5177 36.2438 48.3795 36.3172C48.2414 36.3906 48.124 36.4864 48.0282 36.6047C47.9351 36.7231 47.8646 36.8569 47.8165 37.0064C47.7685 37.1529 47.7446 37.3024 47.7446 37.4546C47.7446 37.621 47.7727 37.7802 47.8292 37.9324C47.8885 38.0846 47.9674 38.2199 48.0663 38.3383C48.1679 38.454 48.2864 38.547 48.4219 38.6174C48.5601 38.685 48.7097 38.7188 48.8706 38.7188C48.9553 38.7188 49.0414 38.7089 49.1288 38.6892C49.2192 38.6666 49.3051 38.6328 49.387 38.5878C49.4717 38.5397 49.5494 38.4821 49.6199 38.4144C49.6903 38.344 49.7496 38.2595 49.7977 38.1607L50.0432 38.2876C49.9951 38.4002 49.9274 38.5005 49.84 38.5878C49.7526 38.6723 49.6552 38.7442 49.5479 38.8034C49.4406 38.8626 49.3263 38.9076 49.205 38.9387C49.0865 38.9698 48.9695 38.9852 48.8537 38.9852C48.6477 38.9852 48.4585 38.9402 48.2864 38.8499C48.1144 38.7596 47.9662 38.6427 47.8419 38.499C47.7177 38.3525 47.6203 38.1876 47.5498 38.0043C47.4821 37.8182 47.4482 37.6295 47.4482 37.4377Z" fill="url(#paint14_linear_810_4538)"/>
<path d="M51.7309 38.9808C51.522 38.9808 51.3303 38.9385 51.1552 38.854C50.9832 38.7667 50.835 38.6525 50.7107 38.5115C50.5865 38.3677 50.4906 38.2043 50.4229 38.021C50.3552 37.8377 50.3213 37.6504 50.3213 37.4587C50.3213 37.2584 50.3567 37.067 50.4271 36.8836C50.5006 36.7003 50.6007 36.5384 50.7277 36.3974C50.8547 36.2564 51.0043 36.1452 51.1764 36.0634C51.3484 35.9788 51.5347 35.9365 51.7352 35.9365C51.9441 35.9365 52.1346 35.9815 52.3067 36.0718C52.4817 36.1591 52.6299 36.2748 52.7511 36.4185C52.8754 36.5623 52.9713 36.7257 53.039 36.909C53.1067 37.0893 53.1406 37.2741 53.1406 37.4629C53.1406 37.6631 53.104 37.8546 53.0305 38.0379C52.9601 38.2213 52.8612 38.3831 52.7342 38.5242C52.6099 38.6622 52.4618 38.7736 52.2897 38.8582C52.1177 38.94 51.9314 38.9808 51.7309 38.9808ZM50.6176 37.4587C50.6176 37.6221 50.6445 37.78 50.698 37.9322C50.7516 38.0817 50.8278 38.2155 50.9266 38.3339C51.0255 38.4496 51.1425 38.5426 51.278 38.613C51.4135 38.6806 51.5643 38.7144 51.7309 38.7144C51.9003 38.7144 52.0542 38.6779 52.1924 38.6045C52.3305 38.5311 52.4479 38.4354 52.5437 38.317C52.6396 38.1986 52.713 38.0648 52.7638 37.9153C52.8174 37.7658 52.8443 37.6136 52.8443 37.4587C52.8443 37.2953 52.8162 37.1388 52.7596 36.9893C52.7061 36.8371 52.6299 36.7033 52.531 36.5877C52.4321 36.472 52.3151 36.3805 52.1797 36.3128C52.0442 36.2425 51.8945 36.2071 51.7309 36.2071C51.5616 36.2071 51.4077 36.2437 51.2695 36.3171C51.1313 36.3874 51.014 36.482 50.9182 36.6004C50.8223 36.7187 50.7473 36.8525 50.6938 37.002C50.643 37.1515 50.6176 37.3037 50.6176 37.4587Z" fill="url(#paint15_linear_810_4538)"/>
<path d="M53.7002 38.9595V35.9575H53.9965V38.6974H55.7321V38.9595H53.7002Z" fill="url(#paint16_linear_810_4538)"/>
<path d="M57.188 38.9808C56.979 38.9808 56.7873 38.9385 56.6123 38.854C56.4402 38.7667 56.2921 38.6525 56.1678 38.5115C56.0435 38.3677 55.9477 38.2043 55.8799 38.021C55.8122 37.8377 55.7783 37.6504 55.7783 37.4587C55.7783 37.2584 55.8137 37.067 55.8842 36.8836C55.9576 36.7003 56.0577 36.5384 56.1847 36.3974C56.3117 36.2564 56.4614 36.1452 56.6334 36.0634C56.8055 35.9788 56.9917 35.9365 57.1922 35.9365C57.4011 35.9365 57.5916 35.9815 57.7637 36.0718C57.9388 36.1591 58.0869 36.2748 58.2082 36.4185C58.3324 36.5623 58.4283 36.7257 58.496 36.909C58.5638 37.0893 58.5976 37.2741 58.5976 37.4629C58.5976 37.6631 58.561 37.8546 58.4876 38.0379C58.4171 38.2213 58.3182 38.3831 58.1912 38.5242C58.067 38.6622 57.9188 38.7736 57.7468 38.8582C57.5747 38.94 57.3884 38.9808 57.188 38.9808ZM56.0746 37.4587C56.0746 37.6221 56.1016 37.78 56.1551 37.9322C56.2086 38.0817 56.2848 38.2155 56.3837 38.3339C56.4825 38.4496 56.5996 38.5426 56.735 38.613C56.8705 38.6806 57.0214 38.7144 57.188 38.7144C57.3573 38.7144 57.5112 38.6779 57.6494 38.6045C57.7876 38.5311 57.9049 38.4354 58.0007 38.317C58.0966 38.1986 58.1701 38.0648 58.2209 37.9153C58.2744 37.7658 58.3013 37.6136 58.3013 37.4587C58.3013 37.2953 58.2732 37.1388 58.2166 36.9893C58.1631 36.8371 58.0869 36.7033 57.988 36.5877C57.8892 36.472 57.7722 36.3805 57.6367 36.3128C57.5012 36.2425 57.3516 36.2071 57.188 36.2071C57.0186 36.2071 56.8647 36.2437 56.7266 36.3171C56.5884 36.3874 56.4711 36.482 56.3752 36.6004C56.2794 36.7187 56.2044 36.8525 56.1508 37.002C56.1 37.1515 56.0746 37.3037 56.0746 37.4587Z" fill="url(#paint17_linear_810_4538)"/>
<path d="M61.3286 38.5199C61.0492 38.8271 60.7275 38.9808 60.3634 38.9808C60.1602 38.9808 59.9725 38.937 59.8004 38.8497C59.6311 38.7625 59.4829 38.6468 59.3559 38.503C59.2317 38.3593 59.1343 38.1971 59.0638 38.0168C58.9931 37.8335 58.958 37.6462 58.958 37.4544C58.958 37.2542 58.9919 37.0627 59.0596 36.8794C59.1301 36.6961 59.2274 36.5354 59.3517 36.3974C59.4757 36.2564 59.6226 36.1452 59.7919 36.0634C59.9613 35.9788 60.146 35.9365 60.3465 35.9365C60.4931 35.9365 60.6271 35.9534 60.7486 35.9873C60.8699 36.0184 60.9772 36.0634 61.0704 36.1226C61.1662 36.179 61.2482 36.2479 61.3159 36.3297C61.3863 36.4086 61.4456 36.4962 61.4937 36.5919L61.2651 36.7441C61.1662 36.5581 61.0377 36.4213 60.8799 36.334C60.7217 36.2467 60.5424 36.2029 60.3423 36.2029C60.1757 36.2029 60.0248 36.2382 59.8893 36.3086C59.7566 36.379 59.6423 36.4735 59.5464 36.5919C59.4533 36.7076 59.3813 36.8414 59.3305 36.9936C59.2797 37.1431 59.2543 37.298 59.2543 37.4587C59.2543 37.6278 59.2824 37.7885 59.339 37.9407C59.3983 38.0929 59.4787 38.2267 59.5803 38.3424C59.6819 38.455 59.8004 38.5453 59.9359 38.613C60.0741 38.6806 60.2237 38.7144 60.3846 38.7144C60.5566 38.7144 60.7202 38.6749 60.8756 38.5961C61.0335 38.5142 61.1847 38.3862 61.3286 38.2113V37.7124H60.6598V37.484H61.5784V38.9597H61.3286V38.5199Z" fill="url(#paint18_linear_810_4538)"/>
<path d="M62.076 35.9575L63.0581 37.5727L64.0486 35.9575H64.3703L63.2062 37.8433V38.9595H62.9099V37.8348L61.75 35.9575H62.076Z" fill="url(#paint19_linear_810_4538)"/>
<path d="M25.1129 33.0811C24.5145 32.1285 23.916 31.2599 23.3176 30.4753C22.7378 29.6908 22.1301 28.9343 21.4942 28.2058C20.8584 27.4587 20.1851 26.7115 19.4745 25.9643C18.7825 25.2171 18.0251 24.4233 17.2023 23.5827C16.0241 22.3499 15.0422 21.4346 14.2568 20.8369C13.4901 20.2391 12.8449 19.8936 12.3212 19.8002C11.8163 19.7068 11.3955 19.8562 11.0589 20.2485C10.7222 20.6221 10.395 21.1825 10.077 21.9296C9.75913 22.6581 9.42251 23.5454 9.06719 24.5914C8.71187 25.6374 8.25369 26.7769 7.69264 28.0097C7.50563 28.402 7.29055 28.8596 7.04744 29.3826C6.82302 29.887 6.50511 30.2793 6.09368 30.5595C5.77576 30.7649 5.63549 30.6716 5.6729 30.2793C5.7103 29.8683 5.85991 29.2892 6.12174 28.5421C6.38356 27.7949 6.71082 26.9543 7.10353 26.0203C7.51497 25.0677 7.91706 24.1525 8.30978 23.2745C8.7025 22.3966 9.04847 21.6401 9.3477 21.005C9.64692 20.3512 9.83394 19.9496 9.90875 19.8002C10.3576 18.7355 10.8158 17.7641 11.2833 16.8862C11.7508 15.9896 12.209 15.1117 12.6578 14.2525C13.1254 13.3932 13.5742 12.5153 14.0043 11.6187C14.4532 10.7221 14.8646 9.7321 15.2386 8.64869C15.4069 8.53661 15.5565 8.50861 15.6874 8.56464C15.8184 8.60199 15.9305 8.67671 16.0241 8.78879C16.1176 8.90087 16.1737 9.04094 16.1924 9.20907C16.2298 9.35851 16.2298 9.48925 16.1924 9.60133C16.0802 9.82548 15.9025 10.1804 15.6594 10.666C15.435 11.133 15.1919 11.628 14.93 12.151C14.6869 12.6554 14.4532 13.1504 14.2287 13.636C14.0043 14.103 13.836 14.4579 13.7238 14.7008C13.6864 14.7941 13.6116 14.9903 13.4994 15.2891C13.3872 15.5694 13.3498 15.8028 13.3872 15.9896C13.9295 16.1017 14.6028 16.055 15.4069 15.8495C16.2298 15.6441 17.1087 15.3452 18.0438 14.9529C18.9976 14.5607 19.9794 14.1123 20.9893 13.608C22.0178 13.085 22.9903 12.5713 23.9067 12.067C24.8417 11.5627 25.6833 11.0957 26.4313 10.666C27.1981 10.2177 27.8153 9.88154 28.2828 9.65738C28.7316 9.43323 28.9654 9.39587 28.9841 9.5453C29.0028 9.69474 28.8999 9.91886 28.6755 10.2177C28.4698 10.5166 28.1986 10.8341 27.862 11.1704C27.5441 11.4879 27.2635 11.7121 27.0204 11.8428C26.8334 11.9549 26.5529 12.1137 26.1789 12.3191C25.8049 12.5059 25.4121 12.7021 25.0007 12.9076C24.5893 13.0944 24.2152 13.2718 23.8786 13.4399C23.542 13.608 23.3176 13.7108 23.2054 13.7481C22.7004 13.9723 22.0646 14.2244 21.2978 14.5046C20.5311 14.7848 19.7269 15.0837 18.8854 15.4012C18.0625 15.7188 17.2397 16.0644 16.4168 16.4379C15.6126 16.7928 14.9207 17.1664 14.341 17.5587C14.1913 17.6708 14.0604 17.7828 13.9482 17.8949C13.8547 17.9883 13.7706 18.091 13.6958 18.2031C13.6397 18.3152 13.649 18.4179 13.7238 18.5113C14.0043 18.6794 14.4344 19.0157 15.0142 19.52C15.5939 20.0243 16.2485 20.6221 16.9778 21.3132C17.7072 22.0043 18.4739 22.7702 19.2781 23.6107C20.101 24.4513 20.8957 25.3012 21.6625 26.1605C22.4293 27.0197 23.1306 27.8603 23.7664 28.6821C24.4022 29.504 24.9072 30.2418 25.2812 30.8957C25.674 31.568 25.8983 32.1285 25.9545 32.5767C26.0106 33.0252 25.8329 33.2958 25.4215 33.3894C25.3841 33.3707 25.328 33.3239 25.2532 33.2493C25.1971 33.1744 25.1503 33.1185 25.1129 33.0811Z" fill="url(#paint20_linear_810_4538)"/>
<path d="M32.3504 30.1951C32.2382 29.7281 32.2382 29.1957 32.3504 28.598C32.4813 27.9816 32.6591 27.3652 32.8835 26.7488C33.1078 26.1323 33.3509 25.5439 33.6128 24.9836C33.8746 24.4045 34.0896 23.9282 34.258 23.5546C34.3515 23.3305 34.4918 23.0035 34.6786 22.5739C34.8845 22.1443 35.1089 21.6587 35.352 21.117C35.6139 20.5753 35.8757 20.0056 36.1376 19.4078C36.4179 18.8101 36.6797 18.2404 36.9228 17.6987C37.1847 17.157 37.409 16.6807 37.5962 16.2697C37.8018 15.8401 37.9515 15.5225 38.0449 15.3171C37.7271 15.261 37.269 15.289 36.6703 15.4011C36.0907 15.5132 35.4454 15.6626 34.7349 15.8494C34.0243 16.0175 33.295 16.195 32.5469 16.3818C31.7989 16.5686 31.0974 16.7087 30.443 16.8021C29.8071 16.8768 29.2554 16.8861 28.7878 16.8301C28.339 16.7554 28.0585 16.5592 27.9463 16.2417C28.0772 15.9989 28.5541 15.7187 29.3769 15.4011C30.1998 15.0836 31.247 14.7567 32.5188 14.4204C33.809 14.0656 35.2398 13.7107 36.8106 13.3558C38.4002 13.0008 40.0179 12.6646 41.6637 12.3471C43.3095 12.0295 44.9178 11.74 46.4886 11.4785C48.0594 11.217 49.4621 11.0022 50.6964 10.834C51.9307 10.6659 52.9219 10.5539 53.6699 10.4978C54.4367 10.4418 54.8389 10.4605 54.8761 10.5539C54.9323 10.7033 54.9417 10.8901 54.9042 11.1142C54.8667 11.3197 54.7451 11.4505 54.5395 11.5065C53.6231 11.6559 52.6319 11.824 51.566 12.0108C50.5002 12.179 49.4153 12.3658 48.3119 12.5712C47.2273 12.758 46.1615 12.9541 45.114 13.1596C44.0669 13.3464 43.0942 13.5332 42.1968 13.72C41.6168 13.8321 41.0559 14.1683 40.5135 14.7287C39.9713 15.289 39.4476 15.9895 38.9427 16.8301C38.4377 17.652 37.9515 18.5766 37.484 19.6039C37.0166 20.6126 36.5675 21.64 36.1376 22.686C35.726 23.7321 35.3426 24.7407 34.9874 25.712C34.6321 26.6834 34.3046 27.5426 34.0056 28.2898C33.7062 29.0183 33.4444 29.588 33.22 29.9989C32.9956 30.4099 32.8088 30.5779 32.6591 30.5033C32.6216 30.4658 32.5654 30.4099 32.4907 30.335C32.416 30.2604 32.3691 30.2136 32.3504 30.1951Z" fill="url(#paint21_linear_810_4538)"/>
<path d="M64.3023 32.3807C64.2835 32.362 64.2741 32.3058 64.2741 32.2125C64.2741 32.1379 64.2835 32.0817 64.3023 32.0445C64.321 32.0071 64.3585 31.8951 64.4144 31.7081C64.4707 31.5215 64.536 31.3252 64.611 31.1198C64.6857 30.9144 64.7513 30.7181 64.8072 30.5315C64.8635 30.3445 64.9006 30.2231 64.9194 30.1671C65.4618 28.43 65.9387 26.8796 66.3502 25.516C66.7614 24.1338 67.1542 22.7889 67.5282 21.4813C67.9023 20.1738 68.2669 18.8289 68.6222 17.4466C68.9963 16.0457 69.4078 14.4579 69.8565 12.6834V12.067C69.3144 11.8802 68.725 11.8989 68.0895 12.123C67.4723 12.3472 66.8364 12.7114 66.1818 13.2158C65.5272 13.7201 64.8635 14.3272 64.1901 15.037C63.517 15.7281 62.8624 16.4659 62.2265 17.2505C61.5906 18.0163 60.9735 18.7822 60.3751 19.548C59.7767 20.2952 59.2249 20.9863 58.7199 21.6214C58.2149 22.2378 57.7568 22.7515 57.3453 23.1625C56.9528 23.5547 56.6347 23.7789 56.3916 23.8349C56.2232 23.8722 56.0176 23.8536 55.7745 23.7789C55.5314 23.6855 55.4098 23.5921 55.4098 23.4987V21.5934C55.4661 21.3879 55.5408 21.061 55.6342 20.6127C55.7464 20.1644 55.8586 19.6601 55.9707 19.0997C56.1017 18.5393 56.2326 17.9509 56.3635 17.3345C56.5132 16.7181 56.6441 16.1297 56.7563 15.5694C56.8872 15.009 56.9994 14.514 57.0928 14.0844C57.1866 13.636 57.2613 13.2998 57.3175 13.0757C57.4109 12.646 57.495 12.2258 57.57 11.8148C57.6634 11.4039 57.6822 10.9743 57.6259 10.5259C57.065 10.3391 56.4663 10.4886 55.8307 10.9743C55.1949 11.4412 54.5402 12.1324 53.8668 13.0476C53.2125 13.9629 52.5485 15.0276 51.8754 16.2418C51.2021 17.4559 50.5474 18.7075 49.9115 19.9963C49.276 21.2852 48.6588 22.5554 48.0601 23.8069C47.4805 25.0584 46.9474 26.1698 46.4612 27.1411C45.975 28.0938 45.545 28.8596 45.171 29.4387C44.8157 29.999 44.5351 30.2418 44.3292 30.1671C44.0676 30.0924 43.9645 29.7842 44.0208 29.2425C44.0954 28.7008 44.2826 28.019 44.5816 27.1971C44.881 26.3566 45.2644 25.4133 45.7319 24.3672C46.1993 23.3025 46.7043 22.2098 47.2467 21.089C47.8076 19.9683 48.3782 18.8475 48.9579 17.7268C49.5375 16.606 50.0893 15.5694 50.613 14.6167C51.1367 13.6641 51.5948 12.8328 51.9876 12.123C52.3988 11.3945 52.6982 10.8622 52.885 10.5259C53.2778 10.6754 53.6237 10.7314 53.9231 10.6941C54.2224 10.638 54.5027 10.5353 54.7646 10.3859C55.0264 10.2364 55.2789 10.059 55.522 9.85351C55.7839 9.64802 56.0738 9.45189 56.3916 9.2651C57.065 8.85418 57.5978 8.67671 57.9906 8.73274C58.3834 8.78879 58.664 8.99425 58.8321 9.34918C59.0192 9.70407 59.1127 10.1897 59.1127 10.8062C59.1127 11.4039 59.0658 12.0577 58.9724 12.7675C58.8789 13.4773 58.748 14.2058 58.5796 14.9529C58.4302 15.6814 58.2805 16.3632 58.1309 16.9983C57.9812 17.6147 57.8503 18.1471 57.7381 18.5954C57.6447 19.025 57.6072 19.2958 57.6259 19.4079C57.7756 19.4826 57.8971 19.4733 57.9906 19.3799C58.1028 19.2865 58.1962 19.1931 58.2712 19.0997C58.3271 19.0063 58.458 18.8289 58.664 18.5674C58.8883 18.3058 59.1408 18.007 59.4214 17.6708C59.7017 17.3158 60.001 16.9423 60.3188 16.55C60.6369 16.1577 60.936 15.7935 61.2166 15.4573C61.5159 15.1024 61.7684 14.7941 61.974 14.5326C62.1796 14.2711 62.3199 14.0937 62.3949 14.0003C64.0217 12.7114 65.3962 11.7588 66.5183 11.1424C67.6592 10.5073 68.5757 10.1524 69.2675 10.0777C69.9781 10.0029 70.4924 10.171 70.8105 10.582C71.1283 10.9929 71.2967 11.5813 71.3154 12.3472C71.3339 13.0944 71.2217 14.0003 70.9786 15.065C70.7355 16.111 70.4083 17.2411 69.9968 18.4553C69.9409 18.6234 69.8287 18.9783 69.6603 19.52C69.5106 20.043 69.3237 20.6688 69.0991 21.3972C68.8747 22.1071 68.641 22.8636 68.3979 23.6668C68.1735 24.47 67.9491 25.2358 67.7248 25.9643C67.5001 26.6741 67.3039 27.2999 67.1355 27.8416C66.9861 28.3646 66.883 28.7102 66.8271 28.8783C66.8271 28.897 66.8083 29.0184 66.7708 29.2425C66.7336 29.4667 66.668 29.7375 66.5746 30.0551C66.4996 30.3539 66.4062 30.6716 66.294 31.0077C66.1818 31.3626 66.0415 31.68 65.8731 31.9603C65.705 32.2406 65.5084 32.4553 65.2841 32.6048C65.0784 32.7543 64.8447 32.7824 64.5829 32.6887C64.5641 32.6887 64.5172 32.6422 64.4426 32.5486C64.3679 32.474 64.321 32.4181 64.3023 32.3807Z" fill="url(#paint22_linear_810_4538)"/>
</g>
<defs>
<linearGradient id="paint0_linear_810_4538" x1="39.0729" y1="-10.125" x2="39.0735" y2="63.5627" gradientUnits="userSpaceOnUse">
<stop stop-color="#005065"/>
<stop offset="0.0001" stop-color="#03809F"/>
<stop offset="0.956827" stop-color="#002134"/>
</linearGradient>
<linearGradient id="paint1_linear_810_4538" x1="38.4011" y1="33.3421" x2="38.4011" y2="40.3971" gradientUnits="userSpaceOnUse">
<stop stop-color="white"/>
<stop offset="1" stop-color="#E1FBFF"/>
</linearGradient>
<linearGradient id="paint2_linear_810_4538" x1="38.4007" y1="33.3422" x2="38.4007" y2="40.3973" gradientUnits="userSpaceOnUse">
<stop stop-color="white"/>
<stop offset="1" stop-color="#E1FBFF"/>
</linearGradient>
<linearGradient id="paint3_linear_810_4538" x1="38.4015" y1="33.3421" x2="38.4015" y2="40.3971" gradientUnits="userSpaceOnUse">
<stop stop-color="white"/>
<stop offset="1" stop-color="#E1FBFF"/>
</linearGradient>
<linearGradient id="paint4_linear_810_4538" x1="38.4007" y1="33.3424" x2="38.4007" y2="40.3974" gradientUnits="userSpaceOnUse">
<stop stop-color="white"/>
<stop offset="1" stop-color="#E1FBFF"/>
</linearGradient>
<linearGradient id="paint5_linear_810_4538" x1="38.4012" y1="33.3421" x2="38.4012" y2="40.3971" gradientUnits="userSpaceOnUse">
<stop stop-color="white"/>
<stop offset="1" stop-color="#E1FBFF"/>
</linearGradient>
<linearGradient id="paint6_linear_810_4538" x1="38.4009" y1="33.3421" x2="38.4009" y2="40.3971" gradientUnits="userSpaceOnUse">
<stop stop-color="white"/>
<stop offset="1" stop-color="#E1FBFF"/>
</linearGradient>
<linearGradient id="paint7_linear_810_4538" x1="38.4015" y1="33.3421" x2="38.4015" y2="40.3971" gradientUnits="userSpaceOnUse">
<stop stop-color="white"/>
<stop offset="1" stop-color="#E1FBFF"/>
</linearGradient>
<linearGradient id="paint8_linear_810_4538" x1="38.4013" y1="33.3421" x2="38.4013" y2="40.3971" gradientUnits="userSpaceOnUse">
<stop stop-color="white"/>
<stop offset="1" stop-color="#E1FBFF"/>
</linearGradient>
<linearGradient id="paint9_linear_810_4538" x1="38.4014" y1="33.3421" x2="38.4014" y2="40.3971" gradientUnits="userSpaceOnUse">
<stop stop-color="white"/>
<stop offset="1" stop-color="#E1FBFF"/>
</linearGradient>
<linearGradient id="paint10_linear_810_4538" x1="38.4015" y1="33.3421" x2="38.4015" y2="40.3971" gradientUnits="userSpaceOnUse">
<stop stop-color="white"/>
<stop offset="1" stop-color="#E1FBFF"/>
</linearGradient>
<linearGradient id="paint11_linear_810_4538" x1="38.4008" y1="33.3421" x2="38.4008" y2="40.3971" gradientUnits="userSpaceOnUse">
<stop stop-color="white"/>
<stop offset="1" stop-color="#E1FBFF"/>
</linearGradient>
<linearGradient id="paint12_linear_810_4538" x1="38.401" y1="33.3421" x2="38.401" y2="40.3971" gradientUnits="userSpaceOnUse">
<stop stop-color="white"/>
<stop offset="1" stop-color="#E1FBFF"/>
</linearGradient>
<linearGradient id="paint13_linear_810_4538" x1="38.4008" y1="33.3421" x2="38.4008" y2="40.3971" gradientUnits="userSpaceOnUse">
<stop stop-color="white"/>
<stop offset="1" stop-color="#E1FBFF"/>
</linearGradient>
<linearGradient id="paint14_linear_810_4538" x1="38.4007" y1="33.3424" x2="38.4007" y2="40.3974" gradientUnits="userSpaceOnUse">
<stop stop-color="white"/>
<stop offset="1" stop-color="#E1FBFF"/>
</linearGradient>
<linearGradient id="paint15_linear_810_4538" x1="38.4006" y1="33.3422" x2="38.4006" y2="40.3973" gradientUnits="userSpaceOnUse">
<stop stop-color="white"/>
<stop offset="1" stop-color="#E1FBFF"/>
</linearGradient>
<linearGradient id="paint16_linear_810_4538" x1="38.4015" y1="33.3421" x2="38.4015" y2="40.3971" gradientUnits="userSpaceOnUse">
<stop stop-color="white"/>
<stop offset="1" stop-color="#E1FBFF"/>
</linearGradient>
<linearGradient id="paint17_linear_810_4538" x1="38.4008" y1="33.3422" x2="38.4008" y2="40.3973" gradientUnits="userSpaceOnUse">
<stop stop-color="white"/>
<stop offset="1" stop-color="#E1FBFF"/>
</linearGradient>
<linearGradient id="paint18_linear_810_4538" x1="38.4013" y1="33.3422" x2="38.4013" y2="40.3973" gradientUnits="userSpaceOnUse">
<stop stop-color="white"/>
<stop offset="1" stop-color="#E1FBFF"/>
</linearGradient>
<linearGradient id="paint19_linear_810_4538" x1="38.4015" y1="33.3421" x2="38.4015" y2="40.3971" gradientUnits="userSpaceOnUse">
<stop stop-color="white"/>
<stop offset="1" stop-color="#E1FBFF"/>
</linearGradient>
<linearGradient id="paint20_linear_810_4538" x1="38.4007" y1="-9.80032" x2="38.401" y2="46.199" gradientUnits="userSpaceOnUse">
<stop stop-color="white"/>
<stop offset="1" stop-color="#E1FBFF"/>
</linearGradient>
<linearGradient id="paint21_linear_810_4538" x1="38.4008" y1="-9.80043" x2="38.4011" y2="46.1989" gradientUnits="userSpaceOnUse">
<stop stop-color="white"/>
<stop offset="1" stop-color="#E1FBFF"/>
</linearGradient>
<linearGradient id="paint22_linear_810_4538" x1="38.4015" y1="-9.80031" x2="38.4018" y2="46.199" gradientUnits="userSpaceOnUse">
<stop stop-color="white"/>
<stop offset="1" stop-color="#E1FBFF"/>
</linearGradient>
<clipPath id="clip0_810_4538">
<rect width="76" height="45" fill="white"/>
</clipPath>
</defs>
</svg>
