<svg width="213" height="45" viewBox="0 0 213 45" fill="none" xmlns="http://www.w3.org/2000/svg">
<g clip-path="url(#clip0_98_1385)">
<path d="M69.8476 0H6.04741C2.70752 0 0 2.70432 0 6.04027V38.9597C0 42.2957 2.70752 45 6.04741 45H69.8476C73.1875 45 75.895 42.2957 75.895 38.9597V6.04027C75.895 2.70432 73.1875 0 69.8476 0Z" fill="url(#paint0_linear_98_1385)"/>
<path d="M12.4707 38.9595V35.9575H13.7153C13.8451 35.9575 13.9636 35.9856 14.0708 36.0421C14.1809 36.0955 14.2755 36.1674 14.3545 36.2577C14.4335 36.345 14.4956 36.4453 14.5407 36.5579C14.5859 36.6706 14.6085 36.7847 14.6085 36.9004C14.6085 37.0245 14.5873 37.1441 14.545 37.2598C14.5026 37.3725 14.4434 37.4727 14.3672 37.56C14.291 37.6473 14.1993 37.718 14.092 37.7714C13.9876 37.8249 13.8705 37.8517 13.7407 37.8517H12.767V38.9595H12.4707ZM12.767 37.5896H13.728C13.8154 37.5896 13.8945 37.5712 13.965 37.5346C14.0384 37.4951 14.1005 37.4443 14.1513 37.3824C14.2021 37.3175 14.2416 37.2444 14.2698 37.1626C14.298 37.078 14.3121 36.9907 14.3121 36.9004C14.3121 36.8074 14.2952 36.7201 14.2613 36.6383C14.2303 36.5537 14.1866 36.4803 14.1301 36.4184C14.0765 36.3565 14.0116 36.3085 13.9354 36.2746C13.862 36.2381 13.7844 36.2197 13.7026 36.2197H12.767V37.5896Z" fill="url(#paint1_linear_98_1385)"/>
<path d="M16.8613 36.52C16.7767 36.4243 16.6638 36.3467 16.5227 36.2875C16.3816 36.2283 16.2207 36.1987 16.0401 36.1987C15.7748 36.1987 15.5815 36.2494 15.4602 36.3509C15.3388 36.4496 15.2781 36.5849 15.2781 36.7568C15.2781 36.8471 15.2936 36.9217 15.3247 36.9809C15.3586 37.0374 15.4094 37.0866 15.4771 37.1289C15.5448 37.1712 15.6309 37.2077 15.7353 37.2388C15.8425 37.2699 15.9681 37.3007 16.1121 37.3318C16.2729 37.3657 16.4169 37.4037 16.5439 37.446C16.6737 37.4883 16.7837 37.5417 16.874 37.6067C16.9643 37.6686 17.0335 37.7447 17.0815 37.835C17.1294 37.9253 17.1534 38.0379 17.1534 38.1732C17.1534 38.3113 17.1266 38.4312 17.073 38.5326C17.0194 38.6341 16.9446 38.7187 16.8486 38.7863C16.7527 38.854 16.6384 38.9047 16.5058 38.9385C16.3731 38.9696 16.2278 38.985 16.0697 38.985C15.6041 38.985 15.2019 38.8398 14.8633 38.5495L15.0114 38.3085C15.0651 38.365 15.1286 38.4185 15.2019 38.4692C15.2781 38.5199 15.3614 38.5649 15.4517 38.6045C15.5448 38.6411 15.6436 38.6707 15.748 38.6933C15.8524 38.7129 15.9625 38.7229 16.0782 38.7229C16.3181 38.7229 16.5043 38.6806 16.637 38.5961C16.7724 38.5088 16.8402 38.3777 16.8402 38.2028C16.8402 38.1098 16.8204 38.0322 16.7809 37.9703C16.7442 37.9053 16.6878 37.8504 16.6116 37.8054C16.5354 37.7574 16.4408 37.7166 16.328 37.6828C16.2151 37.6489 16.0838 37.6151 15.9343 37.5813C15.7762 37.5447 15.638 37.5067 15.5194 37.4671C15.4009 37.4276 15.3007 37.3783 15.2189 37.3191C15.137 37.2599 15.0749 37.1896 15.0326 37.1077C14.9931 37.0232 14.9733 36.9202 14.9733 36.7991C14.9733 36.6611 14.9987 36.5384 15.0495 36.4312C15.1032 36.3213 15.1779 36.231 15.2739 36.1606C15.3698 36.0872 15.4827 36.0323 15.6126 35.9957C15.7424 35.9562 15.8863 35.9365 16.0443 35.9365C16.2447 35.9365 16.4225 35.9676 16.5777 36.0295C16.7357 36.0887 16.8783 36.1733 17.0053 36.2832L16.8613 36.52Z" fill="url(#paint2_linear_98_1385)"/>
<path d="M17.6306 35.9575L18.6127 37.5727L19.6033 35.9575H19.925L18.7609 37.8433V38.9595H18.4646V37.8348L17.3047 35.9575H17.6306Z" fill="url(#paint3_linear_98_1385)"/>
<path d="M19.9707 37.4377C19.9707 37.2574 20.0018 37.0783 20.0638 36.9007C20.1288 36.7204 20.2219 36.5597 20.3432 36.4187C20.4646 36.2777 20.6141 36.1635 20.7919 36.0762C20.9697 35.9859 21.1715 35.9409 21.3973 35.9409C21.6654 35.9409 21.894 36.0016 22.0831 36.1227C22.275 36.2438 22.4161 36.4018 22.5064 36.5963L22.2736 36.74C22.2256 36.6413 22.1663 36.5582 22.0958 36.4906C22.028 36.4229 21.9547 36.368 21.8756 36.3257C21.7966 36.2834 21.7148 36.2538 21.6301 36.2369C21.5454 36.2173 21.4622 36.2073 21.3804 36.2073C21.1997 36.2073 21.0403 36.2438 20.902 36.3172C20.7637 36.3906 20.6466 36.4864 20.5506 36.6047C20.4575 36.7231 20.387 36.8569 20.339 37.0064C20.291 37.1529 20.267 37.3024 20.267 37.4546C20.267 37.621 20.2953 37.7802 20.3517 37.9324C20.411 38.0846 20.49 38.2199 20.5888 38.3383C20.6903 38.454 20.8089 38.547 20.9443 38.6174C21.0826 38.685 21.2322 38.7188 21.3931 38.7188C21.4777 38.7188 21.5638 38.7089 21.6513 38.6892C21.7416 38.6666 21.8277 38.6328 21.9095 38.5878C21.9942 38.5397 22.0718 38.4821 22.1423 38.4144C22.2129 38.344 22.2722 38.2595 22.3201 38.1607L22.5656 38.2876C22.5177 38.4002 22.45 38.5005 22.3625 38.5878C22.275 38.6723 22.1776 38.7442 22.0704 38.8034C21.9631 38.8626 21.8488 38.9076 21.7275 38.9387C21.6089 38.9698 21.4918 38.9852 21.3761 38.9852C21.1701 38.9852 20.981 38.9402 20.8089 38.8499C20.6367 38.7596 20.4886 38.6427 20.3644 38.499C20.2402 38.3525 20.1429 38.1876 20.0723 38.0043C20.0046 37.8182 19.9707 37.6295 19.9707 37.4377Z" fill="url(#paint4_linear_98_1385)"/>
<path d="M25.4409 35.9575V38.9595H25.1488V37.5558H23.3666V38.9595H23.0703V35.9575H23.3666V37.2936H25.1488V35.9575H25.4409Z" fill="url(#paint5_linear_98_1385)"/>
<path d="M26.1973 38.9595V35.9575H26.4936V38.9595H26.1973Z" fill="url(#paint6_linear_98_1385)"/>
<path d="M28.1772 35.9575H28.4269L29.6757 38.9595H29.3625L28.973 38.0209H27.6226L27.2374 38.9595H26.9199L28.1772 35.9575ZM28.9053 37.7883L28.2999 36.3042L27.6861 37.7883H28.9053Z" fill="url(#paint7_linear_98_1385)"/>
<path d="M31.9423 36.2197H30.8713V38.9595H30.5749V36.2197H29.5039V35.9575H31.9423V36.2197Z" fill="url(#paint8_linear_98_1385)"/>
<path d="M32.3926 38.9595V35.9575H33.6625C33.7923 35.9575 33.9108 35.9856 34.0181 36.0421C34.1282 36.0955 34.2228 36.1674 34.3017 36.2577C34.3807 36.345 34.4414 36.4453 34.4838 36.5579C34.5288 36.6706 34.5515 36.7847 34.5515 36.9004C34.5515 37.0103 34.5346 37.116 34.5007 37.2175C34.4696 37.3163 34.4245 37.4063 34.3652 37.4881C34.3087 37.5669 34.2398 37.6346 34.1578 37.6911C34.0759 37.7445 33.9843 37.7814 33.8827 37.801L34.6192 38.9595H34.2848L33.5779 37.8517H32.6889V38.9595H32.3926ZM32.6889 37.5896H33.671C33.7584 37.5896 33.8376 37.5712 33.9081 37.5346C33.9815 37.4951 34.0435 37.4431 34.0943 37.3782C34.1451 37.3133 34.1847 37.2402 34.2129 37.1583C34.241 37.0765 34.2552 36.9907 34.2552 36.9004C34.2552 36.8101 34.2382 36.7243 34.2044 36.6425C34.1732 36.5579 34.1297 36.4845 34.0732 36.4226C34.0196 36.3607 33.9546 36.3112 33.8784 36.2746C33.805 36.2381 33.7275 36.2197 33.6456 36.2197H32.6889V37.5896Z" fill="url(#paint9_linear_98_1385)"/>
<path d="M35.076 35.9575L36.0581 37.5727L37.0486 35.9575H37.3703L36.2062 37.8433V38.9595H35.9099V37.8348L34.75 35.9575H35.076Z" fill="url(#paint10_linear_98_1385)"/>
<path d="M39.0483 36.5072V38.9595H38.752V35.9575H38.9805L40.9701 38.4564V35.9617H41.2665V38.9595H41.0082L39.0483 36.5072Z" fill="url(#paint11_linear_98_1385)"/>
<path d="M42.9526 35.9575H43.2023L44.4511 38.9595H44.1379L43.7484 38.0209H42.398L42.0128 38.9595H41.6953L42.9526 35.9575ZM43.6807 37.7883L43.0753 36.3042L42.4615 37.7883H43.6807Z" fill="url(#paint12_linear_98_1385)"/>
<path d="M44.8828 38.9595V35.9575H46.1528C46.2825 35.9575 46.401 35.9856 46.5084 36.0421C46.6184 36.0955 46.7128 36.1674 46.792 36.2577C46.8709 36.345 46.9317 36.4453 46.974 36.5579C47.0191 36.6706 47.0417 36.7847 47.0417 36.9004C47.0417 37.0103 47.0248 37.116 46.9909 37.2175C46.9598 37.3163 46.9147 37.4063 46.8555 37.4881C46.7989 37.5669 46.7297 37.6346 46.6481 37.6911C46.5661 37.7445 46.4745 37.7814 46.3729 37.801L47.1095 38.9595H46.775L46.0681 37.8517H45.1791V38.9595H44.8828ZM45.1791 37.5896H46.1612C46.2486 37.5896 46.3275 37.5712 46.3983 37.5346C46.4715 37.4951 46.5338 37.4431 46.5846 37.3782C46.6353 37.3133 46.6747 37.2402 46.7031 37.1583C46.7312 37.0765 46.7454 36.9907 46.7454 36.9004C46.7454 36.8101 46.7285 36.7243 46.6946 36.6425C46.6635 36.5579 46.6196 36.4845 46.5634 36.4226C46.5096 36.3607 46.4449 36.3112 46.3687 36.2746C46.2952 36.2381 46.2175 36.2197 46.1358 36.2197H45.1791V37.5896Z" fill="url(#paint13_linear_98_1385)"/>
<path d="M47.4492 37.4377C47.4492 37.2574 47.4804 37.0783 47.5423 36.9007C47.6074 36.7204 47.7005 36.5597 47.8217 36.4187C47.943 36.2777 48.0927 36.1635 48.2705 36.0762C48.4483 35.9859 48.6499 35.9409 48.8758 35.9409C49.144 35.9409 49.3726 36.0016 49.5616 36.1227C49.7536 36.2438 49.8945 36.4018 49.9849 36.5963L49.7521 36.74C49.704 36.6413 49.6447 36.5582 49.5743 36.4906C49.5065 36.4229 49.4331 36.368 49.3542 36.3257C49.2752 36.2834 49.1933 36.2538 49.1086 36.2369C49.024 36.2173 48.9408 36.2073 48.8589 36.2073C48.6784 36.2073 48.5187 36.2438 48.3805 36.3172C48.2423 36.3906 48.125 36.4864 48.0292 36.6047C47.936 36.7231 47.8656 36.8569 47.8175 37.0064C47.7694 37.1529 47.7455 37.3024 47.7455 37.4546C47.7455 37.621 47.7737 37.7802 47.8302 37.9324C47.8895 38.0846 47.9684 38.2199 48.0673 38.3383C48.1689 38.454 48.2874 38.547 48.4229 38.6174C48.561 38.685 48.7107 38.7188 48.8716 38.7188C48.9562 38.7188 49.0424 38.7089 49.1298 38.6892C49.2202 38.6666 49.3061 38.6328 49.388 38.5878C49.4727 38.5397 49.5504 38.4821 49.6208 38.4144C49.6913 38.344 49.7506 38.2595 49.7986 38.1607L50.0442 38.2876C49.9961 38.4002 49.9284 38.5005 49.841 38.5878C49.7536 38.6723 49.6562 38.7442 49.5489 38.8034C49.4415 38.8626 49.3272 38.9076 49.206 38.9387C49.0875 38.9698 48.9704 38.9852 48.8546 38.9852C48.6487 38.9852 48.4594 38.9402 48.2874 38.8499C48.1153 38.7596 47.9672 38.6427 47.8429 38.499C47.7186 38.3525 47.6213 38.1876 47.5508 38.0043C47.4831 37.8182 47.4492 37.6295 47.4492 37.4377Z" fill="url(#paint14_linear_98_1385)"/>
<path d="M51.7319 38.9808C51.523 38.9808 51.3313 38.9385 51.1562 38.854C50.9842 38.7667 50.836 38.6525 50.7117 38.5115C50.5874 38.3677 50.4916 38.2043 50.4239 38.021C50.3561 37.8377 50.3223 37.6504 50.3223 37.4587C50.3223 37.2584 50.3576 37.067 50.4281 36.8836C50.5016 36.7003 50.6017 36.5384 50.7287 36.3974C50.8557 36.2564 51.0053 36.1452 51.1774 36.0634C51.3494 35.9788 51.5357 35.9365 51.7362 35.9365C51.9451 35.9365 52.1356 35.9815 52.3076 36.0718C52.4827 36.1591 52.6309 36.2748 52.7521 36.4185C52.8764 36.5623 52.9722 36.7257 53.04 36.909C53.1077 37.0893 53.1416 37.2741 53.1416 37.4629C53.1416 37.6631 53.105 37.8546 53.0315 38.0379C52.9611 38.2213 52.8622 38.3831 52.7352 38.5242C52.6109 38.6622 52.4627 38.7736 52.2907 38.8582C52.1187 38.94 51.9324 38.9808 51.7319 38.9808ZM50.6186 37.4587C50.6186 37.6221 50.6455 37.78 50.699 37.9322C50.7525 38.0817 50.8287 38.2155 50.9276 38.3339C51.0265 38.4496 51.1435 38.5426 51.279 38.613C51.4144 38.6806 51.5653 38.7144 51.7319 38.7144C51.9012 38.7144 52.0552 38.6779 52.1933 38.6045C52.3315 38.5311 52.4488 38.4354 52.5447 38.317C52.6405 38.1986 52.714 38.0648 52.7648 37.9153C52.8183 37.7658 52.8452 37.6136 52.8452 37.4587C52.8452 37.2953 52.8171 37.1388 52.7606 36.9893C52.7071 36.8371 52.6309 36.7033 52.532 36.5877C52.4331 36.472 52.3161 36.3805 52.1806 36.3128C52.0452 36.2425 51.8955 36.2071 51.7319 36.2071C51.5626 36.2071 51.4087 36.2437 51.2705 36.3171C51.1323 36.3874 51.015 36.482 50.9191 36.6004C50.8233 36.7187 50.7483 36.8525 50.6948 37.002C50.644 37.1515 50.6186 37.3037 50.6186 37.4587Z" fill="url(#paint15_linear_98_1385)"/>
<path d="M53.6992 38.9595V35.9575H53.9955V38.6974H55.7311V38.9595H53.6992Z" fill="url(#paint16_linear_98_1385)"/>
<path d="M57.1889 38.9808C56.98 38.9808 56.7883 38.9385 56.6132 38.854C56.4412 38.7667 56.293 38.6525 56.1688 38.5115C56.0445 38.3677 55.9486 38.2043 55.8809 38.021C55.8132 37.8377 55.7793 37.6504 55.7793 37.4587C55.7793 37.2584 55.8147 37.067 55.8851 36.8836C55.9586 36.7003 56.0587 36.5384 56.1857 36.3974C56.3127 36.2564 56.4624 36.1452 56.6344 36.0634C56.8065 35.9788 56.9927 35.9365 57.1932 35.9365C57.4021 35.9365 57.5926 35.9815 57.7647 36.0718C57.9397 36.1591 58.0879 36.2748 58.2092 36.4185C58.3334 36.5623 58.4293 36.7257 58.497 36.909C58.5647 37.0893 58.5986 37.2741 58.5986 37.4629C58.5986 37.6631 58.562 37.8546 58.4885 38.0379C58.4181 38.2213 58.3192 38.3831 58.1922 38.5242C58.0679 38.6622 57.9198 38.7736 57.7477 38.8582C57.5757 38.94 57.3894 38.9808 57.1889 38.9808ZM56.0756 37.4587C56.0756 37.6221 56.1025 37.78 56.1561 37.9322C56.2096 38.0817 56.2858 38.2155 56.3846 38.3339C56.4835 38.4496 56.6005 38.5426 56.736 38.613C56.8715 38.6806 57.0223 38.7144 57.1889 38.7144C57.3583 38.7144 57.5122 38.6779 57.6504 38.6045C57.7886 38.5311 57.9059 38.4354 58.0017 38.317C58.0976 38.1986 58.171 38.0648 58.2218 37.9153C58.2754 37.7658 58.3023 37.6136 58.3023 37.4587C58.3023 37.2953 58.2742 37.1388 58.2176 36.9893C58.1641 36.8371 58.0879 36.7033 57.989 36.5877C57.8902 36.472 57.7731 36.3805 57.6377 36.3128C57.5022 36.2425 57.3525 36.2071 57.1889 36.2071C57.0196 36.2071 56.8657 36.2437 56.7275 36.3171C56.5893 36.3874 56.472 36.482 56.3762 36.6004C56.2803 36.7187 56.2053 36.8525 56.1518 37.002C56.101 37.1515 56.0756 37.3037 56.0756 37.4587Z" fill="url(#paint17_linear_98_1385)"/>
<path d="M61.3276 38.5199C61.0482 38.8271 60.7265 38.9808 60.3624 38.9808C60.1593 38.9808 59.9715 38.937 59.7994 38.8497C59.6301 38.7625 59.4819 38.6468 59.3549 38.503C59.2307 38.3593 59.1333 38.1971 59.0629 38.0168C58.9921 37.8335 58.957 37.6462 58.957 37.4544C58.957 37.2542 58.9909 37.0627 59.0586 36.8794C59.1291 36.6961 59.2264 36.5354 59.3507 36.3974C59.4747 36.2564 59.6216 36.1452 59.791 36.0634C59.9603 35.9788 60.145 35.9365 60.3455 35.9365C60.4922 35.9365 60.6261 35.9534 60.7477 35.9873C60.8689 36.0184 60.9763 36.0634 61.0694 36.1226C61.1652 36.179 61.2472 36.2479 61.3149 36.3297C61.3854 36.4086 61.4446 36.4962 61.4927 36.5919L61.2641 36.7441C61.1652 36.5581 61.0367 36.4213 60.8789 36.334C60.7208 36.2467 60.5415 36.2029 60.3413 36.2029C60.1747 36.2029 60.0238 36.2382 59.8883 36.3086C59.7556 36.379 59.6413 36.4735 59.5454 36.5919C59.4523 36.7076 59.3803 36.8414 59.3296 36.9936C59.2788 37.1431 59.2534 37.298 59.2534 37.4587C59.2534 37.6278 59.2815 37.7885 59.338 37.9407C59.3973 38.0929 59.4777 38.2267 59.5793 38.3424C59.6809 38.455 59.7994 38.5453 59.9349 38.613C60.0731 38.6806 60.2228 38.7144 60.3836 38.7144C60.5557 38.7144 60.7192 38.6749 60.8747 38.5961C61.0325 38.5142 61.1837 38.3862 61.3276 38.2113V37.7124H60.6588V37.484H61.5774V38.9597H61.3276V38.5199Z" fill="url(#paint18_linear_98_1385)"/>
<path d="M62.076 35.9575L63.0581 37.5727L64.0486 35.9575H64.3703L63.2062 37.8433V38.9595H62.9099V37.8348L61.75 35.9575H62.076Z" fill="url(#paint19_linear_98_1385)"/>
<path d="M25.1139 33.0811C24.5154 32.1285 23.917 31.2599 23.3186 30.4753C22.7388 29.6908 22.131 28.9343 21.4952 28.2058C20.8593 27.4587 20.1861 26.7115 19.4754 25.9643C18.7835 25.2171 18.0261 24.4233 17.2032 23.5827C16.025 22.3499 15.0432 21.4346 14.2578 20.8369C13.491 20.2391 12.8458 19.8936 12.3222 19.8002C11.8173 19.7068 11.3965 19.8562 11.0599 20.2485C10.7232 20.6221 10.396 21.1825 10.078 21.9296C9.76011 22.6581 9.42348 23.5454 9.06817 24.5914C8.71285 25.6374 8.25467 26.7769 7.69362 28.0097C7.5066 28.402 7.29153 28.8596 7.04842 29.3826C6.824 29.887 6.50609 30.2793 6.09465 30.5595C5.77674 30.7649 5.63647 30.6716 5.67387 30.2793C5.71128 29.8683 5.86089 29.2892 6.12271 28.5421C6.38454 27.7949 6.71179 26.9543 7.10451 26.0203C7.51595 25.0677 7.91804 24.1525 8.31076 23.2745C8.70348 22.3966 9.04945 21.6401 9.34868 21.005C9.6479 20.3512 9.83492 19.9496 9.90972 19.8002C10.3586 18.7355 10.8167 17.7641 11.2843 16.8862C11.7518 15.9896 12.21 15.1117 12.6588 14.2525C13.1263 13.3932 13.5752 12.5153 14.0053 11.6187C14.4541 10.7221 14.8656 9.7321 15.2396 8.64869C15.4079 8.53661 15.5575 8.50861 15.6884 8.56464C15.8193 8.60199 15.9315 8.67671 16.025 8.78879C16.1185 8.90087 16.1747 9.04094 16.1933 9.20907C16.2308 9.35851 16.2308 9.48925 16.1933 9.60133C16.0811 9.82548 15.9035 10.1804 15.6604 10.666C15.436 11.133 15.1928 11.628 14.931 12.151C14.6879 12.6554 14.4541 13.1504 14.2297 13.636C14.0053 14.103 13.837 14.4579 13.7248 14.7008C13.6874 14.7941 13.6126 14.9903 13.5004 15.2891C13.3882 15.5694 13.3508 15.8028 13.3882 15.9896C13.9305 16.1017 14.6038 16.055 15.4079 15.8495C16.2308 15.6441 17.1097 15.3452 18.0448 14.9529C18.9986 14.5607 19.9804 14.1123 20.9902 13.608C22.0188 13.085 22.9913 12.5713 23.9076 12.067C24.8427 11.5627 25.6843 11.0957 26.4323 10.666C27.1991 10.2177 27.8162 9.88154 28.2838 9.65738C28.7326 9.43323 28.9664 9.39587 28.985 9.5453C29.0038 9.69474 28.9009 9.91886 28.6765 10.2177C28.4708 10.5166 28.1996 10.8341 27.863 11.1704C27.5451 11.4879 27.2645 11.7121 27.0214 11.8428C26.8344 11.9549 26.5539 12.1137 26.1799 12.3191C25.8058 12.5059 25.4131 12.7021 25.0017 12.9076C24.5902 13.0944 24.2162 13.2718 23.8796 13.4399C23.543 13.608 23.3186 13.7108 23.2063 13.7481C22.7014 13.9723 22.0656 14.2244 21.2988 14.5046C20.5321 14.7848 19.7279 15.0837 18.8863 15.4012C18.0635 15.7188 17.2406 16.0644 16.4178 16.4379C15.6136 16.7928 14.9217 17.1664 14.3419 17.5587C14.1923 17.6708 14.0614 17.7828 13.9492 17.8949C13.8557 17.9883 13.7715 18.091 13.6967 18.2031C13.6406 18.3152 13.65 18.4179 13.7248 18.5113C14.0053 18.6794 14.4354 19.0157 15.0152 19.52C15.5949 20.0243 16.2495 20.6221 16.9788 21.3132C17.7082 22.0043 18.4749 22.7702 19.2791 23.6107C20.1019 24.4513 20.8967 25.3012 21.6635 26.1605C22.4303 27.0197 23.1315 27.8603 23.7674 28.6821C24.4032 29.504 24.9081 30.2418 25.2822 30.8957C25.6749 31.568 25.8993 32.1285 25.9554 32.5767C26.0115 33.0252 25.8339 33.2958 25.4225 33.3894C25.385 33.3707 25.329 33.3239 25.2542 33.2493C25.198 33.1744 25.1513 33.1185 25.1139 33.0811Z" fill="url(#paint20_linear_98_1385)"/>
<path d="M32.3514 30.1951C32.2392 29.7281 32.2392 29.1957 32.3514 28.598C32.4823 27.9816 32.6601 27.3652 32.8844 26.7488C33.1088 26.1323 33.3519 25.5439 33.6138 24.9836C33.8756 24.4045 34.0906 23.9282 34.259 23.5546C34.3524 23.3305 34.4927 23.0035 34.6796 22.5739C34.8855 22.1443 35.1099 21.6587 35.353 21.117C35.6148 20.5753 35.8767 20.0056 36.1385 19.4078C36.4188 18.8101 36.6807 18.2404 36.9238 17.6987C37.1857 17.157 37.41 16.6807 37.5972 16.2697C37.8028 15.8401 37.9525 15.5225 38.0459 15.3171C37.7281 15.261 37.27 15.289 36.6713 15.4011C36.0917 15.5132 35.4464 15.6626 34.7358 15.8494C34.0253 16.0175 33.296 16.195 32.5479 16.3818C31.7998 16.5686 31.0983 16.7087 30.444 16.8021C29.8081 16.8768 29.2563 16.8861 28.7888 16.8301C28.34 16.7554 28.0595 16.5592 27.9473 16.2417C28.0782 15.9989 28.5551 15.7187 29.3779 15.4011C30.2008 15.0836 31.248 14.7567 32.5198 14.4204C33.81 14.0656 35.2408 13.7107 36.8116 13.3558C38.4012 13.0008 40.0189 12.6646 41.6647 12.3471C43.3105 12.0295 44.9188 11.74 46.4896 11.4785C48.0604 11.217 49.4631 11.0022 50.6974 10.834C51.9317 10.6659 52.9228 10.5539 53.6709 10.4978C54.4377 10.4418 54.8399 10.4605 54.8771 10.5539C54.9333 10.7033 54.9427 10.8901 54.9052 11.1142C54.8677 11.3197 54.7461 11.4505 54.5405 11.5065C53.624 11.6559 52.6329 11.824 51.567 12.0108C50.5011 12.179 49.4162 12.3658 48.3129 12.5712C47.2283 12.758 46.1624 12.9541 45.115 13.1596C44.0679 13.3464 43.0952 13.5332 42.1978 13.72C41.6178 13.8321 41.0569 14.1683 40.5145 14.7287C39.9723 15.289 39.4486 15.9895 38.9436 16.8301C38.4387 17.652 37.9525 18.5766 37.485 19.6039C37.0175 20.6126 36.5685 21.64 36.1385 22.686C35.727 23.7321 35.3436 24.7407 34.9883 25.712C34.633 26.6834 34.3056 27.5426 34.0065 28.2898C33.7072 29.0183 33.4453 29.588 33.221 29.9989C32.9966 30.4099 32.8097 30.5779 32.6601 30.5033C32.6226 30.4658 32.5663 30.4099 32.4917 30.335C32.417 30.2604 32.3701 30.2136 32.3514 30.1951Z" fill="url(#paint21_linear_98_1385)"/>
<path d="M64.3023 32.3807C64.2835 32.362 64.2741 32.3058 64.2741 32.2125C64.2741 32.1379 64.2835 32.0817 64.3023 32.0445C64.321 32.0071 64.3585 31.8951 64.4144 31.7081C64.4707 31.5215 64.536 31.3252 64.611 31.1198C64.6857 30.9144 64.7513 30.7181 64.8072 30.5315C64.8635 30.3445 64.9006 30.2231 64.9194 30.1671C65.4618 28.43 65.9387 26.8796 66.3502 25.516C66.7614 24.1338 67.1542 22.7889 67.5282 21.4813C67.9023 20.1738 68.2669 18.8289 68.6222 17.4466C68.9963 16.0457 69.4078 14.4579 69.8565 12.6834V12.067C69.3144 11.8802 68.725 11.8989 68.0895 12.123C67.4723 12.3472 66.8364 12.7114 66.1818 13.2158C65.5272 13.7201 64.8635 14.3272 64.1901 15.037C63.517 15.7281 62.8624 16.4659 62.2265 17.2505C61.5906 18.0163 60.9735 18.7822 60.3751 19.548C59.7767 20.2952 59.2249 20.9863 58.7199 21.6214C58.2149 22.2378 57.7568 22.7515 57.3453 23.1625C56.9528 23.5547 56.6347 23.7789 56.3916 23.8349C56.2232 23.8722 56.0176 23.8536 55.7745 23.7789C55.5314 23.6855 55.4098 23.5921 55.4098 23.4987V21.5934C55.4661 21.3879 55.5408 21.061 55.6342 20.6127C55.7464 20.1644 55.8586 19.6601 55.9707 19.0997C56.1017 18.5393 56.2326 17.9509 56.3635 17.3345C56.5132 16.7181 56.6441 16.1297 56.7563 15.5694C56.8872 15.009 56.9994 14.514 57.0928 14.0844C57.1866 13.636 57.2613 13.2998 57.3175 13.0757C57.4109 12.646 57.495 12.2258 57.57 11.8148C57.6634 11.4039 57.6822 10.9743 57.6259 10.5259C57.065 10.3391 56.4663 10.4886 55.8307 10.9743C55.1949 11.4412 54.5402 12.1324 53.8668 13.0476C53.2125 13.9629 52.5485 15.0276 51.8754 16.2418C51.2021 17.4559 50.5474 18.7075 49.9115 19.9963C49.276 21.2852 48.6588 22.5554 48.0601 23.8069C47.4805 25.0584 46.9474 26.1698 46.4612 27.1411C45.975 28.0938 45.545 28.8596 45.171 29.4387C44.8157 29.999 44.5351 30.2418 44.3292 30.1671C44.0676 30.0924 43.9645 29.7842 44.0208 29.2425C44.0954 28.7008 44.2826 28.019 44.5816 27.1971C44.881 26.3566 45.2644 25.4133 45.7319 24.3672C46.1993 23.3025 46.7043 22.2098 47.2467 21.089C47.8076 19.9683 48.3782 18.8475 48.9579 17.7268C49.5375 16.606 50.0893 15.5694 50.613 14.6167C51.1367 13.6641 51.5948 12.8328 51.9876 12.123C52.3988 11.3945 52.6982 10.8622 52.885 10.5259C53.2778 10.6754 53.6237 10.7314 53.9231 10.6941C54.2224 10.638 54.5027 10.5353 54.7646 10.3859C55.0264 10.2364 55.2789 10.059 55.522 9.85351C55.7839 9.64802 56.0738 9.45189 56.3916 9.2651C57.065 8.85418 57.5978 8.67671 57.9906 8.73274C58.3834 8.78879 58.664 8.99425 58.8321 9.34918C59.0192 9.70407 59.1127 10.1897 59.1127 10.8062C59.1127 11.4039 59.0658 12.0577 58.9724 12.7675C58.8789 13.4773 58.748 14.2058 58.5796 14.9529C58.4302 15.6814 58.2805 16.3632 58.1309 16.9983C57.9812 17.6147 57.8503 18.1471 57.7381 18.5954C57.6447 19.025 57.6072 19.2958 57.6259 19.4079C57.7756 19.4826 57.8971 19.4733 57.9906 19.3799C58.1028 19.2865 58.1962 19.1931 58.2712 19.0997C58.3271 19.0063 58.458 18.8289 58.664 18.5674C58.8883 18.3058 59.1408 18.007 59.4214 17.6708C59.7017 17.3158 60.001 16.9423 60.3188 16.55C60.6369 16.1577 60.936 15.7935 61.2166 15.4573C61.5159 15.1024 61.7684 14.7941 61.974 14.5326C62.1796 14.2711 62.3199 14.0937 62.3949 14.0003C64.0217 12.7114 65.3962 11.7588 66.5183 11.1424C67.6592 10.5073 68.5757 10.1524 69.2675 10.0777C69.9781 10.0029 70.4924 10.171 70.8105 10.582C71.1283 10.9929 71.2967 11.5813 71.3154 12.3472C71.3339 13.0944 71.2217 14.0003 70.9786 15.065C70.7355 16.111 70.4083 17.2411 69.9968 18.4553C69.9409 18.6234 69.8287 18.9783 69.6603 19.52C69.5106 20.043 69.3237 20.6688 69.0991 21.3972C68.8747 22.1071 68.641 22.8636 68.3979 23.6668C68.1735 24.47 67.9491 25.2358 67.7248 25.9643C67.5001 26.6741 67.3039 27.2999 67.1355 27.8416C66.9861 28.3646 66.883 28.7102 66.8271 28.8783C66.8271 28.897 66.8083 29.0184 66.7708 29.2425C66.7336 29.4667 66.668 29.7375 66.5746 30.0551C66.4996 30.3539 66.4062 30.6716 66.294 31.0077C66.1818 31.3626 66.0415 31.68 65.8731 31.9603C65.705 32.2406 65.5084 32.4553 65.2841 32.6048C65.0784 32.7543 64.8447 32.7824 64.5829 32.6887C64.5641 32.6887 64.5172 32.6422 64.4426 32.5486C64.3679 32.474 64.321 32.4181 64.3023 32.3807Z" fill="url(#paint22_linear_98_1385)"/>
<path d="M83.2695 25.6713V6.82568H87.2753V15.5527L88.988 14.306L94.5322 6.82568H97.3189L91.6004 14.19L98.6541 25.6713H93.5743L88.5235 17.2053L87.2753 18.0751V25.6713H83.2695Z" fill="#036F8C"/>
<path d="M101.47 25.9613C101.005 25.9613 100.628 25.9226 100.338 25.8453C100.047 25.7873 99.9023 25.7486 99.9023 25.7293L100.047 23.1779C100.106 23.1972 100.222 23.2262 100.396 23.2649C100.57 23.3035 100.744 23.3229 100.918 23.3229C102.273 23.3229 103.27 22.0375 103.908 19.4668C104.566 16.8767 104.895 12.663 104.895 6.82568H115.2V25.6713H111.194V8.9132H107.188C107.169 14.6152 106.666 18.8869 105.679 21.7282C104.692 24.5502 103.289 25.9613 101.47 25.9613Z" fill="#036F8C"/>
<path d="M119.668 25.6713V6.82568H123.674V19.3218L123.471 21.2064H123.529L130.844 7.46354L131.105 6.82568H134.82V25.6713H130.815V13.4941L130.989 11.4066H130.96L123.674 25.0335L123.442 25.6713H119.668Z" fill="#036F8C"/>
<path d="M139.283 25.6713V6.82568H143.289V15.0598H149.82V6.82568H153.826V25.6713H149.82V17.0893H143.289V25.6713H139.283Z" fill="#036F8C"/>
<path d="M158.305 25.6713V6.82568H162.311V19.3218L162.107 21.2064H162.165L169.48 7.46354L169.742 6.82568H173.457V25.6713H169.451V13.4941L169.625 11.4066H169.596L162.311 25.0335L162.078 25.6713H158.305Z" fill="#036F8C"/>
<path d="M177.92 25.6713V6.82568H181.926V15.5527L183.638 14.306L189.183 6.82568H191.969L186.251 14.19L193.305 25.6713H188.225L183.174 17.2053L181.926 18.0751V25.6713H177.92Z" fill="#036F8C"/>
<path d="M194.408 25.6713L200.678 6.82568H205.119L210.983 25.6713H206.745L205.119 20.3945H198.559L196.847 25.6713H194.408ZM199.14 18.568H204.568L201.984 9.69602H201.926L199.14 18.568Z" fill="#036F8C"/>
<path d="M90.6186 33.5576H87.3168V41.9802H86.6691V33.5576H83.3672V32.9741H90.6186V33.5576Z" fill="#036F8C"/>
<path d="M92.6809 41.0161L98.5989 32.9741H99.145V41.9802H98.4973V34.065L92.6555 41.9802H92.0332V32.9741H92.6809V41.0161Z" fill="#036F8C"/>
<path d="M109.699 41.9802V34.1918L106.143 40.2677H105.737L102.181 34.1918V41.9802H101.533V32.9741H102.181L105.94 39.4179L109.699 32.9741H110.347V41.9802H109.699Z" fill="#036F8C"/>
<path d="M113.61 42.0816C113.441 42.0816 113.276 42.0647 113.115 42.0309C112.954 41.9971 112.806 41.9379 112.67 41.8533V41.2571C112.797 41.3417 112.937 41.4051 113.089 41.4474C113.25 41.4812 113.411 41.4981 113.572 41.4981C113.733 41.4981 113.877 41.4728 114.004 41.422C114.139 41.3713 114.27 41.2825 114.397 41.1557C114.524 41.0288 114.651 40.8639 114.778 40.661C114.905 40.4496 115.045 40.1832 115.197 39.8618L111.807 32.9741H112.505L115.515 39.1388L118.461 32.9741H119.16L115.807 39.8999C115.604 40.3227 115.413 40.6737 115.236 40.9527C115.066 41.2318 114.897 41.4559 114.728 41.625C114.558 41.7857 114.38 41.9041 114.194 41.9802C114.016 42.0478 113.822 42.0816 113.61 42.0816Z" fill="#036F8C"/>
<path d="M120.596 41.9802V32.9741H124.304C124.685 32.9741 125.036 33.0545 125.358 33.2151C125.68 33.3758 125.955 33.5914 126.184 33.862C126.421 34.1242 126.603 34.4244 126.73 34.7626C126.865 35.0924 126.933 35.4265 126.933 35.7647C126.933 36.1283 126.869 36.4793 126.742 36.8175C126.624 37.1558 126.45 37.456 126.222 37.7181C126.001 37.9803 125.735 38.1917 125.422 38.3524C125.108 38.5046 124.761 38.5807 124.38 38.5807H121.243V41.9802H120.596ZM121.243 37.9845H124.355C124.651 37.9845 124.918 37.9253 125.155 37.8069C125.392 37.6801 125.591 37.5152 125.752 37.3122C125.921 37.1008 126.048 36.8641 126.133 36.6019C126.226 36.3313 126.272 36.0522 126.272 35.7647C126.272 35.4688 126.217 35.1897 126.107 34.9275C126.006 34.6569 125.862 34.4202 125.676 34.2172C125.498 34.0143 125.286 33.8536 125.041 33.7352C124.803 33.6168 124.549 33.5576 124.279 33.5576H121.243V37.9845Z" fill="#036F8C"/>
<path d="M130.743 32.9741H131.302L135.112 41.9802H134.426L133.169 39.012H128.864L127.607 41.9802H126.908L130.743 32.9741ZM132.991 38.4792L131.023 33.7606L129.016 38.4792H132.991Z" fill="#036F8C"/>
<path d="M147.922 41.9802V34.1918L144.366 40.2677H143.959L140.404 34.1918V41.9802H139.756V32.9741H140.404L144.163 39.4179L147.922 32.9741H148.569V41.9802H147.922Z" fill="#036F8C"/>
<path d="M153.763 32.9741H154.322L158.132 41.9802H157.446L156.189 39.012H151.883L150.626 41.9802H149.928L153.763 32.9741ZM156.011 38.4792L154.042 33.7606L152.036 38.4792H156.011Z" fill="#036F8C"/>
<path d="M167.679 41.9802V34.1918L164.124 40.2677H163.717L160.161 34.1918V41.9802H159.514V32.9741H160.161L163.92 39.4179L167.679 32.9741H168.327V41.9802H167.679Z" fill="#036F8C"/>
<path d="M176.706 41.3967V41.9802H170.699V32.9741H176.592V33.5576H171.347V37.0966H175.931V37.6547H171.347V41.3967H176.706Z" fill="#036F8C"/>
<path d="M177.498 41.3967H177.765C177.926 41.3713 178.074 41.3248 178.209 41.2571C178.353 41.181 178.484 41.0626 178.603 40.902C178.73 40.7413 178.844 40.5214 178.946 40.2424C179.056 39.9549 179.157 39.587 179.251 39.1388C179.352 38.6822 179.445 38.1283 179.53 37.4771C179.615 36.826 179.695 36.0522 179.771 35.1559L179.962 32.9741H184.648V41.3967H185.829V44.3268H185.245V41.9802H178.082V44.3268H177.498V41.3967ZM184 41.3967V33.5576H180.559L180.419 35.2447C180.343 36.1749 180.258 36.9951 180.165 37.7055C180.072 38.4073 179.962 39.0077 179.835 39.5067C179.716 40.0056 179.577 40.4115 179.416 40.7244C179.255 41.0288 179.069 41.2529 178.857 41.3967H184Z" fill="#036F8C"/>
<path d="M190.837 42.0435C190.211 42.0435 189.639 41.9125 189.123 41.6503C188.606 41.3882 188.162 41.0457 187.789 40.6229C187.417 40.2 187.129 39.7138 186.926 39.1641C186.723 38.6145 186.621 38.0521 186.621 37.4771C186.621 36.8767 186.727 36.3017 186.939 35.752C187.159 35.2023 187.455 34.7161 187.828 34.2933C188.209 33.8704 188.657 33.5364 189.174 33.2912C189.69 33.0375 190.249 32.9106 190.85 32.9106C191.477 32.9106 192.048 33.0459 192.564 33.3166C193.089 33.5787 193.534 33.9254 193.898 34.3567C194.27 34.788 194.558 35.2784 194.762 35.8281C194.965 36.3693 195.066 36.919 195.066 37.4771C195.066 38.0859 194.956 38.6652 194.736 39.2149C194.524 39.7645 194.228 40.2508 193.847 40.6736C193.475 41.088 193.03 41.422 192.514 41.6757C191.997 41.9209 191.438 42.0435 190.837 42.0435ZM187.269 37.4771C187.269 37.9929 187.353 38.4919 187.523 38.9739C187.701 39.4474 187.946 39.8702 188.259 40.2423C188.581 40.6059 188.962 40.8977 189.402 41.1176C189.843 41.3374 190.325 41.4474 190.85 41.4474C191.392 41.4474 191.879 41.3332 192.311 41.1049C192.751 40.8766 193.123 40.5763 193.428 40.2043C193.741 39.8237 193.983 39.3967 194.152 38.9231C194.321 38.4496 194.406 37.9676 194.406 37.4771C194.406 36.9612 194.317 36.4666 194.139 35.993C193.961 35.511 193.712 35.0882 193.39 34.7245C193.077 34.3525 192.704 34.0565 192.272 33.8366C191.841 33.6168 191.367 33.5068 190.85 33.5068C190.308 33.5068 189.817 33.621 189.377 33.8493C188.937 34.0776 188.56 34.3821 188.247 34.7626C187.933 35.1347 187.692 35.5575 187.523 36.031C187.353 36.5046 187.269 36.9866 187.269 37.4771Z" fill="#036F8C"/>
<path d="M203.345 39.6462C203.345 39.976 203.281 40.2847 203.155 40.5722C203.028 40.8512 202.854 41.0965 202.634 41.3079C202.414 41.5193 202.155 41.6842 201.859 41.8026C201.563 41.921 201.25 41.9802 200.919 41.9802H196.703V32.9741H200.907C201.22 32.9741 201.504 33.0418 201.758 33.1771C202.012 33.3124 202.227 33.49 202.405 33.7098C202.583 33.9212 202.718 34.1665 202.812 34.4455C202.913 34.7161 202.964 34.991 202.964 35.27C202.964 35.7267 202.85 36.1453 202.621 36.5258C202.393 36.9063 202.075 37.1854 201.669 37.363C202.185 37.5152 202.591 37.8027 202.888 38.2255C203.193 38.6399 203.345 39.1135 203.345 39.6462ZM202.697 39.5574C202.697 39.3206 202.655 39.0923 202.57 38.8724C202.486 38.6441 202.367 38.4454 202.215 38.2763C202.062 38.0987 201.88 37.9592 201.669 37.8577C201.465 37.7562 201.245 37.7055 201.008 37.7055H197.351V41.3967H200.919C201.173 41.3967 201.406 41.3459 201.618 41.2445C201.838 41.143 202.024 41.0077 202.177 40.8386C202.337 40.661 202.464 40.4622 202.558 40.2424C202.651 40.0225 202.697 39.7942 202.697 39.5574ZM197.351 33.5576V37.16H200.653C200.898 37.16 201.123 37.1093 201.326 37.0078C201.529 36.9063 201.703 36.7753 201.846 36.6146C201.999 36.4455 202.117 36.251 202.202 36.0311C202.287 35.8112 202.329 35.5871 202.329 35.3588C202.329 35.1136 202.287 34.8853 202.202 34.6739C202.126 34.454 202.016 34.2637 201.872 34.103C201.736 33.9339 201.571 33.8028 201.377 33.7098C201.182 33.6083 200.966 33.5576 200.729 33.5576H197.351Z" fill="#036F8C"/>
<path d="M207.872 32.9741H208.431L212.241 41.9802H211.555L210.298 39.012H205.993L204.736 41.9802H204.037L207.872 32.9741ZM210.12 38.4792L208.152 33.7606L206.145 38.4792H210.12Z" fill="#036F8C"/>
<path d="M83.1523 28.9932H211.357H83.1523Z" fill="#036F8C"/>
<path d="M83.1523 28.9932H211.357" stroke="#005065" stroke-width="2"/>
</g>
<defs>
<linearGradient id="paint0_linear_98_1385" x1="39.0729" y1="-10.125" x2="39.0735" y2="63.5627" gradientUnits="userSpaceOnUse">
<stop stop-color="#005065"/>
<stop offset="0.0001" stop-color="#03809F"/>
<stop offset="0.956827" stop-color="#002134"/>
</linearGradient>
<linearGradient id="paint1_linear_98_1385" x1="38.4002" y1="33.3421" x2="38.4002" y2="40.3971" gradientUnits="userSpaceOnUse">
<stop stop-color="white"/>
<stop offset="1" stop-color="#E1FBFF"/>
</linearGradient>
<linearGradient id="paint2_linear_98_1385" x1="38.4007" y1="33.3422" x2="38.4007" y2="40.3973" gradientUnits="userSpaceOnUse">
<stop stop-color="white"/>
<stop offset="1" stop-color="#E1FBFF"/>
</linearGradient>
<linearGradient id="paint3_linear_98_1385" x1="38.4005" y1="33.3421" x2="38.4005" y2="40.3971" gradientUnits="userSpaceOnUse">
<stop stop-color="white"/>
<stop offset="1" stop-color="#E1FBFF"/>
</linearGradient>
<linearGradient id="paint4_linear_98_1385" x1="38.4017" y1="33.3424" x2="38.4017" y2="40.3974" gradientUnits="userSpaceOnUse">
<stop stop-color="white"/>
<stop offset="1" stop-color="#E1FBFF"/>
</linearGradient>
<linearGradient id="paint5_linear_98_1385" x1="38.4003" y1="33.3421" x2="38.4003" y2="40.3971" gradientUnits="userSpaceOnUse">
<stop stop-color="white"/>
<stop offset="1" stop-color="#E1FBFF"/>
</linearGradient>
<linearGradient id="paint6_linear_98_1385" x1="38.4019" y1="33.3421" x2="38.4019" y2="40.3971" gradientUnits="userSpaceOnUse">
<stop stop-color="white"/>
<stop offset="1" stop-color="#E1FBFF"/>
</linearGradient>
<linearGradient id="paint7_linear_98_1385" x1="38.4005" y1="33.3421" x2="38.4005" y2="40.3971" gradientUnits="userSpaceOnUse">
<stop stop-color="white"/>
<stop offset="1" stop-color="#E1FBFF"/>
</linearGradient>
<linearGradient id="paint8_linear_98_1385" x1="38.4003" y1="33.3421" x2="38.4003" y2="40.3971" gradientUnits="userSpaceOnUse">
<stop stop-color="white"/>
<stop offset="1" stop-color="#E1FBFF"/>
</linearGradient>
<linearGradient id="paint9_linear_98_1385" x1="38.4004" y1="33.3421" x2="38.4004" y2="40.3971" gradientUnits="userSpaceOnUse">
<stop stop-color="white"/>
<stop offset="1" stop-color="#E1FBFF"/>
</linearGradient>
<linearGradient id="paint10_linear_98_1385" x1="38.4005" y1="33.3421" x2="38.4005" y2="40.3971" gradientUnits="userSpaceOnUse">
<stop stop-color="white"/>
<stop offset="1" stop-color="#E1FBFF"/>
</linearGradient>
<linearGradient id="paint11_linear_98_1385" x1="38.4018" y1="33.3421" x2="38.4018" y2="40.3971" gradientUnits="userSpaceOnUse">
<stop stop-color="white"/>
<stop offset="1" stop-color="#E1FBFF"/>
</linearGradient>
<linearGradient id="paint12_linear_98_1385" x1="38.401" y1="33.3421" x2="38.401" y2="40.3971" gradientUnits="userSpaceOnUse">
<stop stop-color="white"/>
<stop offset="1" stop-color="#E1FBFF"/>
</linearGradient>
<linearGradient id="paint13_linear_98_1385" x1="38.4018" y1="33.3421" x2="38.4018" y2="40.3971" gradientUnits="userSpaceOnUse">
<stop stop-color="white"/>
<stop offset="1" stop-color="#E1FBFF"/>
</linearGradient>
<linearGradient id="paint14_linear_98_1385" x1="38.4017" y1="33.3424" x2="38.4017" y2="40.3974" gradientUnits="userSpaceOnUse">
<stop stop-color="white"/>
<stop offset="1" stop-color="#E1FBFF"/>
</linearGradient>
<linearGradient id="paint15_linear_98_1385" x1="38.4016" y1="33.3422" x2="38.4016" y2="40.3973" gradientUnits="userSpaceOnUse">
<stop stop-color="white"/>
<stop offset="1" stop-color="#E1FBFF"/>
</linearGradient>
<linearGradient id="paint16_linear_98_1385" x1="38.4005" y1="33.3421" x2="38.4005" y2="40.3971" gradientUnits="userSpaceOnUse">
<stop stop-color="white"/>
<stop offset="1" stop-color="#E1FBFF"/>
</linearGradient>
<linearGradient id="paint17_linear_98_1385" x1="38.4017" y1="33.3422" x2="38.4017" y2="40.3973" gradientUnits="userSpaceOnUse">
<stop stop-color="white"/>
<stop offset="1" stop-color="#E1FBFF"/>
</linearGradient>
<linearGradient id="paint18_linear_98_1385" x1="38.4004" y1="33.3422" x2="38.4004" y2="40.3973" gradientUnits="userSpaceOnUse">
<stop stop-color="white"/>
<stop offset="1" stop-color="#E1FBFF"/>
</linearGradient>
<linearGradient id="paint19_linear_98_1385" x1="38.4015" y1="33.3421" x2="38.4015" y2="40.3971" gradientUnits="userSpaceOnUse">
<stop stop-color="white"/>
<stop offset="1" stop-color="#E1FBFF"/>
</linearGradient>
<linearGradient id="paint20_linear_98_1385" x1="38.4017" y1="-9.80032" x2="38.402" y2="46.199" gradientUnits="userSpaceOnUse">
<stop stop-color="white"/>
<stop offset="1" stop-color="#E1FBFF"/>
</linearGradient>
<linearGradient id="paint21_linear_98_1385" x1="38.4018" y1="-9.80043" x2="38.4021" y2="46.1989" gradientUnits="userSpaceOnUse">
<stop stop-color="white"/>
<stop offset="1" stop-color="#E1FBFF"/>
</linearGradient>
<linearGradient id="paint22_linear_98_1385" x1="38.4015" y1="-9.80031" x2="38.4018" y2="46.199" gradientUnits="userSpaceOnUse">
<stop stop-color="white"/>
<stop offset="1" stop-color="#E1FBFF"/>
</linearGradient>
<clipPath id="clip0_98_1385">
<rect width="212.264" height="45" fill="white"/>
</clipPath>
</defs>
</svg>
