<svg width="32" height="32" viewBox="0 0 32 32" fill="none" xmlns="http://www.w3.org/2000/svg">
<path fill-rule="evenodd" clip-rule="evenodd" d="M26 12.6665C26 17.903 19.5 25.3332 16 25.3332C12.5 25.3332 6 17.3845 6 12.148C6 6.6665 10.8453 2.6665 16 2.6665C21.1547 2.6665 26 6.6665 26 12.6665ZM19.3333 11.9998C19.3333 13.8408 17.8409 15.3332 16 15.3332C14.1591 15.3332 12.6667 13.8408 12.6667 11.9998C12.6667 10.1589 14.1591 8.6665 16 8.6665C17.8409 8.6665 19.3333 10.1589 19.3333 11.9998ZM8 28.3332C7.44772 28.3332 7 28.7809 7 29.3332C7 29.8855 7.44772 30.3332 8 30.3332H24C24.5523 30.3332 25 29.8855 25 29.3332C25 28.7809 24.5523 28.3332 24 28.3332H8Z" fill="#036F8C"/>
<path d="M16 26.0832C17.1086 26.0832 18.3282 25.5111 19.4719 24.7029C20.6389 23.8782 21.8274 22.7363 22.8922 21.4394C24.9964 18.8765 26.75 15.542 26.75 12.6665H25.25C25.25 15.0275 23.7536 18.0263 21.7328 20.4876C20.7351 21.7029 19.6423 22.7457 18.6062 23.4779C17.5468 24.2265 16.6414 24.5832 16 24.5832V26.0832ZM5.25 12.148C5.25 15.016 6.997 18.4769 9.09633 21.1658C10.1585 22.5263 11.3449 23.734 12.5106 24.6091C13.6499 25.4645 14.8763 26.0832 16 26.0832V24.5832C15.3737 24.5832 14.4751 24.2083 13.4112 23.4096C12.3738 22.6308 11.279 21.524 10.2787 20.2427C8.253 17.6482 6.75 14.5164 6.75 12.148H5.25ZM16 1.9165C10.5008 1.9165 5.25 6.18592 5.25 12.148H6.75C6.75 7.14709 11.1899 3.4165 16 3.4165V1.9165ZM26.75 12.6665C26.75 6.21147 21.5268 1.9165 16 1.9165V3.4165C20.7825 3.4165 25.25 7.12154 25.25 12.6665H26.75ZM16 16.0832C18.2552 16.0832 20.0833 14.255 20.0833 11.9998H18.5833C18.5833 13.4266 17.4267 14.5832 16 14.5832V16.0832ZM11.9167 11.9998C11.9167 14.255 13.7448 16.0832 16 16.0832V14.5832C14.5733 14.5832 13.4167 13.4266 13.4167 11.9998H11.9167ZM16 7.9165C13.7448 7.9165 11.9167 9.74467 11.9167 11.9998H13.4167C13.4167 10.5731 14.5733 9.4165 16 9.4165V7.9165ZM20.0833 11.9998C20.0833 9.74467 18.2552 7.9165 16 7.9165V9.4165C17.4267 9.4165 18.5833 10.5731 18.5833 11.9998H20.0833ZM7.75 29.3332C7.75 29.1951 7.86193 29.0832 8 29.0832V27.5832C7.0335 27.5832 6.25 28.3667 6.25 29.3332H7.75ZM8 29.5832C7.86193 29.5832 7.75 29.4712 7.75 29.3332H6.25C6.25 30.2997 7.0335 31.0832 8 31.0832V29.5832ZM24 29.5832H8V31.0832H24V29.5832ZM24.25 29.3332C24.25 29.4712 24.1381 29.5832 24 29.5832V31.0832C24.9665 31.0832 25.75 30.2997 25.75 29.3332H24.25ZM24 29.0832C24.1381 29.0832 24.25 29.1951 24.25 29.3332H25.75C25.75 28.3667 24.9665 27.5832 24 27.5832V29.0832ZM8 29.0832H24V27.5832H8V29.0832Z" fill="#036F8C"/>
</svg>
