<svg width="28" height="28" viewBox="0 0 28 28" fill="none" xmlns="http://www.w3.org/2000/svg">
<path fill-rule="evenodd" clip-rule="evenodd" d="M6.12467 9.33333C6.12467 8.52792 5.47176 7.875 4.66634 7.875C3.86093 7.875 3.20801 8.52792 3.20801 9.33333V14C3.20801 15.793 4.45252 17.2953 6.12484 17.6902C6.12473 17.676 6.12467 17.6618 6.12467 17.6476V12.8333V11.6667V9.33333ZM7.87467 10.2509V9.33333C7.87467 7.56142 6.43825 6.125 4.66634 6.125C2.89443 6.125 1.45801 7.56142 1.45801 9.33333V14C1.45801 16.8746 3.64676 19.238 6.44864 19.5146C6.77826 20.4357 7.34977 21.2641 8.11865 21.9048L8.95822 22.6045C11.8786 25.0381 16.1207 25.0381 19.0411 22.6045L19.8807 21.9048C20.6496 21.2641 21.2211 20.4357 21.5507 19.5146C24.3526 19.238 26.5413 16.8746 26.5413 14V9.33333C26.5413 7.56142 25.1049 6.125 23.333 6.125C21.5611 6.125 20.1247 7.56142 20.1247 9.33333V10.2509L16.478 8.42754C14.9179 7.64748 13.0815 7.64748 11.5214 8.42754L7.87467 10.2509ZM23.333 7.875C22.5276 7.875 21.8747 8.52792 21.8747 9.33333V11.6667V12.8333V17.6476L21.8745 17.6902C23.5468 17.2953 24.7913 15.793 24.7913 14V9.33333C24.7913 8.52792 24.1384 7.875 23.333 7.875Z" fill="white"/>
</svg>
