<svg width="30" height="28" viewBox="0 0 30 28" fill="none" xmlns="http://www.w3.org/2000/svg">
<path fill-rule="evenodd" clip-rule="evenodd" d="M13.9382 9.41107e-07H15.8117C16.9966 -2.75901e-05 17.9737 -5.11175e-05 18.7469 0.103913C19.5588 0.213063 20.2758 0.451035 20.8499 1.02513C21.424 1.59923 21.6619 2.31622 21.7711 3.12807C21.8751 3.90136 21.875 4.87841 21.875 6.06326V6.125L21.939 6.125C23.5345 6.12498 24.8206 6.12496 25.832 6.26095C26.8822 6.40213 27.7663 6.70417 28.4686 7.40641C29.1708 8.10865 29.4729 8.99283 29.614 10.043C29.75 11.0544 29.75 12.3404 29.75 13.9359V20.1891C29.75 21.7846 29.75 23.0706 29.614 24.082C29.4729 25.1322 29.1708 26.0164 28.4686 26.7186C27.7663 27.4208 26.8822 27.7229 25.832 27.8641C24.8206 28 23.5345 28 21.939 28H7.81101C6.21547 28 4.92942 28 3.91796 27.8641C2.86783 27.7229 1.98365 27.4208 1.28141 26.7186C0.579174 26.0164 0.277131 25.1322 0.135946 24.082C-4.06541e-05 23.0706 -2.22438e-05 21.7846 5.8949e-07 20.1891V13.936C-2.22438e-05 12.3405 -4.06541e-05 11.0544 0.135946 10.043C0.277131 8.99283 0.579174 8.10865 1.28141 7.40641C1.98365 6.70417 2.86783 6.40213 3.91796 6.26095C4.92942 6.12496 6.21546 6.12498 7.81098 6.125L7.875 6.125L7.875 6.06325C7.87497 4.8784 7.87494 3.90136 7.97891 3.12807C8.08806 2.31622 8.32603 1.59923 8.90013 1.02513C9.47422 0.451035 10.1912 0.213063 11.0031 0.103913C11.7763 -5.11175e-05 12.7534 -2.75901e-05 13.9382 9.41107e-07ZM9.625 6.125H20.125C20.125 4.86283 20.1231 4.00422 20.0367 3.36126C19.9536 2.74346 19.8072 2.45732 19.6124 2.26257C19.4177 2.06782 19.1315 1.92137 18.5137 1.83831C17.8708 1.75186 17.0122 1.75 15.75 1.75H14C12.7378 1.75 11.8792 1.75186 11.2363 1.83831C10.6185 1.92137 10.3323 2.06782 10.1376 2.26257C9.94281 2.45732 9.79636 2.74346 9.7133 3.36126C9.62686 4.00422 9.625 4.86283 9.625 6.125ZM12.9062 13.3437C12.9062 12.7322 12.9062 12.4264 13.0062 12.1852C13.1394 11.8636 13.3949 11.6081 13.7165 11.4749C13.9577 11.375 14.2634 11.375 14.875 11.375C15.4865 11.375 15.7923 11.375 16.0335 11.4749C16.3551 11.6081 16.6106 11.8636 16.7438 12.1852C16.8437 12.4264 16.8437 12.7322 16.8437 13.3437V14.5932C16.8437 14.6229 16.8437 14.6378 16.853 14.647C16.8622 14.6562 16.877 14.6562 16.9067 14.6562H18.1562C18.7678 14.6562 19.0736 14.6562 19.3148 14.7562C19.6364 14.8894 19.8919 15.1449 20.0251 15.4665C20.125 15.7077 20.125 16.0135 20.125 16.625C20.125 17.2365 20.125 17.5423 20.0251 17.7835C19.8919 18.1051 19.6364 18.3606 19.3148 18.4938C19.0736 18.5937 18.7678 18.5937 18.1562 18.5937H16.9067C16.877 18.5937 16.8622 18.5937 16.853 18.603C16.8437 18.6122 16.8437 18.6271 16.8437 18.6567V19.9062C16.8437 20.5178 16.8437 20.8236 16.7438 21.0648C16.6106 21.3864 16.3551 21.6419 16.0335 21.7751C15.7923 21.875 15.4865 21.875 14.875 21.875C14.2634 21.875 13.9577 21.875 13.7165 21.7751C13.3949 21.6419 13.1394 21.3864 13.0062 21.0648C12.9062 20.8236 12.9062 20.5178 12.9062 19.9062V18.6567C12.9062 18.6271 12.9062 18.6122 12.897 18.603C12.8878 18.5937 12.8729 18.5937 12.8432 18.5937H11.5937C10.9822 18.5937 10.6764 18.5937 10.4352 18.4938C10.1136 18.3606 9.85812 18.1051 9.72491 17.7835C9.625 17.5423 9.625 17.2365 9.625 16.625C9.625 16.0134 9.625 15.7077 9.72491 15.4665C9.85812 15.1449 10.1136 14.8894 10.4352 14.7562C10.6764 14.6562 10.9822 14.6562 11.5937 14.6562H12.8432C12.8729 14.6562 12.8878 14.6562 12.897 14.647C12.9062 14.6378 12.9062 14.6229 12.9062 14.5932V13.3437Z" fill="white"/>
</svg>
