<svg width="24" height="24" viewBox="0 0 24 24" fill="none" xmlns="http://www.w3.org/2000/svg">
<path d="M1.81636 24C1.33463 24 0.872635 23.8086 0.532001 23.468C0.191366 23.1273 9.6839e-08 22.6653 9.6839e-08 22.1836V1.817C-0.000101123 1.50698 0.0791491 1.20209 0.230206 0.931356C0.381263 0.660625 0.599098 0.433063 0.862975 0.270335C1.12685 0.107607 1.42799 0.0151285 1.73771 0.00170396C2.04744 -0.0117206 2.35545 0.0543554 2.63241 0.193642L22.9985 10.3813C23.2995 10.5324 23.5526 10.7643 23.7295 11.051C23.9063 11.3376 24 11.6678 24 12.0047C24 12.3415 23.9063 12.6717 23.7295 12.9584C23.5526 13.2451 23.2995 13.4769 22.9985 13.628L2.63241 23.8069C2.37929 23.9344 2.09975 24.0005 1.81636 24Z" fill="url(#paint0_linear_208_5291)"/>
<defs>
<linearGradient id="paint0_linear_208_5291" x1="8" y1="1.5" x2="6" y2="51.5" gradientUnits="userSpaceOnUse">
<stop stop-color="#E6644D"/>
<stop offset="1" stop-color="#E6644D" stop-opacity="0"/>
</linearGradient>
</defs>
</svg>
