<svg width="36" height="36" viewBox="0 0 36 36" fill="none" xmlns="http://www.w3.org/2000/svg">
<path fill-rule="evenodd" clip-rule="evenodd" d="M17.8948 3C16.6009 2.99991 15.8359 2.99986 15.1832 3.12971C12.5055 3.66233 10.4123 5.75549 9.87971 8.43315C9.74986 9.08595 9.74991 9.85088 9.75 11.1448L9.75001 20.25C9.75001 23.7244 12.375 26.5857 15.75 26.9588V27C15.75 28.2426 16.7574 29.25 18 29.25C19.2427 29.25 20.25 28.2426 20.25 27V26.9588C23.625 26.5857 26.25 23.7244 26.25 20.25L26.25 11.1448C26.2501 9.85091 26.2502 9.08595 26.1203 8.43315C25.5877 5.75549 23.4945 3.66233 20.8169 3.12971C20.1641 2.99986 19.3991 2.99991 18.1053 3H17.8948ZM18 27.75C17.5858 27.75 17.25 27.4142 17.25 27H18.75C18.75 27.4142 18.4142 27.75 18 27.75ZM24.75 14.25H11.25V11.25C11.25 9.8201 11.2536 9.21467 11.3509 8.72579C11.7651 6.64316 13.3932 5.01515 15.4758 4.60089C15.9647 4.50364 16.5701 4.50001 18 4.50001C19.4299 4.50001 20.0354 4.50364 20.5242 4.60089C22.6069 5.01515 24.2349 6.64316 24.6491 8.72579C24.7464 9.21467 24.75 9.8201 24.75 11.25V14.25Z" fill="white"/>
<path fill-rule="evenodd" clip-rule="evenodd" d="M18 27.75C18.4142 27.75 18.75 28.0858 18.75 28.5C18.75 29.5601 18.9296 30.3496 19.2137 30.8466C19.4745 31.303 19.806 31.5 20.25 31.5C20.6642 31.5 21 31.8358 21 32.25C21 32.6642 20.6642 33 20.25 33C19.194 33 18.4005 32.447 17.9113 31.5909C17.4454 30.7754 17.25 29.6899 17.25 28.5C17.25 28.0858 17.5858 27.75 18 27.75Z" fill="white"/>
</svg>
