<svg width="36" height="36" viewBox="0 0 36 36" fill="none" xmlns="http://www.w3.org/2000/svg">
<path fill-rule="evenodd" clip-rule="evenodd" d="M11.7483 24.103C12.0602 24.4149 12.0602 24.9206 11.7483 25.2324L7.11027 29.8705C6.79839 30.1823 6.29274 30.1823 5.98086 29.8705C5.66899 29.5586 5.66899 29.0529 5.98086 28.7411L10.6189 24.103C10.9308 23.7912 11.4364 23.7912 11.7483 24.103Z" fill="white"/>
<path fill-rule="evenodd" clip-rule="evenodd" d="M27.3279 5.53369C27.2198 4.75051 28.169 4.27874 28.728 4.83776L31.014 7.12372C31.573 7.68277 31.1012 8.63199 30.318 8.52384C30.1174 8.49613 29.9313 8.40364 29.7881 8.26044L29.2544 7.72674L27.5603 9.42084L30.9485 12.8091C31.2604 13.1209 31.2604 13.6266 30.9485 13.9385C30.6367 14.2503 30.131 14.2503 29.8191 13.9385L29.2544 13.3738L17.9604 24.6678C17.2227 25.4055 16.1238 25.5616 15.2333 25.1361L15.1369 25.2325C13.8893 26.48 11.8667 26.48 10.6192 25.2325C9.37172 23.985 9.37172 21.9624 10.6192 20.7149L10.7156 20.6185C10.2902 19.728 10.4463 18.629 11.1839 17.8914L22.478 6.59732L21.9133 6.03262C21.6014 5.72074 21.6014 5.21509 21.9133 4.90321C22.2252 4.59134 22.7308 4.59134 23.0427 4.90321L24.172 6.03249L26.4309 8.29143L28.125 6.59733L27.5913 6.06363C27.4481 5.92041 27.3556 5.73432 27.3279 5.53369ZM23.6074 7.72673L19.0898 12.2444L23.6074 16.762L28.125 12.2444L23.6074 7.72673ZM11.7486 21.8443C11.1249 22.4681 11.1249 23.4794 11.7486 24.1031C12.3724 24.7269 13.3837 24.7269 14.0074 24.1031L11.7486 21.8443Z" fill="white"/>
</svg>
