<svg width="36" height="36" viewBox="0 0 36 36" fill="none" xmlns="http://www.w3.org/2000/svg">
<path fill-rule="evenodd" clip-rule="evenodd" d="M4.31002 3.0883C3.92152 3.22894 3.56252 3.50277 3.34969 3.82084C2.96681 4.39306 2.99087 3.58392 3.0078 15.3215L3.0233 26.0263L3.16977 26.3323C3.35639 26.7222 3.71851 27.0946 4.1003 27.289L4.39947 27.4413H10.6222H16.8449L17.1282 27.3068C17.5369 27.1126 17.9661 26.6452 18.1377 26.2072L18.2809 25.8417V15.2292V4.61663L18.1417 4.26214C17.9728 3.83198 17.5575 3.37647 17.1441 3.16797L16.8449 3.01706L10.7119 3.00401C5.25091 2.99245 4.54954 3.00168 4.31002 3.0883ZM19.8964 5.71935C19.6445 5.82714 19.4437 5.97547 19.2233 6.21663L18.9092 6.5603L18.9077 16.1703C18.9067 22.5226 18.8854 25.8732 18.8448 26.0545C18.6495 26.9256 18.0493 27.6189 17.1803 27.9774C16.8565 28.1109 16.759 28.1168 14.3678 28.1476L11.8907 28.1796L14.996 29.5595C16.704 30.3185 19.1246 31.3953 20.3751 31.9524C22.3814 32.8462 22.6955 32.9688 23.0462 32.995C23.7312 33.0461 24.4541 32.703 24.7988 32.1632C24.8798 32.0363 26.7583 27.6274 28.9731 22.3657L33 12.7991L32.9991 12.2146C32.9983 11.7034 32.9785 11.5914 32.8405 11.3213C32.4772 10.6097 32.6485 10.7007 26.6576 8.03547L21.2128 5.61316L20.7341 5.58942C20.3265 5.56924 20.2021 5.58856 19.8964 5.71935ZM6.016 6.06338L6.14943 6.19227L6.37476 6.03508C6.64623 5.84566 6.84631 5.8368 7.11054 6.00248C7.75214 6.40465 7.45141 7.44788 6.49964 8.12191L6.1675 8.35705L5.91811 8.18737C4.89376 7.49039 4.55803 6.30221 5.28968 5.96329C5.52674 5.85353 5.84398 5.89721 6.016 6.06338ZM21.6743 9.54006C21.7312 10.0092 21.7718 10.3969 21.7645 10.4018C21.7572 10.4066 21.4471 10.6398 21.0753 10.9199C20.7034 11.2002 20.3869 11.4167 20.3718 11.4012C20.3418 11.3703 20.1669 9.98818 20.1661 9.77581C20.1657 9.64003 21.3845 8.64011 21.5115 8.6721C21.5442 8.68035 21.6175 9.07089 21.6743 9.54006ZM9.68148 12.247C9.88766 12.31 10.0932 12.4393 10.3049 12.6396L10.6209 12.9383L10.9401 12.6384C11.8151 11.8161 13.1598 12.0851 13.6862 13.1878C14.3241 14.524 13.1865 16.6243 11.0572 18.0416C10.5879 18.354 10.6394 18.365 9.84422 17.7833C8.32433 16.6715 7.41653 15.2651 7.41479 14.0191C7.413 12.7126 8.4784 11.8797 9.68148 12.247ZM24.09 17.6719C24.3405 19.7827 24.394 20.3818 24.337 20.4386C24.297 20.4784 23.3219 21.2221 22.1701 22.0912L20.0759 23.6714L19.765 21.0961C19.594 19.6796 19.4535 18.4376 19.4529 18.336C19.4519 18.1641 19.5978 18.0416 21.5888 16.5431C22.7641 15.6585 23.7358 14.9443 23.748 14.9562C23.7602 14.9679 23.9141 16.19 24.09 17.6719ZM14.9218 22.2716C15.0416 22.3552 15.1396 22.4027 15.1396 22.3771C15.1396 22.1261 15.8301 22.052 16.0884 22.2755C16.6428 22.7552 16.3025 23.7214 15.3391 24.403L15.0781 24.5877L14.8845 24.4515C14.3408 24.0691 13.9246 23.5372 13.8299 23.1035C13.6675 22.3606 14.3282 21.8573 14.9218 22.2716ZM23.5947 28.0354C23.651 28.5143 23.6902 28.912 23.6816 28.9191C23.4493 29.1105 22.3389 29.9327 22.3126 29.9328C22.2789 29.933 22.2044 29.4221 22.1063 28.518L22.0695 28.1796L22.7478 27.672C23.1209 27.3928 23.441 27.1645 23.4592 27.1645C23.4773 27.1645 23.5383 27.5564 23.5947 28.0354Z" fill="white"/>
</svg>
