<svg width="61" height="60" viewBox="0 0 61 60" fill="none" xmlns="http://www.w3.org/2000/svg">
<g filter="url(#filter0_ii_501_17449)">
<path d="M34.7119 35.4364C35.9702 36.0978 37.3507 36.5308 38.8402 36.6555C40.3722 36.8092 43.7435 36.8092 43.7435 38.9669C43.7435 41.894 39.4537 45.7467 32.5583 49.9074C30.413 51.2946 25.9698 53.4513 25.9698 56.3798C25.9698 58.6912 27.6557 60.3858 31.1798 59.9237C34.5507 59.4616 39.7607 57.1503 46.6544 51.2946C53.8547 45.2846 60.5967 35.2688 60.5967 25.4059C60.5967 15.3895 53.8555 5.37315 42.9764 5.37314C40.4187 5.37314 37.9676 5.94512 35.7788 6.9775C37.9254 10.8805 39.0693 15.3965 39.0693 19.8546C39.0689 25.3585 37.3062 30.6966 34.7109 35.4367L34.7119 35.4364Z" fill="#F6FAFB"/>
</g>
<g filter="url(#filter1_ii_501_17449)">
<path d="M12.8702 31.282C14.4023 31.4357 17.7736 31.4357 17.7736 33.5934C17.7736 36.5206 13.4838 40.3734 6.58834 44.5341C4.44392 45.9214 -0.000880751 48.0781 -0.00088095 51.0067C-0.000881106 53.3181 1.68497 55.0128 5.20914 54.5507C8.57997 54.0886 13.79 51.7772 20.6837 45.9214C27.8849 39.9113 34.626 29.8953 34.626 20.0333C34.626 10.0167 27.8848 9.87251e-05 17.0057 9.79876e-05C8.27287 9.73955e-05 0.765106 6.62645 0.765105 15.7193C0.766402 22.6535 5.51613 30.6658 12.8701 31.2829L12.8702 31.282Z" fill="#F6FAFB"/>
</g>
<defs>
<filter id="filter0_ii_501_17449" x="20.9697" y="0.373047" width="44.627" height="64.627" filterUnits="userSpaceOnUse" color-interpolation-filters="sRGB">
<feFlood flood-opacity="0" result="BackgroundImageFix"/>
<feBlend mode="normal" in="SourceGraphic" in2="BackgroundImageFix" result="shape"/>
<feColorMatrix in="SourceAlpha" type="matrix" values="0 0 0 0 0 0 0 0 0 0 0 0 0 0 0 0 0 0 127 0" result="hardAlpha"/>
<feOffset dx="-5" dy="-5"/>
<feGaussianBlur stdDeviation="5"/>
<feComposite in2="hardAlpha" operator="arithmetic" k2="-1" k3="1"/>
<feColorMatrix type="matrix" values="0 0 0 0 1 0 0 0 0 1 0 0 0 0 1 0 0 0 1 0"/>
<feBlend mode="normal" in2="shape" result="effect1_innerShadow_501_17449"/>
<feColorMatrix in="SourceAlpha" type="matrix" values="0 0 0 0 0 0 0 0 0 0 0 0 0 0 0 0 0 0 127 0" result="hardAlpha"/>
<feOffset dx="5" dy="5"/>
<feGaussianBlur stdDeviation="5"/>
<feComposite in2="hardAlpha" operator="arithmetic" k2="-1" k3="1"/>
<feColorMatrix type="matrix" values="0 0 0 0 0.657656 0 0 0 0 0.732545 0 0 0 0 0.7625 0 0 0 0.23 0"/>
<feBlend mode="normal" in2="effect1_innerShadow_501_17449" result="effect2_innerShadow_501_17449"/>
</filter>
<filter id="filter1_ii_501_17449" x="-5.00098" y="-5" width="44.627" height="64.627" filterUnits="userSpaceOnUse" color-interpolation-filters="sRGB">
<feFlood flood-opacity="0" result="BackgroundImageFix"/>
<feBlend mode="normal" in="SourceGraphic" in2="BackgroundImageFix" result="shape"/>
<feColorMatrix in="SourceAlpha" type="matrix" values="0 0 0 0 0 0 0 0 0 0 0 0 0 0 0 0 0 0 127 0" result="hardAlpha"/>
<feOffset dx="-5" dy="-5"/>
<feGaussianBlur stdDeviation="5"/>
<feComposite in2="hardAlpha" operator="arithmetic" k2="-1" k3="1"/>
<feColorMatrix type="matrix" values="0 0 0 0 1 0 0 0 0 1 0 0 0 0 1 0 0 0 1 0"/>
<feBlend mode="normal" in2="shape" result="effect1_innerShadow_501_17449"/>
<feColorMatrix in="SourceAlpha" type="matrix" values="0 0 0 0 0 0 0 0 0 0 0 0 0 0 0 0 0 0 127 0" result="hardAlpha"/>
<feOffset dx="5" dy="5"/>
<feGaussianBlur stdDeviation="5"/>
<feComposite in2="hardAlpha" operator="arithmetic" k2="-1" k3="1"/>
<feColorMatrix type="matrix" values="0 0 0 0 0.657656 0 0 0 0 0.732545 0 0 0 0 0.7625 0 0 0 0.23 0"/>
<feBlend mode="normal" in2="effect1_innerShadow_501_17449" result="effect2_innerShadow_501_17449"/>
</filter>
</defs>
</svg>
