<svg width="80" height="82" viewBox="0 0 80 82" fill="none" xmlns="http://www.w3.org/2000/svg">
<path d="M37.8361 26.9271C38.1354 26.0058 39.4388 26.0058 39.7382 26.9271L42.3793 35.0558C42.5132 35.4678 42.8972 35.7468 43.3304 35.7468L51.8774 35.7468C52.8461 35.7468 53.2489 36.9864 52.4652 37.5558L45.5505 42.5796C45.2 42.8342 45.0534 43.2856 45.1872 43.6976L47.8284 51.8263C48.1278 52.7476 47.0733 53.5137 46.2896 52.9443L39.3749 47.9205C39.0244 47.6659 38.5498 47.6659 38.1993 47.9205L31.2847 52.9443C30.5009 53.5137 29.4465 52.7476 29.7458 51.8263L32.387 43.6976C32.5209 43.2856 32.3742 42.8342 32.0237 42.5796L25.109 37.5558C24.3253 36.9864 24.7281 35.7468 25.6968 35.7468L34.2438 35.7468C34.6771 35.7468 35.061 35.4678 35.1949 35.0558L37.8361 26.9271Z" fill="#E7B3AA"/>
<path d="M30.9185 17.4844C30.1189 17.7506 29.3414 17.8127 28.5859 17.6707C27.8304 17.5287 27.1677 17.2097 26.5978 16.7137C26.0347 16.2041 25.6218 15.5546 25.359 14.7652C25.0962 13.9758 25.0391 13.2135 25.1879 12.4782C25.3433 11.7294 25.6826 11.0768 26.2056 10.5205C26.7253 9.95402 27.3849 9.5377 28.1844 9.27154C28.9839 9.00538 29.7564 8.94497 30.5018 9.0903C31.254 9.22215 31.9116 9.54285 32.4747 10.0524C33.0445 10.5485 33.4609 11.1912 33.7237 11.9806C33.9865 12.77 34.0401 13.5391 33.8847 14.2879C33.736 15.0232 33.4018 15.674 32.8821 16.2405C32.3725 16.8036 31.718 17.2183 30.9185 17.4844ZM30.494 16.2092C31.0101 16.0374 31.4318 15.7677 31.7592 15.4002C32.0933 15.0191 32.3059 14.5774 32.3972 14.0748C32.4851 13.5621 32.4364 13.0275 32.2511 12.4708C32.0658 11.9142 31.786 11.4621 31.4117 11.1145C31.0341 10.7568 30.5991 10.5307 30.1066 10.436C29.6243 10.338 29.1251 10.3749 28.6089 10.5467C28.0928 10.7186 27.666 10.9899 27.3285 11.3608C27.0012 11.7284 26.7885 12.1702 26.6905 12.6862C26.5992 13.1888 26.6462 13.7184 26.8315 14.275C27.0168 14.8316 27.2983 15.2888 27.676 15.6465C28.0603 15.9907 28.4954 16.2169 28.9811 16.325C29.4735 16.4196 29.9778 16.381 30.494 16.2092Z" fill="#232C30"/>
<path d="M42.6438 8.86522L39.5399 8.88919L39.595 16.025L38.059 16.0368L38.0039 8.90105L34.9 8.92501L34.8896 7.58105L42.6334 7.52126L42.6438 8.86522Z" fill="#232C30"/>
<path d="M48.5722 13.1925C49.0743 13.4921 49.4284 13.8435 49.6344 14.2468C49.8404 14.65 49.8756 15.0874 49.7401 15.559C49.6016 16.0408 49.3139 16.4243 48.8768 16.7093C48.4427 16.9842 47.9026 17.1452 47.2564 17.1926C46.6233 17.2327 45.948 17.1496 45.2304 16.9434C44.6255 16.7696 44.053 16.5219 43.5128 16.2002C42.9859 15.8712 42.5396 15.4933 42.1739 15.0664L42.9424 14.0719C43.2613 14.4299 43.6513 14.7528 44.1124 15.0407C44.5764 15.3183 45.0647 15.5308 45.5773 15.678C46.2745 15.8784 46.8619 15.9195 47.3398 15.8016C47.8308 15.6763 48.1352 15.4086 48.253 14.9985C48.362 14.6192 48.2768 14.2784 47.9974 13.9762C47.7283 13.6769 47.2913 13.4404 46.6864 13.2666L45.1948 12.838L45.4997 11.7769L46.8837 12.1746C47.4373 12.3336 47.901 12.3614 48.2747 12.258C48.6485 12.1545 48.884 11.9336 48.9812 11.5953C49.0873 11.2262 48.9801 10.8847 48.6597 10.5706C48.3495 10.2596 47.8766 10.0127 47.241 9.83007C46.4311 9.59736 45.5147 9.56155 44.4918 9.72265L44.4189 8.46982C45.5577 8.25321 46.6704 8.30103 47.7571 8.61328C48.4132 8.80181 48.9762 9.06345 49.446 9.39822C49.9159 9.73298 50.2508 10.1122 50.4509 10.536C50.651 10.9597 50.6892 11.3869 50.5655 11.8174C50.4506 12.2173 50.2142 12.5378 49.8563 12.779C49.4985 13.0202 49.0704 13.158 48.5722 13.1925Z" fill="#232C30"/>
<path d="M56.2216 15.8297C57.0662 16.4813 57.5693 17.169 57.7309 17.8928C57.8925 18.6166 57.7097 19.3274 57.1823 20.0252C56.6293 20.7571 55.9548 21.1365 55.159 21.1635C54.3781 21.1884 53.5356 20.8525 52.6314 20.1559L49.7945 17.9919L54.9072 11.2265L56.1326 12.1526L54.4059 14.4375L56.2216 15.8297ZM61.596 16.2813L62.8214 17.2074L57.7087 23.9728L56.4833 23.0467L61.596 16.2813ZM53.2463 19.1565C53.793 19.583 54.2936 19.7875 54.748 19.77C55.211 19.7589 55.6129 19.5278 55.9538 19.0768C56.2882 18.6342 56.3922 18.2047 56.2657 17.7883C56.1392 17.3718 55.7983 16.9471 55.2431 16.5141L53.7306 15.331L51.7241 17.9861L53.2463 19.1565Z" fill="#232C30"/>
<path d="M64.953 27.6377C65.281 28.7223 64.9741 29.5475 64.0323 30.1133C63.3923 30.4978 62.753 30.5521 62.1144 30.2762C61.4813 30.0094 60.8791 29.4006 60.3079 28.4496L58.2069 24.9522L65.4762 20.5854L67.503 23.9595C68.0193 24.819 68.2584 25.5899 68.2204 26.2723C68.1915 26.9491 67.8798 27.4661 67.2855 27.8231C66.9015 28.0538 66.5046 28.1491 66.0948 28.1091C65.6996 28.0727 65.319 27.9156 64.953 27.6377ZM63.1235 23.7532L64.3099 25.7283C64.612 26.2312 64.9314 26.5557 65.2681 26.7019C65.6103 26.8572 65.9551 26.8305 66.3025 26.6218C66.9974 26.2043 67.0373 25.4835 66.4221 24.4594L65.2357 22.4844L63.1235 23.7532ZM61.2652 27.7439C61.5947 28.2926 61.9288 28.6518 62.2673 28.8218C62.6058 28.9917 62.9579 28.9669 63.3237 28.7472C63.6986 28.5219 63.9006 28.2264 63.9296 27.8605C63.9642 27.5038 63.8195 27.0557 63.4954 26.5162L62.1771 24.3217L59.9963 25.6317L61.2652 27.7439Z" fill="#232C30"/>
<path d="M62.8807 35.5592C62.7229 34.7315 62.7643 33.9526 63.0051 33.2225C63.246 32.4925 63.65 31.8779 64.2172 31.3788C64.7968 30.8882 65.4953 30.5649 66.3126 30.409C67.1298 30.2532 67.893 30.2976 68.6021 30.5424C69.3237 30.7957 69.9255 31.2184 70.4077 31.8106C70.9003 32.4008 71.2256 33.1097 71.3835 33.9374C71.5413 34.7652 71.4989 35.5388 71.2561 36.2584C71.0257 36.9865 70.6207 37.5958 70.041 38.0864C69.4738 38.5855 68.7816 38.913 67.9643 39.0689C67.1471 39.2248 66.3777 39.1761 65.6561 38.9228C64.947 38.678 64.3461 38.2605 63.8535 37.6704C63.3629 37.0907 63.0386 36.387 62.8807 35.5592ZM64.2009 35.3074C64.3029 35.8418 64.5143 36.2955 64.8352 36.6687C65.1686 37.0503 65.5783 37.3196 66.0644 37.4767C66.5609 37.6318 67.0973 37.6543 67.6736 37.5444C68.2498 37.4345 68.735 37.2171 69.1291 36.8921C69.5337 36.5652 69.8155 36.164 69.9746 35.6884C70.1356 35.2233 70.1652 34.7236 70.0633 34.1893C69.9613 33.6549 69.7489 33.1959 69.426 32.8123C69.105 32.4391 68.6953 32.1698 68.1968 32.0043C67.7108 31.8472 67.1796 31.8236 66.6034 31.9336C66.0271 32.0435 65.5367 32.2619 65.1321 32.5888C64.74 32.9242 64.4582 33.3255 64.2866 33.7925C64.1276 34.2681 64.099 34.7731 64.2009 35.3074Z" fill="#232C30"/>
<path d="M67.1378 47.4398C66.6872 48.4795 65.9197 48.9109 64.8354 48.7341C64.0985 48.6139 63.5755 48.2421 63.2665 47.6189C62.9557 47.0063 62.8896 46.1525 63.0682 45.0576L63.725 41.0308L72.0944 42.396L71.4608 46.2806C71.2994 47.2702 70.9837 48.0131 70.5137 48.5092C70.0542 49.0071 69.4823 49.2002 68.798 49.0886C68.3559 49.0165 67.9914 48.8327 67.7045 48.5374C67.4264 48.2542 67.2375 47.8884 67.1378 47.4398ZM68.2519 43.2931L67.881 45.567C67.7865 46.146 67.8205 46.6001 67.983 46.9292C68.1438 47.2689 68.4242 47.4713 68.8242 47.5366C69.6243 47.6671 70.1205 47.1428 70.3128 45.9637L70.6837 43.6897L68.2519 43.2931ZM64.2548 45.1377C64.1518 45.7693 64.1745 46.2594 64.323 46.6078C64.4715 46.9563 64.7563 47.1649 65.1774 47.2335C65.6091 47.3039 65.9542 47.2089 66.2128 46.9485C66.4697 46.6986 66.6488 46.2631 66.7501 45.642L67.1623 43.1154L64.6514 42.7058L64.2548 45.1377Z" fill="#232C30"/>
<path d="M58.722 54.8846C59.23 54.2123 59.8355 53.7207 60.5385 53.4096C61.2415 53.0986 61.9684 52.986 62.719 53.072C63.4717 53.1728 64.1799 53.4741 64.8437 53.9757C65.5075 54.4773 65.9864 55.0732 66.2804 55.7634C66.5765 56.4684 66.6666 57.1984 66.5508 57.9532C66.4435 58.7144 66.1358 59.4311 65.6278 60.1034C65.1197 60.7757 64.5174 61.2631 63.8209 61.5656C63.1264 61.8831 62.4028 61.9914 61.6501 61.8905C60.8994 61.8046 60.1922 61.5108 59.5285 61.0092C58.8647 60.5076 58.3847 59.9042 58.0886 59.1991C57.7946 58.509 57.7013 57.7833 57.8086 57.0221C57.9094 56.2694 58.2139 55.5569 58.722 54.8846ZM59.7942 55.6949C59.4662 56.1289 59.2715 56.5901 59.21 57.0784C59.1505 57.5817 59.2256 58.0662 59.4351 58.532C59.6531 59.0043 59.9961 59.4173 60.4642 59.771C60.9322 60.1247 61.4189 60.3387 61.9242 60.4131C62.4381 60.4939 62.9247 60.4338 63.3841 60.2328C63.8371 60.0403 64.2276 59.7271 64.5555 59.2931C64.8835 58.8591 65.0815 58.3937 65.1494 57.8968C65.2109 57.4085 65.1359 56.924 64.9243 56.4432C64.7148 55.9774 64.376 55.5676 63.908 55.2139C63.4399 54.8602 62.949 54.6429 62.4352 54.5621C61.9234 54.4963 61.4368 54.5564 60.9753 54.7424C60.5159 54.9434 60.1222 55.2609 59.7942 55.6949Z" fill="#232C30"/>
<path d="M49.3048 67.6219C48.1929 67.8402 47.4024 67.4526 46.9333 66.4591C46.6145 65.7839 46.6242 65.1424 46.9624 64.5345C47.2909 63.9311 47.9567 63.3926 48.9598 62.919L52.6493 61.177L56.2699 68.8452L52.7107 70.5257C51.804 70.9538 51.0131 71.1149 50.3379 71.0091C49.6673 70.9128 49.184 70.5513 48.8879 69.9243C48.6967 69.5192 48.6414 69.1147 48.722 68.711C48.7976 68.3214 48.9919 67.9584 49.3048 67.6219ZM53.3523 66.1886L51.2689 67.1723C50.7384 67.4228 50.3836 67.7082 50.2046 68.0287C50.016 68.3536 50.0082 68.6994 50.1813 69.0659C50.5274 69.799 51.2406 69.9105 52.3209 69.4004L54.4043 68.4167L53.3523 66.1886ZM49.5666 63.9418C48.9879 64.2151 48.5971 64.5116 48.3943 64.8315C48.1915 65.1514 48.1811 65.5043 48.3633 65.8901C48.55 66.2856 48.824 66.516 49.1851 66.5814C49.5366 66.6513 49.9969 66.552 50.566 66.2833L52.881 65.1903L51.7948 62.8898L49.5666 63.9418Z" fill="#232C30"/>
<path d="M41.5224 73.494C40.7033 73.5541 39.956 73.4272 39.2805 73.1132C38.605 72.7991 38.0626 72.3309 37.6533 71.7085C37.2333 71.087 36.9921 70.3506 36.9296 69.4996C36.8671 68.6486 36.9978 67.8796 37.3217 67.1927C37.6357 66.5172 38.1039 65.9748 38.7263 65.5655C39.3487 65.1561 40.0694 64.9214 40.8885 64.8612C41.4949 64.8167 42.062 64.8927 42.5898 65.0893C43.107 65.2866 43.5575 65.5958 43.9414 66.0168L43.6203 61.6446L45.1522 61.5321L46.0005 73.085L44.5324 73.1928L44.434 71.8524C44.128 72.3455 43.7229 72.7281 43.2188 73.0005C42.7155 73.2834 42.15 73.4479 41.5224 73.494ZM41.1146 66.1923C40.5721 66.2321 40.097 66.39 39.6895 66.6659C39.2721 66.9532 38.9574 67.3293 38.7456 67.794C38.5238 68.2702 38.4344 68.8009 38.4774 69.386C38.5204 69.971 38.6859 70.4776 38.974 70.9057C39.2523 71.3451 39.6185 71.6712 40.0726 71.8838C40.5161 72.0973 41.0091 72.1841 41.5516 72.1442C42.0835 72.1052 42.5582 71.942 42.9756 71.6546C43.3832 71.3787 43.6982 71.008 43.9207 70.5425C44.1326 70.0777 44.217 69.5528 44.1741 68.9677C44.1311 68.3826 43.9705 67.8703 43.6922 67.4308C43.4148 67.002 43.0486 66.6759 42.5937 66.4527C42.1395 66.24 41.6465 66.1532 41.1146 66.1923Z" fill="#232C30"/>
<path d="M29.9177 72.338C28.795 71.997 28.0215 71.461 27.5969 70.73C27.1622 69.9959 27.1107 69.0829 27.4425 67.9908L28.9307 63.0919L30.3239 63.5151L29.9983 64.5868C30.358 64.2836 30.7984 64.0996 31.3197 64.035C31.8277 63.9776 32.393 64.0434 33.0156 64.2325C33.9239 64.5085 34.587 64.9496 35.0048 65.5559C35.4124 66.1591 35.5077 66.8179 35.2906 67.5323C35.0736 68.2467 34.6397 68.7392 33.989 69.0097C33.3351 69.2905 32.4418 69.2588 31.3089 68.9146L28.9819 68.2077L28.8935 68.4985C28.7013 69.1313 28.7377 69.6719 29.0028 70.1203C29.2679 70.5688 29.7577 70.9015 30.4721 71.1185C30.9518 71.2643 31.4461 71.3252 31.955 71.3015C32.4608 71.2879 32.9122 71.1965 33.3092 71.0272L33.5867 72.3155C33.0659 72.5252 32.4883 72.6284 31.8538 72.6252C31.2163 72.6322 30.5709 72.5365 29.9177 72.338ZM32.4265 65.291C31.8651 65.1204 31.3431 65.0956 30.8605 65.2166C30.3747 65.3477 29.9702 65.615 29.647 66.0185L29.3028 67.1513L31.5686 67.8397C32.8137 68.2179 33.5634 67.9886 33.8177 67.1517C33.9417 66.7435 33.8811 66.3739 33.6361 66.0431C33.391 65.7122 32.9878 65.4615 32.4265 65.291Z" fill="#232C30"/>
<path d="M16.8789 65.2244L21.8923 58.3851L23.1311 59.2931L21.1069 62.0547C22.099 62.2529 22.9606 62.62 23.6919 63.156C24.5436 63.7803 25.0567 64.4606 25.2311 65.1969C25.4056 65.9332 25.2028 66.697 24.6226 67.4885L22.9956 69.708L21.7568 68.8L23.327 66.6578C23.6739 66.1847 23.7893 65.7204 23.6734 65.2652C23.5489 64.8036 23.2199 64.3773 22.6865 63.9863C22.0843 63.5449 21.3244 63.2193 20.4069 63.0096L18.1178 66.1325L16.8789 65.2244Z" fill="#232C30"/>
<path d="M13.1421 53.534C13.2394 53.4685 13.3737 53.391 13.5449 53.3015L17.3859 59.0095C17.9518 58.513 18.2702 57.9066 18.341 57.1904C18.3971 56.4712 18.1929 55.7665 17.7284 55.0763C17.1627 54.2356 16.4239 53.7491 15.5121 53.617L15.8617 52.3596C16.4478 52.4281 16.999 52.6358 17.5152 52.9826C18.0255 53.3206 18.4772 53.7817 18.8702 54.3658C19.3705 55.1091 19.6637 55.8697 19.7499 56.6473C19.8272 57.431 19.6987 58.1667 19.3645 58.8545C19.0242 59.5335 18.509 60.1052 17.8187 60.5697C17.1373 61.0282 16.421 61.2917 15.6698 61.36C14.9127 61.4195 14.2051 61.285 13.5469 60.9565C12.8739 60.6251 12.3111 60.1231 11.8585 59.4505C11.406 58.778 11.1588 58.0764 11.1172 57.3458C11.0608 56.6124 11.2087 55.915 11.5608 55.2538C11.907 54.5837 12.4341 54.0104 13.1421 53.534ZM12.9338 58.727C13.3447 59.3376 13.8759 59.7258 14.5275 59.8916C15.1731 60.0486 15.8206 59.96 16.47 59.6259L13.4329 55.1126C12.8876 55.5824 12.5691 56.1503 12.4773 56.8163C12.3707 57.4795 12.5229 58.1164 12.9338 58.727Z" fill="#232C30"/>
</svg>
