<svg width="28" height="28" viewBox="0 0 28 28" fill="none" xmlns="http://www.w3.org/2000/svg">
<path d="M21.3218 7.562C21.1699 7.48345 21.0221 7.39734 20.8788 7.304C20.4625 7.02872 20.0807 6.7044 19.7418 6.338C18.8928 5.367 18.5758 4.382 18.4598 3.693H18.4638C18.3668 3.12 18.4068 2.75 18.4138 2.75H14.5488V17.693C14.5488 17.893 14.5488 18.092 14.5408 18.288C14.5408 18.312 14.5378 18.334 14.5368 18.361C14.5368 18.371 14.5368 18.383 14.5338 18.394V18.403C14.4932 18.939 14.3215 19.4568 14.0338 19.9109C13.7461 20.365 13.3512 20.7414 12.8838 21.007C12.3962 21.2844 11.8448 21.4298 11.2838 21.429C9.48381 21.429 8.02381 19.961 8.02381 18.148C8.02381 16.334 9.48381 14.866 11.2838 14.866C11.6248 14.866 11.9638 14.92 12.2878 15.026L12.2928 11.09C11.3088 10.9631 10.3092 11.0415 9.35704 11.3203C8.40489 11.5991 7.52088 12.0723 6.76081 12.71C6.09466 13.2885 5.53459 13.9789 5.10581 14.75C4.94281 15.031 4.32681 16.162 4.25281 17.996C4.20581 19.036 4.51881 20.116 4.66781 20.561V20.571C4.76081 20.833 5.12481 21.729 5.71681 22.484C6.1942 23.09 6.75825 23.6224 7.39081 24.064V24.054L7.39981 24.064C9.26981 25.334 11.3448 25.251 11.3448 25.251C11.7038 25.236 12.9068 25.251 14.2728 24.604C15.7878 23.886 16.6498 22.817 16.6498 22.817C17.2009 22.1781 17.6392 21.45 17.9458 20.664C18.2958 19.744 18.4118 18.642 18.4118 18.202V10.273C18.4588 10.301 19.0838 10.714 19.0838 10.714C19.0838 10.714 19.9838 11.291 21.3868 11.666C22.3928 11.933 23.7498 11.99 23.7498 11.99V8.153C23.2748 8.205 22.3098 8.055 21.3208 7.563L21.3218 7.562Z" fill="url(#paint0_linear_504_27890)"/>
<defs>
<linearGradient id="paint0_linear_504_27890" x1="22.1346" y1="0.394585" x2="4.197" y2="26.7362" gradientUnits="userSpaceOnUse">
<stop stop-color="#03637E"/>
<stop offset="0.932292" stop-color="#41AAC9"/>
</linearGradient>
</defs>
</svg>
