<svg width="28" height="28" viewBox="0 0 28 28" fill="none" xmlns="http://www.w3.org/2000/svg">
<g clip-path="url(#clip0_504_27900)">
<path d="M16.1214 16.1214C14.3929 17.905 14.2671 20.1286 14.1179 25C18.6593 25 21.7943 24.9843 23.4129 23.4129C24.9843 21.7943 25 18.51 25 14.1179C20.1286 14.275 17.905 14.3929 16.1214 16.1214V16.1214ZM3 14.1179C3 18.51 3.01571 21.7943 4.58714 23.4129C6.20571 24.9843 9.34071 25 13.8821 25C13.725 20.1286 13.6071 17.905 11.8786 16.1214C10.095 14.3929 7.87143 14.2671 3 14.1179V14.1179ZM13.8821 3C9.34857 3 6.20571 3.01571 4.58714 4.58714C3.01571 6.20571 3 9.49 3 13.8821C7.87143 13.725 10.095 13.6071 11.8786 11.8786C13.6071 10.095 13.7329 7.87143 13.8821 3V3ZM16.1214 11.8786C14.3929 10.095 14.2671 7.87143 14.1179 3C18.6593 3 21.7943 3.01571 23.4129 4.58714C24.9843 6.20571 25 9.49 25 13.8821C20.1286 13.725 17.905 13.6071 16.1214 11.8786" fill="#232C30"/>
<path d="M16.1214 16.1214C14.3929 17.905 14.2671 20.1286 14.1179 25C18.6593 25 21.7943 24.9843 23.4129 23.4129C24.9843 21.7943 25 18.51 25 14.1179C20.1286 14.275 17.905 14.3929 16.1214 16.1214V16.1214ZM3 14.1179C3 18.51 3.01571 21.7943 4.58714 23.4129C6.20571 24.9843 9.34071 25 13.8821 25C13.725 20.1286 13.6071 17.905 11.8786 16.1214C10.095 14.3929 7.87143 14.2671 3 14.1179V14.1179ZM13.8821 3C9.34857 3 6.20571 3.01571 4.58714 4.58714C3.01571 6.20571 3 9.49 3 13.8821C7.87143 13.725 10.095 13.6071 11.8786 11.8786C13.6071 10.095 13.7329 7.87143 13.8821 3V3ZM16.1214 11.8786C14.3929 10.095 14.2671 7.87143 14.1179 3C18.6593 3 21.7943 3.01571 23.4129 4.58714C24.9843 6.20571 25 9.49 25 13.8821C20.1286 13.725 17.905 13.6071 16.1214 11.8786" fill="url(#paint0_linear_504_27900)"/>
<path d="M25 14.1179V13.8821C20.1286 13.725 17.905 13.6071 16.1214 11.8786C14.3929 10.095 14.2671 7.87143 14.1179 3H13.8821C13.725 7.87143 13.6071 10.095 11.8786 11.8786C10.095 13.6071 7.87143 13.7329 3 13.8821V14.1179C7.87143 14.275 10.095 14.3929 11.8786 16.1214C13.6071 17.905 13.7329 20.1286 13.8821 25H14.1179C14.275 20.1286 14.3929 17.905 16.1214 16.1214C17.905 14.3929 20.1286 14.2671 25 14.1179" fill="white"/>
</g>
<defs>
<linearGradient id="paint0_linear_504_27900" x1="23.1779" y1="0.697143" x2="6.67786" y2="28.6555" gradientUnits="userSpaceOnUse">
<stop stop-color="#03637E"/>
<stop offset="0.932292" stop-color="#41AAC9"/>
</linearGradient>
<clipPath id="clip0_504_27900">
<rect width="22" height="22" fill="white" transform="translate(3 3)"/>
</clipPath>
</defs>
</svg>
