<svg width="28" height="28" viewBox="0 0 28 28" fill="none" xmlns="http://www.w3.org/2000/svg">
<g clip-path="url(#clip0_504_27894)">
<path d="M27.564 7.13183C27.2379 5.90408 26.2773 4.93719 25.0572 4.60905C22.8464 4.0127 13.9805 4.0127 13.9805 4.0127C13.9805 4.0127 5.11471 4.0127 2.90376 4.60905C1.68375 4.93719 0.722896 5.90408 0.397053 7.13183C-0.195312 9.35715 -0.195312 14.0003 -0.195312 14.0003C-0.195312 14.0003 -0.195312 18.6431 0.397053 20.8687C0.722896 22.0966 1.68375 23.0632 2.90364 23.3917C5.11459 23.9878 13.9804 23.9878 13.9804 23.9878C13.9804 23.9878 22.8463 23.9878 25.0571 23.3917C26.2771 23.0634 27.2377 22.0966 27.5638 20.8688C28.1563 18.6433 28.1563 14.0004 28.1563 14.0004C28.1563 14.0004 28.1563 9.35728 27.5638 7.13195" fill="white"/>
<path d="M27.564 7.13183C27.2379 5.90408 26.2773 4.93719 25.0572 4.60905C22.8464 4.0127 13.9805 4.0127 13.9805 4.0127C13.9805 4.0127 5.11471 4.0127 2.90376 4.60905C1.68375 4.93719 0.722896 5.90408 0.397053 7.13183C-0.195312 9.35715 -0.195312 14.0003 -0.195312 14.0003C-0.195312 14.0003 -0.195312 18.6431 0.397053 20.8687C0.722896 22.0966 1.68375 23.0632 2.90364 23.3917C5.11459 23.9878 13.9804 23.9878 13.9804 23.9878C13.9804 23.9878 22.8463 23.9878 25.0571 23.3917C26.2771 23.0634 27.2377 22.0966 27.5638 20.8688C28.1563 18.6433 28.1563 14.0004 28.1563 14.0004C28.1563 14.0004 28.1563 9.35728 27.5638 7.13195" fill="url(#paint0_linear_504_27894)"/>
<path d="M11.082 18.2153L18.4921 14L11.082 9.78418V18.2153Z" fill="white"/>
</g>
<defs>
<linearGradient id="paint0_linear_504_27894" x1="25.8081" y1="1.92179" x2="13.6745" y2="31.1032" gradientUnits="userSpaceOnUse">
<stop stop-color="#03637E"/>
<stop offset="0.932292" stop-color="#41AAC9"/>
</linearGradient>
<clipPath id="clip0_504_27894">
<rect width="28" height="20" fill="white" transform="translate(0 4)"/>
</clipPath>
</defs>
</svg>
