<svg width="28" height="28" viewBox="0 0 28 28" fill="none" xmlns="http://www.w3.org/2000/svg">
<path d="M13.9972 10.3318C11.9774 10.3318 10.329 11.9801 10.329 14C10.329 16.0199 11.9774 17.6682 13.9972 17.6682C16.0171 17.6682 17.6655 16.0199 17.6655 14C17.6655 11.9801 16.0171 10.3318 13.9972 10.3318ZM24.9992 14C24.9992 12.481 25.0129 10.9757 24.9276 9.45943C24.8423 7.69824 24.4406 6.13519 23.1527 4.84732C21.8621 3.55669 20.3018 3.15767 18.5406 3.07237C17.0215 2.98706 15.5163 3.00082 14 3.00082C12.481 3.00082 10.9757 2.98706 9.45943 3.07237C7.69824 3.15767 6.13519 3.55945 4.84732 4.84732C3.55669 6.13794 3.15767 7.69824 3.07237 9.45943C2.98706 10.9785 3.00082 12.4837 3.00082 14C3.00082 15.5163 2.98706 17.0243 3.07237 18.5406C3.15767 20.3018 3.55945 21.8648 4.84732 23.1527C6.13794 24.4433 7.69824 24.8423 9.45943 24.9276C10.9785 25.0129 12.4837 24.9992 14 24.9992C15.519 24.9992 17.0243 25.0129 18.5406 24.9276C20.3018 24.8423 21.8648 24.4406 23.1527 23.1527C24.4433 21.8621 24.8423 20.3018 24.9276 18.5406C25.0157 17.0243 24.9992 15.519 24.9992 14V14ZM13.9972 19.6441C10.8739 19.6441 8.35318 17.1234 8.35318 14C8.35318 10.8766 10.8739 8.35594 13.9972 8.35594C17.1206 8.35594 19.6413 10.8766 19.6413 14C19.6413 17.1234 17.1206 19.6441 13.9972 19.6441ZM19.8725 9.44292C19.1432 9.44292 18.5543 8.85402 18.5543 8.12478C18.5543 7.39554 19.1432 6.80664 19.8725 6.80664C20.6017 6.80664 21.1906 7.39554 21.1906 8.12478C21.1908 8.29794 21.1569 8.46945 21.0907 8.62947C21.0245 8.78949 20.9275 8.93489 20.805 9.05733C20.6826 9.17978 20.5372 9.27686 20.3772 9.34303C20.2171 9.40919 20.0456 9.44314 19.8725 9.44292V9.44292Z" fill="url(#paint0_linear_504_27896)"/>
<defs>
<linearGradient id="paint0_linear_504_27896" x1="23.1782" y1="0.697143" x2="6.67839" y2="28.6557" gradientUnits="userSpaceOnUse">
<stop stop-color="#03637E"/>
<stop offset="0.932292" stop-color="#41AAC9"/>
</linearGradient>
</defs>
</svg>
