<svg width="30" height="28" viewBox="0 0 30 28" fill="none" xmlns="http://www.w3.org/2000/svg">
<path d="M15.4755 1.54054L18.1167 9.66922C18.3175 10.2873 18.8934 10.7057 19.5433 10.7057L28.0903 10.7057C28.5746 10.7057 28.776 11.3255 28.3842 11.6102L21.4695 16.634C20.9438 17.016 20.7238 17.693 20.9246 18.3111L23.5658 26.4397C23.7154 26.9004 23.1882 27.2834 22.7963 26.9987L15.8817 21.975C15.3559 21.593 14.6441 21.593 14.1183 21.975L7.20366 26.9987C6.8118 27.2834 6.28456 26.9004 6.43424 26.4397L9.0754 18.3111C9.27621 17.693 9.05623 17.016 8.5305 16.634L1.61583 11.6102C1.22397 11.3255 1.42536 10.7057 1.90972 10.7057L10.4567 10.7057C11.1066 10.7057 11.6825 10.2873 11.8833 9.66922L14.5245 1.54054C14.6741 1.07989 15.3259 1.07989 15.4755 1.54054Z" stroke="#6E7477"/>
</svg>
