<svg width="335" height="166" viewBox="0 0 335 166" fill="none" xmlns="http://www.w3.org/2000/svg">
<path d="M6.952 114.6V123H6.088V115.368H4.108V114.6H6.952ZM12.3079 123.072C11.6599 123.072 11.0799 122.9 10.5679 122.556C10.0639 122.212 9.66794 121.72 9.37994 121.08C9.09994 120.432 8.95994 119.672 8.95994 118.8C8.95994 117.928 9.09994 117.172 9.37994 116.532C9.66794 115.884 10.0639 115.388 10.5679 115.044C11.0799 114.7 11.6599 114.528 12.3079 114.528C12.9559 114.528 13.5319 114.7 14.0359 115.044C14.5479 115.388 14.9479 115.884 15.2359 116.532C15.5239 117.172 15.6679 117.928 15.6679 118.8C15.6679 119.672 15.5239 120.432 15.2359 121.08C14.9479 121.72 14.5479 122.212 14.0359 122.556C13.5319 122.9 12.9559 123.072 12.3079 123.072ZM12.3079 122.28C12.7959 122.28 13.2239 122.144 13.5919 121.872C13.9679 121.6 14.2599 121.204 14.4679 120.684C14.6759 120.164 14.7799 119.536 14.7799 118.8C14.7799 118.064 14.6759 117.436 14.4679 116.916C14.2599 116.396 13.9679 116 13.5919 115.728C13.2239 115.456 12.7959 115.32 12.3079 115.32C11.8199 115.32 11.3879 115.456 11.0119 115.728C10.6439 116 10.3559 116.396 10.1479 116.916C9.93994 117.436 9.83594 118.064 9.83594 118.8C9.83594 119.536 9.93994 120.164 10.1479 120.684C10.3559 121.204 10.6439 121.6 11.0119 121.872C11.3879 122.144 11.8199 122.28 12.3079 122.28ZM20.2533 123.072C19.6053 123.072 19.0253 122.9 18.5133 122.556C18.0093 122.212 17.6133 121.72 17.3253 121.08C17.0453 120.432 16.9053 119.672 16.9053 118.8C16.9053 117.928 17.0453 117.172 17.3253 116.532C17.6133 115.884 18.0093 115.388 18.5133 115.044C19.0253 114.7 19.6053 114.528 20.2533 114.528C20.9013 114.528 21.4773 114.7 21.9813 115.044C22.4933 115.388 22.8933 115.884 23.1813 116.532C23.4693 117.172 23.6133 117.928 23.6133 118.8C23.6133 119.672 23.4693 120.432 23.1813 121.08C22.8933 121.72 22.4933 122.212 21.9813 122.556C21.4773 122.9 20.9013 123.072 20.2533 123.072ZM20.2533 122.28C20.7413 122.28 21.1693 122.144 21.5373 121.872C21.9133 121.6 22.2053 121.204 22.4133 120.684C22.6213 120.164 22.7253 119.536 22.7253 118.8C22.7253 118.064 22.6213 117.436 22.4133 116.916C22.2053 116.396 21.9133 116 21.5373 115.728C21.1693 115.456 20.7413 115.32 20.2533 115.32C19.7653 115.32 19.3333 115.456 18.9573 115.728C18.5893 116 18.3013 116.396 18.0933 116.916C17.8853 117.436 17.7812 118.064 17.7812 118.8C17.7812 119.536 17.8853 120.164 18.0933 120.684C18.3013 121.204 18.5893 121.6 18.9573 121.872C19.3333 122.144 19.7653 122.28 20.2533 122.28Z" fill="#6E7477"/>
<path d="M19.972 143.072C19.324 143.072 18.744 142.9 18.232 142.556C17.728 142.212 17.332 141.72 17.044 141.08C16.764 140.432 16.624 139.672 16.624 138.8C16.624 137.928 16.764 137.172 17.044 136.532C17.332 135.884 17.728 135.388 18.232 135.044C18.744 134.7 19.324 134.528 19.972 134.528C20.62 134.528 21.196 134.7 21.7 135.044C22.212 135.388 22.612 135.884 22.9 136.532C23.188 137.172 23.332 137.928 23.332 138.8C23.332 139.672 23.188 140.432 22.9 141.08C22.612 141.72 22.212 142.212 21.7 142.556C21.196 142.9 20.62 143.072 19.972 143.072ZM19.972 142.28C20.46 142.28 20.888 142.144 21.256 141.872C21.632 141.6 21.924 141.204 22.132 140.684C22.34 140.164 22.444 139.536 22.444 138.8C22.444 138.064 22.34 137.436 22.132 136.916C21.924 136.396 21.632 136 21.256 135.728C20.888 135.456 20.46 135.32 19.972 135.32C19.484 135.32 19.052 135.456 18.676 135.728C18.308 136 18.02 136.396 17.812 136.916C17.604 137.436 17.5 138.064 17.5 138.8C17.5 139.536 17.604 140.164 17.812 140.684C18.02 141.204 18.308 141.6 18.676 141.872C19.052 142.144 19.484 142.28 19.972 142.28Z" fill="#6E7477"/>
<path d="M8.36 102.232V103H2.468V102.388L5.96 98.968C6.4 98.536 6.696 98.164 6.848 97.852C7.008 97.532 7.088 97.212 7.088 96.892C7.088 96.396 6.916 96.012 6.572 95.74C6.236 95.46 5.752 95.32 5.12 95.32C4.136 95.32 3.372 95.632 2.828 96.256L2.216 95.728C2.544 95.344 2.96 95.048 3.464 94.84C3.976 94.632 4.552 94.528 5.192 94.528C6.048 94.528 6.724 94.732 7.22 95.14C7.724 95.54 7.976 96.092 7.976 96.796C7.976 97.228 7.88 97.644 7.688 98.044C7.496 98.444 7.132 98.904 6.596 99.424L3.74 102.232H8.36ZM12.7454 103.072C12.0974 103.072 11.5174 102.9 11.0054 102.556C10.5014 102.212 10.1054 101.72 9.81744 101.08C9.53744 100.432 9.39744 99.672 9.39744 98.8C9.39744 97.928 9.53744 97.172 9.81744 96.532C10.1054 95.884 10.5014 95.388 11.0054 95.044C11.5174 94.7 12.0974 94.528 12.7454 94.528C13.3934 94.528 13.9694 94.7 14.4734 95.044C14.9854 95.388 15.3854 95.884 15.6734 96.532C15.9614 97.172 16.1054 97.928 16.1054 98.8C16.1054 99.672 15.9614 100.432 15.6734 101.08C15.3854 101.72 14.9854 102.212 14.4734 102.556C13.9694 102.9 13.3934 103.072 12.7454 103.072ZM12.7454 102.28C13.2334 102.28 13.6614 102.144 14.0294 101.872C14.4054 101.6 14.6974 101.204 14.9054 100.684C15.1134 100.164 15.2174 99.536 15.2174 98.8C15.2174 98.064 15.1134 97.436 14.9054 96.916C14.6974 96.396 14.4054 96 14.0294 95.728C13.6614 95.456 13.2334 95.32 12.7454 95.32C12.2574 95.32 11.8254 95.456 11.4494 95.728C11.0814 96 10.7934 96.396 10.5854 96.916C10.3774 97.436 10.2734 98.064 10.2734 98.8C10.2734 99.536 10.3774 100.164 10.5854 100.684C10.7934 101.204 11.0814 101.6 11.4494 101.872C11.8254 102.144 12.2574 102.28 12.7454 102.28ZM20.6908 103.072C20.0428 103.072 19.4628 102.9 18.9508 102.556C18.4468 102.212 18.0508 101.72 17.7628 101.08C17.4828 100.432 17.3428 99.672 17.3428 98.8C17.3428 97.928 17.4828 97.172 17.7628 96.532C18.0508 95.884 18.4468 95.388 18.9508 95.044C19.4628 94.7 20.0428 94.528 20.6908 94.528C21.3388 94.528 21.9148 94.7 22.4188 95.044C22.9308 95.388 23.3308 95.884 23.6188 96.532C23.9068 97.172 24.0508 97.928 24.0508 98.8C24.0508 99.672 23.9068 100.432 23.6188 101.08C23.3308 101.72 22.9308 102.212 22.4188 102.556C21.9148 102.9 21.3388 103.072 20.6908 103.072ZM20.6908 102.28C21.1788 102.28 21.6068 102.144 21.9748 101.872C22.3508 101.6 22.6428 101.204 22.8508 100.684C23.0588 100.164 23.1628 99.536 23.1628 98.8C23.1628 98.064 23.0588 97.436 22.8508 96.916C22.6428 96.396 22.3508 96 21.9748 95.728C21.6068 95.456 21.1788 95.32 20.6908 95.32C20.2028 95.32 19.7708 95.456 19.3948 95.728C19.0268 96 18.7388 96.396 18.5308 96.916C18.3228 97.436 18.2188 98.064 18.2188 98.8C18.2188 99.536 18.3228 100.164 18.5308 100.684C18.7388 101.204 19.0268 101.6 19.3948 101.872C19.7708 102.144 20.2028 102.28 20.6908 102.28Z" fill="#6E7477"/>
<path d="M5.48 78.2C6.36 78.248 7.028 78.488 7.484 78.92C7.948 79.344 8.18 79.9 8.18 80.588C8.18 81.068 8.064 81.496 7.832 81.872C7.6 82.24 7.256 82.532 6.8 82.748C6.344 82.964 5.788 83.072 5.132 83.072C4.524 83.072 3.948 82.976 3.404 82.784C2.868 82.584 2.436 82.32 2.108 81.992L2.528 81.308C2.808 81.596 3.18 81.832 3.644 82.016C4.108 82.192 4.604 82.28 5.132 82.28C5.82 82.28 6.352 82.132 6.728 81.836C7.104 81.532 7.292 81.116 7.292 80.588C7.292 80.068 7.104 79.66 6.728 79.364C6.352 79.068 5.784 78.92 5.024 78.92H4.424V78.284L6.752 75.368H2.456V74.6H7.856V75.212L5.48 78.2ZM12.7454 83.072C12.0974 83.072 11.5174 82.9 11.0054 82.556C10.5014 82.212 10.1054 81.72 9.81744 81.08C9.53744 80.432 9.39744 79.672 9.39744 78.8C9.39744 77.928 9.53744 77.172 9.81744 76.532C10.1054 75.884 10.5014 75.388 11.0054 75.044C11.5174 74.7 12.0974 74.528 12.7454 74.528C13.3934 74.528 13.9694 74.7 14.4734 75.044C14.9854 75.388 15.3854 75.884 15.6734 76.532C15.9614 77.172 16.1054 77.928 16.1054 78.8C16.1054 79.672 15.9614 80.432 15.6734 81.08C15.3854 81.72 14.9854 82.212 14.4734 82.556C13.9694 82.9 13.3934 83.072 12.7454 83.072ZM12.7454 82.28C13.2334 82.28 13.6614 82.144 14.0294 81.872C14.4054 81.6 14.6974 81.204 14.9054 80.684C15.1134 80.164 15.2174 79.536 15.2174 78.8C15.2174 78.064 15.1134 77.436 14.9054 76.916C14.6974 76.396 14.4054 76 14.0294 75.728C13.6614 75.456 13.2334 75.32 12.7454 75.32C12.2574 75.32 11.8254 75.456 11.4494 75.728C11.0814 76 10.7934 76.396 10.5854 76.916C10.3774 77.436 10.2734 78.064 10.2734 78.8C10.2734 79.536 10.3774 80.164 10.5854 80.684C10.7934 81.204 11.0814 81.6 11.4494 81.872C11.8254 82.144 12.2574 82.28 12.7454 82.28ZM20.6908 83.072C20.0428 83.072 19.4628 82.9 18.9508 82.556C18.4468 82.212 18.0508 81.72 17.7628 81.08C17.4828 80.432 17.3428 79.672 17.3428 78.8C17.3428 77.928 17.4828 77.172 17.7628 76.532C18.0508 75.884 18.4468 75.388 18.9508 75.044C19.4628 74.7 20.0428 74.528 20.6908 74.528C21.3388 74.528 21.9148 74.7 22.4188 75.044C22.9308 75.388 23.3308 75.884 23.6188 76.532C23.9068 77.172 24.0508 77.928 24.0508 78.8C24.0508 79.672 23.9068 80.432 23.6188 81.08C23.3308 81.72 22.9308 82.212 22.4188 82.556C21.9148 82.9 21.3388 83.072 20.6908 83.072ZM20.6908 82.28C21.1788 82.28 21.6068 82.144 21.9748 81.872C22.3508 81.6 22.6428 81.204 22.8508 80.684C23.0588 80.164 23.1628 79.536 23.1628 78.8C23.1628 78.064 23.0588 77.436 22.8508 76.916C22.6428 76.396 22.3508 76 21.9748 75.728C21.6068 75.456 21.1788 75.32 20.6908 75.32C20.2028 75.32 19.7708 75.456 19.3948 75.728C19.0268 76 18.7388 76.396 18.5308 76.916C18.3228 77.436 18.2188 78.064 18.2188 78.8C18.2188 79.536 18.3228 80.164 18.5308 80.684C18.7388 81.204 19.0268 81.6 19.3948 81.872C19.7708 82.144 20.2028 82.28 20.6908 82.28Z" fill="#6E7477"/>
<path d="M7.764 60.792H6.084V63H5.22V60.792H0.48V60.168L4.932 54.6H5.892L1.596 60.024H5.244V58.08H6.084V60.024H7.764V60.792ZM11.9056 63.072C11.2576 63.072 10.6776 62.9 10.1656 62.556C9.66159 62.212 9.26559 61.72 8.97759 61.08C8.69759 60.432 8.55759 59.672 8.55759 58.8C8.55759 57.928 8.69759 57.172 8.97759 56.532C9.26559 55.884 9.66159 55.388 10.1656 55.044C10.6776 54.7 11.2576 54.528 11.9056 54.528C12.5536 54.528 13.1296 54.7 13.6336 55.044C14.1456 55.388 14.5456 55.884 14.8336 56.532C15.1216 57.172 15.2656 57.928 15.2656 58.8C15.2656 59.672 15.1216 60.432 14.8336 61.08C14.5456 61.72 14.1456 62.212 13.6336 62.556C13.1296 62.9 12.5536 63.072 11.9056 63.072ZM11.9056 62.28C12.3936 62.28 12.8216 62.144 13.1896 61.872C13.5656 61.6 13.8576 61.204 14.0656 60.684C14.2736 60.164 14.3776 59.536 14.3776 58.8C14.3776 58.064 14.2736 57.436 14.0656 56.916C13.8576 56.396 13.5656 56 13.1896 55.728C12.8216 55.456 12.3936 55.32 11.9056 55.32C11.4176 55.32 10.9856 55.456 10.6096 55.728C10.2416 56 9.95359 56.396 9.74559 56.916C9.53759 57.436 9.43359 58.064 9.43359 58.8C9.43359 59.536 9.53759 60.164 9.74559 60.684C9.95359 61.204 10.2416 61.6 10.6096 61.872C10.9856 62.144 11.4176 62.28 11.9056 62.28ZM19.8509 63.072C19.2029 63.072 18.6229 62.9 18.1109 62.556C17.6069 62.212 17.2109 61.72 16.9229 61.08C16.6429 60.432 16.5029 59.672 16.5029 58.8C16.5029 57.928 16.6429 57.172 16.9229 56.532C17.2109 55.884 17.6069 55.388 18.1109 55.044C18.6229 54.7 19.2029 54.528 19.8509 54.528C20.4989 54.528 21.0749 54.7 21.5789 55.044C22.0909 55.388 22.4909 55.884 22.7789 56.532C23.0669 57.172 23.2109 57.928 23.2109 58.8C23.2109 59.672 23.0669 60.432 22.7789 61.08C22.4909 61.72 22.0909 62.212 21.5789 62.556C21.0749 62.9 20.4989 63.072 19.8509 63.072ZM19.8509 62.28C20.3389 62.28 20.7669 62.144 21.1349 61.872C21.5109 61.6 21.8029 61.204 22.0109 60.684C22.2189 60.164 22.3229 59.536 22.3229 58.8C22.3229 58.064 22.2189 57.436 22.0109 56.916C21.8029 56.396 21.5109 56 21.1349 55.728C20.7669 55.456 20.3389 55.32 19.8509 55.32C19.3629 55.32 18.9309 55.456 18.5549 55.728C18.1869 56 17.8989 56.396 17.6909 56.916C17.4829 57.436 17.3789 58.064 17.3789 58.8C17.3789 59.536 17.4829 60.164 17.6909 60.684C17.8989 61.204 18.1869 61.6 18.5549 61.872C18.9309 62.144 19.3629 62.28 19.8509 62.28Z" fill="#6E7477"/>
<path d="M4.832 38.044C6.048 38.044 6.932 38.264 7.484 38.704C8.044 39.136 8.324 39.744 8.324 40.528C8.324 41.016 8.208 41.452 7.976 41.836C7.752 42.22 7.412 42.524 6.956 42.748C6.5 42.964 5.94 43.072 5.276 43.072C4.676 43.072 4.104 42.976 3.56 42.784C3.024 42.584 2.592 42.32 2.264 41.992L2.684 41.308C2.964 41.596 3.332 41.832 3.788 42.016C4.244 42.192 4.736 42.28 5.264 42.28C5.96 42.28 6.496 42.124 6.872 41.812C7.256 41.5 7.448 41.084 7.448 40.564C7.448 39.988 7.232 39.552 6.8 39.256C6.376 38.96 5.656 38.812 4.64 38.812H2.852L3.284 34.6H7.88V35.368H4.04L3.752 38.044H4.832ZM12.7689 43.072C12.1209 43.072 11.5409 42.9 11.0289 42.556C10.5249 42.212 10.1289 41.72 9.84088 41.08C9.56088 40.432 9.42088 39.672 9.42088 38.8C9.42088 37.928 9.56088 37.172 9.84088 36.532C10.1289 35.884 10.5249 35.388 11.0289 35.044C11.5409 34.7 12.1209 34.528 12.7689 34.528C13.4169 34.528 13.9929 34.7 14.4969 35.044C15.0089 35.388 15.4089 35.884 15.6969 36.532C15.9849 37.172 16.1289 37.928 16.1289 38.8C16.1289 39.672 15.9849 40.432 15.6969 41.08C15.4089 41.72 15.0089 42.212 14.4969 42.556C13.9929 42.9 13.4169 43.072 12.7689 43.072ZM12.7689 42.28C13.2569 42.28 13.6849 42.144 14.0529 41.872C14.4289 41.6 14.7209 41.204 14.9289 40.684C15.1369 40.164 15.2409 39.536 15.2409 38.8C15.2409 38.064 15.1369 37.436 14.9289 36.916C14.7209 36.396 14.4289 36 14.0529 35.728C13.6849 35.456 13.2569 35.32 12.7689 35.32C12.2809 35.32 11.8489 35.456 11.4729 35.728C11.1049 36 10.8169 36.396 10.6089 36.916C10.4009 37.436 10.2969 38.064 10.2969 38.8C10.2969 39.536 10.4009 40.164 10.6089 40.684C10.8169 41.204 11.1049 41.6 11.4729 41.872C11.8489 42.144 12.2809 42.28 12.7689 42.28ZM20.7142 43.072C20.0662 43.072 19.4862 42.9 18.9742 42.556C18.4702 42.212 18.0742 41.72 17.7862 41.08C17.5062 40.432 17.3662 39.672 17.3662 38.8C17.3662 37.928 17.5062 37.172 17.7862 36.532C18.0742 35.884 18.4702 35.388 18.9742 35.044C19.4862 34.7 20.0662 34.528 20.7142 34.528C21.3622 34.528 21.9382 34.7 22.4422 35.044C22.9542 35.388 23.3542 35.884 23.6422 36.532C23.9302 37.172 24.0742 37.928 24.0742 38.8C24.0742 39.672 23.9302 40.432 23.6422 41.08C23.3542 41.72 22.9542 42.212 22.4422 42.556C21.9382 42.9 21.3622 43.072 20.7142 43.072ZM20.7142 42.28C21.2022 42.28 21.6302 42.144 21.9982 41.872C22.3742 41.6 22.6662 41.204 22.8742 40.684C23.0822 40.164 23.1862 39.536 23.1862 38.8C23.1862 38.064 23.0822 37.436 22.8742 36.916C22.6662 36.396 22.3742 36 21.9982 35.728C21.6302 35.456 21.2022 35.32 20.7142 35.32C20.2262 35.32 19.7942 35.456 19.4182 35.728C19.0502 36 18.7622 36.396 18.5542 36.916C18.3462 37.436 18.2422 38.064 18.2422 38.8C18.2422 39.536 18.3462 40.164 18.5542 40.684C18.7622 41.204 19.0502 41.6 19.4182 41.872C19.7942 42.144 20.2262 42.28 20.7142 42.28Z" fill="#6E7477"/>
<g clip-path="url(#clip0_508_22276)">
<g filter="url(#filter0_ii_508_22276)">
<rect x="27.9268" y="21.7631" width="307.074" height="123.474" rx="20" fill="#F6FAFB"/>
</g>
<path d="M70.1342 101.913L27.9268 81.3081V146.31L397.274 145.271V98.9794L351.404 76.3319C335.187 68.3252 316.176 68.2855 299.926 76.2243L268.152 91.7474C251.784 99.7438 232.622 99.6426 216.34 91.4738L206.15 86.3618C189.995 78.2569 170.998 78.0907 154.703 85.9115L121.013 102.082C104.919 109.807 86.1762 109.744 70.1342 101.913Z" fill="url(#paint0_linear_508_22276)" stroke="#036F8C" stroke-width="0.5167"/>
<path d="M69.8156 78.6964L20.8316 105.717L19.3369 155.973L397.274 154.688V67.1505C391.308 75.2236 379.632 76.2785 372.316 69.4054L349.744 48.2014C335.16 34.5008 313.2 32.2825 296.171 42.7896L216.098 92.1939C199.077 102.696 177.865 103.755 159.882 95.0002L123.575 77.3243C106.498 69.011 86.4455 69.5228 69.8156 78.6964Z" fill="url(#paint1_linear_508_22276)" stroke="#E6644D" stroke-width="0.5167"/>
<circle cx="174.823" cy="80.0211" r="5.167" fill="#036F8C"/>
</g>
<g filter="url(#filter1_dd_508_22276)">
<path d="M89 24.6366C89 17.1053 95.1053 11 102.637 11H247.184C254.715 11 260.821 17.1053 260.821 24.6366V52.5915C260.821 60.1227 254.715 66.228 247.184 66.228H217.865L176.628 71.4645C175.487 71.6094 174.333 71.6094 173.192 71.4645L131.955 66.228H102.637C95.1053 66.228 89 60.1227 89 52.5915V24.6366Z" fill="white"/>
</g>
<path d="M100.31 37.2344V36.0164L104.202 32.3204C104.529 32.0124 104.772 31.7417 104.93 31.5084C105.089 31.275 105.192 31.0604 105.238 30.8644C105.294 30.659 105.322 30.4677 105.322 30.2904C105.322 29.8424 105.168 29.497 104.86 29.2544C104.552 29.0024 104.1 28.8764 103.502 28.8764C103.026 28.8764 102.592 28.9604 102.2 29.1284C101.818 29.2964 101.486 29.553 101.206 29.8984L99.9323 28.9184C100.315 28.405 100.828 28.0084 101.472 27.7284C102.126 27.439 102.854 27.2944 103.656 27.2944C104.366 27.2944 104.982 27.411 105.504 27.6444C106.036 27.8684 106.442 28.1904 106.722 28.6104C107.012 29.0304 107.156 29.5297 107.156 30.1084C107.156 30.4257 107.114 30.743 107.03 31.0604C106.946 31.3684 106.788 31.695 106.554 32.0404C106.321 32.3857 105.98 32.773 105.532 33.2024L102.186 36.3804L101.808 35.6944H107.534V37.2344H100.31ZM112.519 37.3744C111.707 37.3744 111.002 37.253 110.405 37.0104C109.807 36.7677 109.345 36.427 109.019 35.9884C108.692 35.5404 108.529 35.0177 108.529 34.4204C108.529 33.823 108.687 33.319 109.005 32.9084C109.322 32.4977 109.779 32.185 110.377 31.9704C110.974 31.7557 111.688 31.6484 112.519 31.6484C113.349 31.6484 114.063 31.7557 114.661 31.9704C115.267 32.185 115.729 32.5024 116.047 32.9224C116.373 33.333 116.537 33.8324 116.537 34.4204C116.537 35.0177 116.369 35.5404 116.033 35.9884C115.706 36.427 115.239 36.7677 114.633 37.0104C114.035 37.253 113.331 37.3744 112.519 37.3744ZM112.519 35.9464C113.191 35.9464 113.723 35.8064 114.115 35.5264C114.507 35.2464 114.703 34.859 114.703 34.3644C114.703 33.879 114.507 33.4964 114.115 33.2164C113.723 32.9364 113.191 32.7964 112.519 32.7964C111.847 32.7964 111.319 32.9364 110.937 33.2164C110.554 33.4964 110.363 33.879 110.363 34.3644C110.363 34.859 110.554 35.2464 110.937 35.5264C111.319 35.8064 111.847 35.9464 112.519 35.9464ZM112.519 32.6004C111.763 32.6004 111.114 32.5024 110.573 32.3064C110.031 32.101 109.611 31.807 109.313 31.4244C109.023 31.0324 108.879 30.5657 108.879 30.0244C108.879 29.4644 109.028 28.9837 109.327 28.5824C109.635 28.1717 110.064 27.8544 110.615 27.6304C111.165 27.4064 111.8 27.2944 112.519 27.2944C113.247 27.2944 113.886 27.4064 114.437 27.6304C114.987 27.8544 115.417 28.1717 115.725 28.5824C116.033 28.9837 116.187 29.4644 116.187 30.0244C116.187 30.5657 116.037 31.0324 115.739 31.4244C115.449 31.807 115.029 32.101 114.479 32.3064C113.928 32.5024 113.275 32.6004 112.519 32.6004ZM112.519 31.4804C113.097 31.4804 113.555 31.359 113.891 31.1164C114.227 30.8644 114.395 30.5284 114.395 30.1084C114.395 29.6697 114.222 29.329 113.877 29.0864C113.531 28.8437 113.079 28.7224 112.519 28.7224C111.959 28.7224 111.511 28.8437 111.175 29.0864C110.839 29.329 110.671 29.6697 110.671 30.1084C110.671 30.5284 110.834 30.8644 111.161 31.1164C111.497 31.359 111.949 31.4804 112.519 31.4804ZM121.806 37.3744C121.031 37.3744 120.331 37.1784 119.706 36.7864C119.09 36.3944 118.604 35.825 118.25 35.0784C117.895 34.3224 117.718 33.4077 117.718 32.3344C117.718 31.261 117.895 30.351 118.25 29.6044C118.604 28.8484 119.09 28.2744 119.706 27.8824C120.331 27.4904 121.031 27.2944 121.806 27.2944C122.59 27.2944 123.29 27.4904 123.906 27.8824C124.522 28.2744 125.007 28.8484 125.362 29.6044C125.726 30.351 125.908 31.261 125.908 32.3344C125.908 33.4077 125.726 34.3224 125.362 35.0784C125.007 35.825 124.522 36.3944 123.906 36.7864C123.29 37.1784 122.59 37.3744 121.806 37.3744ZM121.806 35.7924C122.263 35.7924 122.66 35.671 122.996 35.4284C123.332 35.1764 123.593 34.7937 123.78 34.2804C123.976 33.767 124.074 33.1184 124.074 32.3344C124.074 31.541 123.976 30.8924 123.78 30.3884C123.593 29.875 123.332 29.497 122.996 29.2544C122.66 29.0024 122.263 28.8764 121.806 28.8764C121.367 28.8764 120.975 29.0024 120.63 29.2544C120.294 29.497 120.028 29.875 119.832 30.3884C119.645 30.8924 119.552 31.541 119.552 32.3344C119.552 33.1184 119.645 33.767 119.832 34.2804C120.028 34.7937 120.294 35.1764 120.63 35.4284C120.975 35.671 121.367 35.7924 121.806 35.7924ZM134.233 34.7024C133.929 34.8464 133.605 34.9664 133.261 35.0624C132.925 35.1504 132.569 35.1944 132.193 35.1944C131.385 35.1944 130.757 35.0064 130.309 34.6304C129.861 34.2544 129.637 33.6704 129.637 32.8784V30.8264H131.137V32.7824C131.137 33.2064 131.257 33.5144 131.497 33.7064C131.745 33.8984 132.085 33.9944 132.517 33.9944C132.805 33.9944 133.093 33.9584 133.381 33.8864C133.669 33.8144 133.953 33.7144 134.233 33.5864V34.7024ZM134.125 37.2344V30.8264H135.625V37.2344H134.125ZM140.631 37.3184C139.919 37.3184 139.295 37.1784 138.759 36.8984C138.231 36.6104 137.819 36.2184 137.523 35.7224C137.235 35.2264 137.091 34.6624 137.091 34.0304C137.091 33.3904 137.231 32.8264 137.511 32.3384C137.799 31.8424 138.191 31.4544 138.687 31.1744C139.191 30.8944 139.763 30.7544 140.403 30.7544C141.027 30.7544 141.583 30.8904 142.071 31.1624C142.559 31.4344 142.943 31.8184 143.223 32.3144C143.503 32.8104 143.643 33.3944 143.643 34.0664C143.643 34.1304 143.639 34.2024 143.631 34.2824C143.631 34.3624 143.627 34.4384 143.619 34.5104H138.279V33.5144H142.827L142.239 33.8264C142.247 33.4584 142.171 33.1344 142.011 32.8544C141.851 32.5744 141.631 32.3544 141.351 32.1944C141.079 32.0344 140.763 31.9544 140.403 31.9544C140.035 31.9544 139.711 32.0344 139.431 32.1944C139.159 32.3544 138.943 32.5784 138.783 32.8664C138.631 33.1464 138.555 33.4784 138.555 33.8624V34.1024C138.555 34.4864 138.643 34.8264 138.819 35.1224C138.995 35.4184 139.243 35.6464 139.563 35.8064C139.883 35.9664 140.251 36.0464 140.667 36.0464C141.027 36.0464 141.351 35.9904 141.639 35.8784C141.927 35.7664 142.183 35.5904 142.407 35.3504L143.211 36.2744C142.923 36.6104 142.559 36.8704 142.119 37.0544C141.687 37.2304 141.191 37.3184 140.631 37.3184ZM144.265 37.2224L144.337 35.9624C144.393 35.9704 144.445 35.9784 144.493 35.9864C144.541 35.9944 144.585 35.9984 144.625 35.9984C144.873 35.9984 145.065 35.9224 145.201 35.7704C145.337 35.6184 145.437 35.4144 145.501 35.1584C145.573 34.8944 145.621 34.6024 145.645 34.2824C145.677 33.9544 145.701 33.6264 145.717 33.2984L145.825 30.8264H151.009V37.2344H149.509V31.6904L149.857 32.0984H146.809L147.133 31.6784L147.049 33.3704C147.025 33.9384 146.977 34.4664 146.905 34.9544C146.841 35.4344 146.737 35.8544 146.593 36.2144C146.457 36.5744 146.265 36.8544 146.017 37.0544C145.777 37.2544 145.469 37.3544 145.093 37.3544C144.973 37.3544 144.841 37.3424 144.697 37.3184C144.561 37.2944 144.417 37.2624 144.265 37.2224ZM155.885 37.3184C155.229 37.3184 154.645 37.1784 154.133 36.8984C153.621 36.6104 153.217 36.2184 152.921 35.7224C152.625 35.2264 152.477 34.6624 152.477 34.0304C152.477 33.3904 152.625 32.8264 152.921 32.3384C153.217 31.8424 153.621 31.4544 154.133 31.1744C154.645 30.8944 155.229 30.7544 155.885 30.7544C156.549 30.7544 157.137 30.8944 157.649 31.1744C158.169 31.4544 158.573 31.8384 158.861 32.3264C159.157 32.8144 159.305 33.3824 159.305 34.0304C159.305 34.6624 159.157 35.2264 158.861 35.7224C158.573 36.2184 158.169 36.6104 157.649 36.8984C157.137 37.1784 156.549 37.3184 155.885 37.3184ZM155.885 36.0344C156.253 36.0344 156.581 35.9544 156.869 35.7944C157.157 35.6344 157.381 35.4024 157.541 35.0984C157.709 34.7944 157.793 34.4384 157.793 34.0304C157.793 33.6144 157.709 33.2584 157.541 32.9624C157.381 32.6584 157.157 32.4264 156.869 32.2664C156.581 32.1064 156.257 32.0264 155.897 32.0264C155.529 32.0264 155.201 32.1064 154.913 32.2664C154.633 32.4264 154.409 32.6584 154.241 32.9624C154.073 33.2584 153.989 33.6144 153.989 34.0304C153.989 34.4384 154.073 34.7944 154.241 35.0984C154.409 35.4024 154.633 35.6344 154.913 35.7944C155.201 35.9544 155.525 36.0344 155.885 36.0344ZM160.787 37.2344V30.8264H163.919C164.695 30.8264 165.303 30.9704 165.743 31.2584C166.191 31.5464 166.415 31.9544 166.415 32.4824C166.415 33.0024 166.207 33.4104 165.791 33.7064C165.375 33.9944 164.823 34.1384 164.135 34.1384L164.315 33.7664C165.091 33.7664 165.667 33.9104 166.043 34.1984C166.427 34.4784 166.619 34.8904 166.619 35.4344C166.619 36.0024 166.407 36.4464 165.983 36.7664C165.559 37.0784 164.915 37.2344 164.051 37.2344H160.787ZM162.215 36.1424H163.931C164.339 36.1424 164.647 36.0784 164.855 35.9504C165.063 35.8144 165.167 35.6104 165.167 35.3384C165.167 35.0504 165.071 34.8384 164.879 34.7024C164.687 34.5664 164.387 34.4984 163.979 34.4984H162.215V36.1424ZM162.215 33.5024H163.787C164.171 33.5024 164.459 33.4344 164.651 33.2984C164.851 33.1544 164.951 32.9544 164.951 32.6984C164.951 32.4344 164.851 32.2384 164.651 32.1104C164.459 31.9824 164.171 31.9184 163.787 31.9184H162.215V33.5024ZM171.205 37.3184C170.493 37.3184 169.869 37.1784 169.333 36.8984C168.805 36.6104 168.393 36.2184 168.097 35.7224C167.809 35.2264 167.665 34.6624 167.665 34.0304C167.665 33.3904 167.805 32.8264 168.085 32.3384C168.373 31.8424 168.765 31.4544 169.261 31.1744C169.765 30.8944 170.337 30.7544 170.977 30.7544C171.601 30.7544 172.157 30.8904 172.645 31.1624C173.133 31.4344 173.517 31.8184 173.797 32.3144C174.077 32.8104 174.217 33.3944 174.217 34.0664C174.217 34.1304 174.213 34.2024 174.205 34.2824C174.205 34.3624 174.201 34.4384 174.193 34.5104H168.853V33.5144H173.401L172.813 33.8264C172.821 33.4584 172.745 33.1344 172.585 32.8544C172.425 32.5744 172.205 32.3544 171.925 32.1944C171.653 32.0344 171.337 31.9544 170.977 31.9544C170.609 31.9544 170.285 32.0344 170.005 32.1944C169.733 32.3544 169.517 32.5784 169.357 32.8664C169.205 33.1464 169.129 33.4784 169.129 33.8624V34.1024C169.129 34.4864 169.217 34.8264 169.393 35.1224C169.569 35.4184 169.817 35.6464 170.137 35.8064C170.457 35.9664 170.825 36.0464 171.241 36.0464C171.601 36.0464 171.925 35.9904 172.213 35.8784C172.501 35.7664 172.757 35.5904 172.981 35.3504L173.785 36.2744C173.497 36.6104 173.133 36.8704 172.693 37.0544C172.261 37.2304 171.765 37.3184 171.205 37.3184ZM180.453 37.2344L178.137 34.1624L179.361 33.4064L182.217 37.2344H180.453ZM175.857 37.2344V30.8264H177.357V37.2344H175.857ZM176.913 34.6664V33.4184H179.085V34.6664H176.913ZM179.505 34.2104L178.101 34.0424L180.453 30.8264H182.061L179.505 34.2104Z" fill="#036F8C"/>
<path d="M100.762 46.27H101.614V51.286L105.826 46.27H106.582V52.582H105.73V47.566L101.53 52.582H100.762V46.27ZM111.967 49.294C112.415 49.398 112.759 49.578 112.999 49.834C113.247 50.09 113.371 50.402 113.371 50.77C113.371 51.138 113.243 51.466 112.987 51.754C112.739 52.042 112.399 52.266 111.967 52.426C111.535 52.578 111.059 52.654 110.539 52.654C110.083 52.654 109.635 52.59 109.195 52.462C108.755 52.326 108.371 52.13 108.043 51.874L108.331 51.238C108.619 51.454 108.955 51.622 109.339 51.742C109.723 51.862 110.111 51.922 110.503 51.922C111.087 51.922 111.563 51.814 111.931 51.598C112.307 51.374 112.495 51.074 112.495 50.698C112.495 50.362 112.343 50.102 112.039 49.918C111.735 49.726 111.319 49.63 110.791 49.63H109.711V49.006H110.743C111.215 49.006 111.595 48.918 111.883 48.742C112.171 48.558 112.315 48.314 112.315 48.01C112.315 47.674 112.151 47.41 111.823 47.218C111.503 47.026 111.083 46.93 110.563 46.93C109.883 46.93 109.211 47.102 108.547 47.446L108.307 46.786C109.059 46.394 109.839 46.198 110.647 46.198C111.127 46.198 111.559 46.27 111.943 46.414C112.335 46.55 112.639 46.746 112.855 47.002C113.079 47.258 113.191 47.554 113.191 47.89C113.191 48.21 113.079 48.494 112.855 48.742C112.639 48.99 112.343 49.174 111.967 49.294ZM118.365 46.426C118.949 46.426 119.469 46.558 119.925 46.822C120.389 47.078 120.749 47.442 121.005 47.914C121.261 48.378 121.389 48.91 121.389 49.51C121.389 50.126 121.253 50.674 120.981 51.154C120.717 51.626 120.345 51.994 119.865 52.258C119.385 52.522 118.833 52.654 118.209 52.654C117.161 52.654 116.349 52.286 115.773 51.55C115.197 50.814 114.909 49.798 114.909 48.502C114.909 47.15 115.165 46.114 115.677 45.394C116.197 44.674 117.005 44.186 118.101 43.93L120.933 43.282L121.077 44.062L118.413 44.674C117.509 44.874 116.845 45.23 116.421 45.742C115.997 46.246 115.765 46.994 115.725 47.986C115.981 47.498 116.337 47.118 116.793 46.846C117.249 46.566 117.773 46.426 118.365 46.426ZM118.233 51.946C118.673 51.946 119.065 51.846 119.409 51.646C119.761 51.438 120.033 51.15 120.225 50.782C120.425 50.414 120.525 49.998 120.525 49.534C120.525 49.07 120.429 48.662 120.237 48.31C120.045 47.958 119.773 47.686 119.421 47.494C119.077 47.294 118.681 47.194 118.233 47.194C117.785 47.194 117.385 47.294 117.033 47.494C116.689 47.686 116.417 47.958 116.217 48.31C116.025 48.662 115.929 49.07 115.929 49.534C115.929 49.998 116.025 50.414 116.217 50.782C116.417 51.15 116.693 51.438 117.045 51.646C117.397 51.846 117.793 51.946 118.233 51.946ZM125.352 46.222C126.176 46.222 126.808 46.43 127.248 46.846C127.688 47.254 127.908 47.862 127.908 48.67V52.582H127.092V51.598C126.9 51.926 126.616 52.182 126.24 52.366C125.872 52.55 125.432 52.642 124.92 52.642C124.216 52.642 123.656 52.474 123.24 52.138C122.824 51.802 122.616 51.358 122.616 50.806C122.616 50.27 122.808 49.838 123.192 49.51C123.584 49.182 124.204 49.018 125.052 49.018H127.056V48.634C127.056 48.09 126.904 47.678 126.6 47.398C126.296 47.11 125.852 46.966 125.268 46.966C124.868 46.966 124.484 47.034 124.116 47.17C123.748 47.298 123.432 47.478 123.168 47.71L122.784 47.074C123.104 46.802 123.488 46.594 123.936 46.45C124.384 46.298 124.856 46.222 125.352 46.222ZM125.052 51.97C125.532 51.97 125.944 51.862 126.288 51.646C126.632 51.422 126.888 51.102 127.056 50.686V49.654H125.076C123.996 49.654 123.456 50.03 123.456 50.782C123.456 51.15 123.596 51.442 123.876 51.658C124.156 51.866 124.548 51.97 125.052 51.97ZM134.196 49.318C135.052 49.518 135.48 50.034 135.48 50.866C135.48 51.418 135.276 51.842 134.868 52.138C134.46 52.434 133.852 52.582 133.044 52.582H130.176V46.27H132.96C133.68 46.27 134.244 46.41 134.652 46.69C135.06 46.97 135.264 47.37 135.264 47.89C135.264 48.234 135.168 48.53 134.976 48.778C134.792 49.018 134.532 49.198 134.196 49.318ZM131.004 49.078H132.9C133.388 49.078 133.76 48.986 134.016 48.802C134.28 48.618 134.412 48.35 134.412 47.998C134.412 47.646 134.28 47.382 134.016 47.206C133.76 47.03 133.388 46.942 132.9 46.942H131.004V49.078ZM133.008 51.91C133.552 51.91 133.96 51.822 134.232 51.646C134.504 51.47 134.64 51.194 134.64 50.818C134.64 50.442 134.516 50.166 134.268 49.99C134.02 49.806 133.628 49.714 133.092 49.714H131.004V51.91H133.008ZM137.477 46.27H138.329V51.286L142.541 46.27H143.297V52.582H142.445V47.566L138.245 52.582H137.477V46.27ZM150.898 46.27V52.582H150.046V47.026H147.022L146.938 48.586C146.874 49.898 146.722 50.906 146.482 51.61C146.242 52.314 145.814 52.666 145.198 52.666C145.03 52.666 144.826 52.634 144.586 52.57L144.646 51.838C144.79 51.87 144.89 51.886 144.946 51.886C145.274 51.886 145.522 51.734 145.69 51.43C145.858 51.126 145.97 50.75 146.026 50.302C146.082 49.854 146.13 49.262 146.17 48.526L146.278 46.27H150.898ZM153.32 46.27H154.172V51.286L158.384 46.27H159.14V52.582H158.288V47.566L154.088 52.582H153.32V46.27ZM164.222 52.642C163.598 52.642 163.038 52.506 162.542 52.234C162.054 51.962 161.67 51.582 161.39 51.094C161.11 50.598 160.97 50.042 160.97 49.426C160.97 48.81 161.11 48.258 161.39 47.77C161.67 47.282 162.054 46.902 162.542 46.63C163.038 46.358 163.598 46.222 164.222 46.222C164.766 46.222 165.25 46.33 165.674 46.546C166.106 46.754 166.446 47.062 166.694 47.47L166.058 47.902C165.85 47.59 165.586 47.358 165.266 47.206C164.946 47.046 164.598 46.966 164.222 46.966C163.766 46.966 163.354 47.07 162.986 47.278C162.626 47.478 162.342 47.766 162.134 48.142C161.934 48.518 161.834 48.946 161.834 49.426C161.834 49.914 161.934 50.346 162.134 50.722C162.342 51.09 162.626 51.378 162.986 51.586C163.354 51.786 163.766 51.886 164.222 51.886C164.598 51.886 164.946 51.81 165.266 51.658C165.586 51.506 165.85 51.274 166.058 50.962L166.694 51.394C166.446 51.802 166.106 52.114 165.674 52.33C165.242 52.538 164.758 52.642 164.222 52.642ZM171.056 48.502C171.848 48.51 172.448 48.686 172.856 49.03C173.272 49.374 173.48 49.87 173.48 50.518C173.48 51.19 173.256 51.706 172.808 52.066C172.368 52.426 171.728 52.602 170.888 52.594L168.344 52.582V46.27H169.196V48.478L171.056 48.502ZM170.84 51.946C171.424 51.954 171.864 51.838 172.16 51.598C172.464 51.35 172.616 50.99 172.616 50.518C172.616 50.054 172.468 49.71 172.172 49.486C171.876 49.262 171.432 49.146 170.84 49.138L169.196 49.114V51.922L170.84 51.946ZM180.85 52.642C180.242 52.642 179.694 52.506 179.206 52.234C178.718 51.954 178.334 51.57 178.054 51.082C177.774 50.594 177.634 50.042 177.634 49.426C177.634 48.81 177.774 48.258 178.054 47.77C178.334 47.282 178.718 46.902 179.206 46.63C179.694 46.358 180.242 46.222 180.85 46.222C181.458 46.222 182.006 46.358 182.494 46.63C182.982 46.902 183.362 47.282 183.634 47.77C183.914 48.258 184.054 48.81 184.054 49.426C184.054 50.042 183.914 50.594 183.634 51.082C183.362 51.57 182.982 51.954 182.494 52.234C182.006 52.506 181.458 52.642 180.85 52.642ZM180.85 51.886C181.298 51.886 181.698 51.786 182.05 51.586C182.41 51.378 182.69 51.086 182.89 50.71C183.09 50.334 183.19 49.906 183.19 49.426C183.19 48.946 183.09 48.518 182.89 48.142C182.69 47.766 182.41 47.478 182.05 47.278C181.698 47.07 181.298 46.966 180.85 46.966C180.402 46.966 179.998 47.07 179.638 47.278C179.286 47.478 179.006 47.766 178.798 48.142C178.598 48.518 178.498 48.946 178.498 49.426C178.498 49.906 178.598 50.334 178.798 50.71C179.006 51.086 179.286 51.378 179.638 51.586C179.998 51.786 180.402 51.886 180.85 51.886ZM190.081 47.026H187.693V52.582H186.841V47.026H184.453V46.27H190.081V47.026ZM196.625 46.222C197.449 46.222 198.081 46.43 198.521 46.846C198.961 47.254 199.181 47.862 199.181 48.67V52.582H198.365V51.598C198.173 51.926 197.889 52.182 197.513 52.366C197.145 52.55 196.705 52.642 196.193 52.642C195.489 52.642 194.929 52.474 194.513 52.138C194.097 51.802 193.889 51.358 193.889 50.806C193.889 50.27 194.081 49.838 194.465 49.51C194.857 49.182 195.477 49.018 196.325 49.018H198.329V48.634C198.329 48.09 198.177 47.678 197.873 47.398C197.569 47.11 197.125 46.966 196.541 46.966C196.141 46.966 195.757 47.034 195.389 47.17C195.021 47.298 194.705 47.478 194.441 47.71L194.057 47.074C194.377 46.802 194.761 46.594 195.209 46.45C195.657 46.298 196.129 46.222 196.625 46.222ZM196.325 51.97C196.805 51.97 197.217 51.862 197.561 51.646C197.905 51.422 198.161 51.102 198.329 50.686V49.654H196.349C195.269 49.654 194.729 50.03 194.729 50.782C194.729 51.15 194.869 51.442 195.149 51.658C195.429 51.866 195.821 51.97 196.325 51.97ZM206.609 46.27V52.582H205.757V47.026H202.733L202.649 48.586C202.585 49.898 202.433 50.906 202.193 51.61C201.953 52.314 201.525 52.666 200.909 52.666C200.741 52.666 200.537 52.634 200.297 52.57L200.357 51.838C200.501 51.87 200.601 51.886 200.657 51.886C200.985 51.886 201.233 51.734 201.401 51.43C201.569 51.126 201.681 50.75 201.737 50.302C201.793 49.854 201.841 49.262 201.881 48.526L201.989 46.27H206.609ZM211.323 49.774H209.883V52.582H209.031V46.27H209.883V49.042H211.335L213.555 46.27H214.479L211.995 49.33L214.659 52.582H213.651L211.323 49.774ZM218.385 52.642C217.777 52.642 217.229 52.506 216.741 52.234C216.253 51.954 215.869 51.57 215.589 51.082C215.309 50.594 215.169 50.042 215.169 49.426C215.169 48.81 215.309 48.258 215.589 47.77C215.869 47.282 216.253 46.902 216.741 46.63C217.229 46.358 217.777 46.222 218.385 46.222C218.993 46.222 219.541 46.358 220.029 46.63C220.517 46.902 220.897 47.282 221.169 47.77C221.449 48.258 221.589 48.81 221.589 49.426C221.589 50.042 221.449 50.594 221.169 51.082C220.897 51.57 220.517 51.954 220.029 52.234C219.541 52.506 218.993 52.642 218.385 52.642ZM218.385 51.886C218.833 51.886 219.233 51.786 219.585 51.586C219.945 51.378 220.225 51.086 220.425 50.71C220.625 50.334 220.725 49.906 220.725 49.426C220.725 48.946 220.625 48.518 220.425 48.142C220.225 47.766 219.945 47.478 219.585 47.278C219.233 47.07 218.833 46.966 218.385 46.966C217.937 46.966 217.533 47.07 217.173 47.278C216.821 47.478 216.541 47.766 216.333 48.142C216.133 48.518 216.033 48.946 216.033 49.426C216.033 49.906 216.133 50.334 216.333 50.71C216.541 51.086 216.821 51.378 217.173 51.586C217.533 51.786 217.937 51.886 218.385 51.886ZM227.874 47.026H224.262V52.582H223.41V46.27H227.874V47.026ZM231.417 52.642C230.809 52.642 230.261 52.506 229.773 52.234C229.285 51.954 228.901 51.57 228.621 51.082C228.341 50.594 228.201 50.042 228.201 49.426C228.201 48.81 228.341 48.258 228.621 47.77C228.901 47.282 229.285 46.902 229.773 46.63C230.261 46.358 230.809 46.222 231.417 46.222C232.025 46.222 232.573 46.358 233.061 46.63C233.549 46.902 233.929 47.282 234.201 47.77C234.481 48.258 234.621 48.81 234.621 49.426C234.621 50.042 234.481 50.594 234.201 51.082C233.929 51.57 233.549 51.954 233.061 52.234C232.573 52.506 232.025 52.642 231.417 52.642ZM231.417 51.886C231.865 51.886 232.265 51.786 232.617 51.586C232.977 51.378 233.257 51.086 233.457 50.71C233.657 50.334 233.757 49.906 233.757 49.426C233.757 48.946 233.657 48.518 233.457 48.142C233.257 47.766 232.977 47.478 232.617 47.278C232.265 47.07 231.865 46.966 231.417 46.966C230.969 46.966 230.565 47.07 230.205 47.278C229.853 47.478 229.573 47.766 229.365 48.142C229.165 48.518 229.065 48.946 229.065 49.426C229.065 49.906 229.165 50.334 229.365 50.71C229.573 51.086 229.853 51.378 230.205 51.586C230.565 51.786 230.969 51.886 231.417 51.886ZM241.566 46.27V52.582H240.714V47.026H237.69L237.606 48.586C237.542 49.898 237.39 50.906 237.15 51.61C236.91 52.314 236.482 52.666 235.866 52.666C235.698 52.666 235.494 52.634 235.254 52.57L235.314 51.838C235.458 51.87 235.558 51.886 235.614 51.886C235.942 51.886 236.19 51.734 236.358 51.43C236.526 51.126 236.638 50.75 236.694 50.302C236.75 49.854 236.798 49.262 236.838 48.526L236.946 46.27H241.566ZM248.836 46.27V52.582H248.056V50.494H246.076H245.836L244.372 52.582H243.448L245.02 50.374C244.532 50.238 244.156 50.006 243.892 49.678C243.628 49.35 243.496 48.934 243.496 48.43C243.496 47.726 243.736 47.19 244.216 46.822C244.696 46.454 245.352 46.27 246.184 46.27H248.836ZM244.36 48.454C244.36 49.39 244.956 49.858 246.148 49.858H248.056V47.026H246.208C244.976 47.026 244.36 47.502 244.36 48.454Z" fill="#6E7477"/>
<path d="M294.36 161.232V162H288.468V161.388L291.96 157.968C292.4 157.536 292.696 157.164 292.848 156.852C293.008 156.532 293.088 156.212 293.088 155.892C293.088 155.396 292.916 155.012 292.572 154.74C292.236 154.46 291.752 154.32 291.12 154.32C290.136 154.32 289.372 154.632 288.828 155.256L288.216 154.728C288.544 154.344 288.96 154.048 289.464 153.84C289.976 153.632 290.552 153.528 291.192 153.528C292.048 153.528 292.724 153.732 293.22 154.14C293.724 154.54 293.976 155.092 293.976 155.796C293.976 156.228 293.88 156.644 293.688 157.044C293.496 157.444 293.132 157.904 292.596 158.424L289.74 161.232H294.36ZM298.745 162.072C298.097 162.072 297.517 161.9 297.005 161.556C296.501 161.212 296.105 160.72 295.817 160.08C295.537 159.432 295.397 158.672 295.397 157.8C295.397 156.928 295.537 156.172 295.817 155.532C296.105 154.884 296.501 154.388 297.005 154.044C297.517 153.7 298.097 153.528 298.745 153.528C299.393 153.528 299.969 153.7 300.473 154.044C300.985 154.388 301.385 154.884 301.673 155.532C301.961 156.172 302.105 156.928 302.105 157.8C302.105 158.672 301.961 159.432 301.673 160.08C301.385 160.72 300.985 161.212 300.473 161.556C299.969 161.9 299.393 162.072 298.745 162.072ZM298.745 161.28C299.233 161.28 299.661 161.144 300.029 160.872C300.405 160.6 300.697 160.204 300.905 159.684C301.113 159.164 301.217 158.536 301.217 157.8C301.217 157.064 301.113 156.436 300.905 155.916C300.697 155.396 300.405 155 300.029 154.728C299.661 154.456 299.233 154.32 298.745 154.32C298.257 154.32 297.825 154.456 297.449 154.728C297.081 155 296.793 155.396 296.585 155.916C296.377 156.436 296.273 157.064 296.273 157.8C296.273 158.536 296.377 159.164 296.585 159.684C296.793 160.204 297.081 160.6 297.449 160.872C297.825 161.144 298.257 161.28 298.745 161.28ZM309.055 161.232V162H303.163V161.388L306.655 157.968C307.095 157.536 307.391 157.164 307.543 156.852C307.703 156.532 307.783 156.212 307.783 155.892C307.783 155.396 307.611 155.012 307.267 154.74C306.931 154.46 306.447 154.32 305.815 154.32C304.831 154.32 304.067 154.632 303.523 155.256L302.911 154.728C303.239 154.344 303.655 154.048 304.159 153.84C304.671 153.632 305.247 153.528 305.887 153.528C306.743 153.528 307.419 153.732 307.915 154.14C308.419 154.54 308.671 155.092 308.671 155.796C308.671 156.228 308.575 156.644 308.383 157.044C308.191 157.444 307.827 157.904 307.291 158.424L304.435 161.232H309.055ZM312.468 153.6V162H311.604V154.368H309.624V153.6H312.468Z" fill="#6E7477"/>
<path d="M240.36 161.232V162H234.468V161.388L237.96 157.968C238.4 157.536 238.696 157.164 238.848 156.852C239.008 156.532 239.088 156.212 239.088 155.892C239.088 155.396 238.916 155.012 238.572 154.74C238.236 154.46 237.752 154.32 237.12 154.32C236.136 154.32 235.372 154.632 234.828 155.256L234.216 154.728C234.544 154.344 234.96 154.048 235.464 153.84C235.976 153.632 236.552 153.528 237.192 153.528C238.048 153.528 238.724 153.732 239.22 154.14C239.724 154.54 239.976 155.092 239.976 155.796C239.976 156.228 239.88 156.644 239.688 157.044C239.496 157.444 239.132 157.904 238.596 158.424L235.74 161.232H240.36ZM244.745 162.072C244.097 162.072 243.517 161.9 243.005 161.556C242.501 161.212 242.105 160.72 241.817 160.08C241.537 159.432 241.397 158.672 241.397 157.8C241.397 156.928 241.537 156.172 241.817 155.532C242.105 154.884 242.501 154.388 243.005 154.044C243.517 153.7 244.097 153.528 244.745 153.528C245.393 153.528 245.969 153.7 246.473 154.044C246.985 154.388 247.385 154.884 247.673 155.532C247.961 156.172 248.105 156.928 248.105 157.8C248.105 158.672 247.961 159.432 247.673 160.08C247.385 160.72 246.985 161.212 246.473 161.556C245.969 161.9 245.393 162.072 244.745 162.072ZM244.745 161.28C245.233 161.28 245.661 161.144 246.029 160.872C246.405 160.6 246.697 160.204 246.905 159.684C247.113 159.164 247.217 158.536 247.217 157.8C247.217 157.064 247.113 156.436 246.905 155.916C246.697 155.396 246.405 155 246.029 154.728C245.661 154.456 245.233 154.32 244.745 154.32C244.257 154.32 243.825 154.456 243.449 154.728C243.081 155 242.793 155.396 242.585 155.916C242.377 156.436 242.273 157.064 242.273 157.8C242.273 158.536 242.377 159.164 242.585 159.684C242.793 160.204 243.081 160.6 243.449 160.872C243.825 161.144 244.257 161.28 244.745 161.28ZM255.055 161.232V162H249.163V161.388L252.655 157.968C253.095 157.536 253.391 157.164 253.543 156.852C253.703 156.532 253.783 156.212 253.783 155.892C253.783 155.396 253.611 155.012 253.267 154.74C252.931 154.46 252.447 154.32 251.815 154.32C250.831 154.32 250.067 154.632 249.523 155.256L248.911 154.728C249.239 154.344 249.655 154.048 250.159 153.84C250.671 153.632 251.247 153.528 251.887 153.528C252.743 153.528 253.419 153.732 253.915 154.14C254.419 154.54 254.671 155.092 254.671 155.796C254.671 156.228 254.575 156.644 254.383 157.044C254.191 157.444 253.827 157.904 253.291 158.424L250.435 161.232H255.055ZM259.441 162.072C258.793 162.072 258.213 161.9 257.701 161.556C257.197 161.212 256.801 160.72 256.513 160.08C256.233 159.432 256.093 158.672 256.093 157.8C256.093 156.928 256.233 156.172 256.513 155.532C256.801 154.884 257.197 154.388 257.701 154.044C258.213 153.7 258.793 153.528 259.441 153.528C260.089 153.528 260.665 153.7 261.169 154.044C261.681 154.388 262.081 154.884 262.369 155.532C262.657 156.172 262.801 156.928 262.801 157.8C262.801 158.672 262.657 159.432 262.369 160.08C262.081 160.72 261.681 161.212 261.169 161.556C260.665 161.9 260.089 162.072 259.441 162.072ZM259.441 161.28C259.929 161.28 260.357 161.144 260.725 160.872C261.101 160.6 261.393 160.204 261.601 159.684C261.809 159.164 261.913 158.536 261.913 157.8C261.913 157.064 261.809 156.436 261.601 155.916C261.393 155.396 261.101 155 260.725 154.728C260.357 154.456 259.929 154.32 259.441 154.32C258.953 154.32 258.521 154.456 258.145 154.728C257.777 155 257.489 155.396 257.281 155.916C257.073 156.436 256.969 157.064 256.969 157.8C256.969 158.536 257.073 159.164 257.281 159.684C257.489 160.204 257.777 160.6 258.145 160.872C258.521 161.144 258.953 161.28 259.441 161.28Z" fill="#6E7477"/>
<path d="M189.36 161.232V162H183.468V161.388L186.96 157.968C187.4 157.536 187.696 157.164 187.848 156.852C188.008 156.532 188.088 156.212 188.088 155.892C188.088 155.396 187.916 155.012 187.572 154.74C187.236 154.46 186.752 154.32 186.12 154.32C185.136 154.32 184.372 154.632 183.828 155.256L183.216 154.728C183.544 154.344 183.96 154.048 184.464 153.84C184.976 153.632 185.552 153.528 186.192 153.528C187.048 153.528 187.724 153.732 188.22 154.14C188.724 154.54 188.976 155.092 188.976 155.796C188.976 156.228 188.88 156.644 188.688 157.044C188.496 157.444 188.132 157.904 187.596 158.424L184.74 161.232H189.36ZM193.745 162.072C193.097 162.072 192.517 161.9 192.005 161.556C191.501 161.212 191.105 160.72 190.817 160.08C190.537 159.432 190.397 158.672 190.397 157.8C190.397 156.928 190.537 156.172 190.817 155.532C191.105 154.884 191.501 154.388 192.005 154.044C192.517 153.7 193.097 153.528 193.745 153.528C194.393 153.528 194.969 153.7 195.473 154.044C195.985 154.388 196.385 154.884 196.673 155.532C196.961 156.172 197.105 156.928 197.105 157.8C197.105 158.672 196.961 159.432 196.673 160.08C196.385 160.72 195.985 161.212 195.473 161.556C194.969 161.9 194.393 162.072 193.745 162.072ZM193.745 161.28C194.233 161.28 194.661 161.144 195.029 160.872C195.405 160.6 195.697 160.204 195.905 159.684C196.113 159.164 196.217 158.536 196.217 157.8C196.217 157.064 196.113 156.436 195.905 155.916C195.697 155.396 195.405 155 195.029 154.728C194.661 154.456 194.233 154.32 193.745 154.32C193.257 154.32 192.825 154.456 192.449 154.728C192.081 155 191.793 155.396 191.585 155.916C191.377 156.436 191.273 157.064 191.273 157.8C191.273 158.536 191.377 159.164 191.585 159.684C191.793 160.204 192.081 160.6 192.449 160.872C192.825 161.144 193.257 161.28 193.745 161.28ZM200.647 153.6V162H199.783V154.368H197.803V153.6H200.647ZM205.271 153.528C206.383 153.528 207.235 153.896 207.827 154.632C208.419 155.36 208.715 156.392 208.715 157.728C208.715 158.664 208.555 159.456 208.235 160.104C207.915 160.752 207.467 161.244 206.891 161.58C206.315 161.908 205.643 162.072 204.875 162.072C204.043 162.072 203.379 161.92 202.883 161.616L203.231 160.92C203.631 161.184 204.175 161.316 204.863 161.316C205.791 161.316 206.519 161.024 207.047 160.44C207.575 159.848 207.839 158.992 207.839 157.872C207.839 157.664 207.827 157.436 207.803 157.188C207.595 157.644 207.263 158 206.807 158.256C206.351 158.504 205.827 158.628 205.235 158.628C204.683 158.628 204.191 158.524 203.759 158.316C203.335 158.108 203.003 157.816 202.763 157.44C202.523 157.056 202.403 156.612 202.403 156.108C202.403 155.596 202.527 155.144 202.775 154.752C203.023 154.36 203.363 154.06 203.795 153.852C204.235 153.636 204.727 153.528 205.271 153.528ZM205.367 157.896C205.791 157.896 206.163 157.816 206.483 157.656C206.811 157.496 207.067 157.276 207.251 156.996C207.435 156.716 207.527 156.404 207.527 156.06C207.527 155.74 207.439 155.444 207.263 155.172C207.095 154.9 206.843 154.68 206.507 154.512C206.171 154.344 205.771 154.26 205.307 154.26C204.699 154.26 204.203 154.428 203.819 154.764C203.443 155.092 203.255 155.532 203.255 156.084C203.255 156.636 203.443 157.076 203.819 157.404C204.203 157.732 204.719 157.896 205.367 157.896Z" fill="#6E7477"/>
<path d="M138.36 161.232V162H132.468V161.388L135.96 157.968C136.4 157.536 136.696 157.164 136.848 156.852C137.008 156.532 137.088 156.212 137.088 155.892C137.088 155.396 136.916 155.012 136.572 154.74C136.236 154.46 135.752 154.32 135.12 154.32C134.136 154.32 133.372 154.632 132.828 155.256L132.216 154.728C132.544 154.344 132.96 154.048 133.464 153.84C133.976 153.632 134.552 153.528 135.192 153.528C136.048 153.528 136.724 153.732 137.22 154.14C137.724 154.54 137.976 155.092 137.976 155.796C137.976 156.228 137.88 156.644 137.688 157.044C137.496 157.444 137.132 157.904 136.596 158.424L133.74 161.232H138.36ZM142.745 162.072C142.097 162.072 141.517 161.9 141.005 161.556C140.501 161.212 140.105 160.72 139.817 160.08C139.537 159.432 139.397 158.672 139.397 157.8C139.397 156.928 139.537 156.172 139.817 155.532C140.105 154.884 140.501 154.388 141.005 154.044C141.517 153.7 142.097 153.528 142.745 153.528C143.393 153.528 143.969 153.7 144.473 154.044C144.985 154.388 145.385 154.884 145.673 155.532C145.961 156.172 146.105 156.928 146.105 157.8C146.105 158.672 145.961 159.432 145.673 160.08C145.385 160.72 144.985 161.212 144.473 161.556C143.969 161.9 143.393 162.072 142.745 162.072ZM142.745 161.28C143.233 161.28 143.661 161.144 144.029 160.872C144.405 160.6 144.697 160.204 144.905 159.684C145.113 159.164 145.217 158.536 145.217 157.8C145.217 157.064 145.113 156.436 144.905 155.916C144.697 155.396 144.405 155 144.029 154.728C143.661 154.456 143.233 154.32 142.745 154.32C142.257 154.32 141.825 154.456 141.449 154.728C141.081 155 140.793 155.396 140.585 155.916C140.377 156.436 140.273 157.064 140.273 157.8C140.273 158.536 140.377 159.164 140.585 159.684C140.793 160.204 141.081 160.6 141.449 160.872C141.825 161.144 142.257 161.28 142.745 161.28ZM149.647 153.6V162H148.783V154.368H146.803V153.6H149.647ZM156.467 157.596C156.995 157.772 157.399 158.036 157.679 158.388C157.967 158.74 158.111 159.164 158.111 159.66C158.111 160.148 157.979 160.576 157.715 160.944C157.451 161.304 157.071 161.584 156.575 161.784C156.087 161.976 155.511 162.072 154.847 162.072C153.839 162.072 153.047 161.856 152.471 161.424C151.895 160.992 151.607 160.404 151.607 159.66C151.607 159.156 151.743 158.732 152.015 158.388C152.295 158.036 152.699 157.772 153.227 157.596C152.795 157.428 152.467 157.188 152.243 156.876C152.019 156.556 151.907 156.18 151.907 155.748C151.907 155.068 152.171 154.528 152.699 154.128C153.235 153.728 153.951 153.528 154.847 153.528C155.439 153.528 155.955 153.62 156.395 153.804C156.843 153.98 157.191 154.236 157.439 154.572C157.687 154.908 157.811 155.3 157.811 155.748C157.811 156.18 157.695 156.556 157.463 156.876C157.231 157.188 156.899 157.428 156.467 157.596ZM152.771 155.772C152.771 156.236 152.955 156.604 153.323 156.876C153.691 157.148 154.199 157.284 154.847 157.284C155.495 157.284 156.003 157.148 156.371 156.876C156.747 156.604 156.935 156.24 156.935 155.784C156.935 155.312 156.743 154.94 156.359 154.668C155.983 154.396 155.479 154.26 154.847 154.26C154.207 154.26 153.699 154.396 153.323 154.668C152.955 154.94 152.771 155.308 152.771 155.772ZM154.847 161.34C155.591 161.34 156.171 161.188 156.587 160.884C157.011 160.58 157.223 160.168 157.223 159.648C157.223 159.128 157.011 158.72 156.587 158.424C156.171 158.12 155.591 157.968 154.847 157.968C154.111 157.968 153.531 158.12 153.107 158.424C152.691 158.72 152.483 159.128 152.483 159.648C152.483 160.176 152.691 160.592 153.107 160.896C153.523 161.192 154.103 161.34 154.847 161.34Z" fill="#6E7477"/>
<path d="M87.36 161.232V162H81.468V161.388L84.96 157.968C85.4 157.536 85.696 157.164 85.848 156.852C86.008 156.532 86.088 156.212 86.088 155.892C86.088 155.396 85.916 155.012 85.572 154.74C85.236 154.46 84.752 154.32 84.12 154.32C83.136 154.32 82.372 154.632 81.828 155.256L81.216 154.728C81.544 154.344 81.96 154.048 82.464 153.84C82.976 153.632 83.552 153.528 84.192 153.528C85.048 153.528 85.724 153.732 86.22 154.14C86.724 154.54 86.976 155.092 86.976 155.796C86.976 156.228 86.88 156.644 86.688 157.044C86.496 157.444 86.132 157.904 85.596 158.424L82.74 161.232H87.36ZM91.7454 162.072C91.0974 162.072 90.5174 161.9 90.0054 161.556C89.5014 161.212 89.1054 160.72 88.8174 160.08C88.5374 159.432 88.3974 158.672 88.3974 157.8C88.3974 156.928 88.5374 156.172 88.8174 155.532C89.1054 154.884 89.5014 154.388 90.0054 154.044C90.5174 153.7 91.0974 153.528 91.7454 153.528C92.3934 153.528 92.9694 153.7 93.4734 154.044C93.9854 154.388 94.3854 154.884 94.6734 155.532C94.9614 156.172 95.1054 156.928 95.1054 157.8C95.1054 158.672 94.9614 159.432 94.6734 160.08C94.3854 160.72 93.9854 161.212 93.4734 161.556C92.9694 161.9 92.3934 162.072 91.7454 162.072ZM91.7454 161.28C92.2334 161.28 92.6614 161.144 93.0294 160.872C93.4054 160.6 93.6974 160.204 93.9054 159.684C94.1134 159.164 94.2174 158.536 94.2174 157.8C94.2174 157.064 94.1134 156.436 93.9054 155.916C93.6974 155.396 93.4054 155 93.0294 154.728C92.6614 154.456 92.2334 154.32 91.7454 154.32C91.2574 154.32 90.8254 154.456 90.4494 154.728C90.0814 155 89.7934 155.396 89.5854 155.916C89.3774 156.436 89.2734 157.064 89.2734 157.8C89.2734 158.536 89.3774 159.164 89.5854 159.684C89.7934 160.204 90.0814 160.6 90.4494 160.872C90.8254 161.144 91.2574 161.28 91.7454 161.28ZM98.6473 153.6V162H97.7833V154.368H95.8033V153.6H98.6473ZM106.583 153.6V154.212L103.067 162H102.131L105.587 154.368H101.267V155.94H100.415V153.6H106.583Z" fill="#6E7477"/>
<path d="M36.36 161.232V162H30.468V161.388L33.96 157.968C34.4 157.536 34.696 157.164 34.848 156.852C35.008 156.532 35.088 156.212 35.088 155.892C35.088 155.396 34.916 155.012 34.572 154.74C34.236 154.46 33.752 154.32 33.12 154.32C32.136 154.32 31.372 154.632 30.828 155.256L30.216 154.728C30.544 154.344 30.96 154.048 31.464 153.84C31.976 153.632 32.552 153.528 33.192 153.528C34.048 153.528 34.724 153.732 35.22 154.14C35.724 154.54 35.976 155.092 35.976 155.796C35.976 156.228 35.88 156.644 35.688 157.044C35.496 157.444 35.132 157.904 34.596 158.424L31.74 161.232H36.36ZM40.7454 162.072C40.0974 162.072 39.5174 161.9 39.0054 161.556C38.5014 161.212 38.1054 160.72 37.8174 160.08C37.5374 159.432 37.3974 158.672 37.3974 157.8C37.3974 156.928 37.5374 156.172 37.8174 155.532C38.1054 154.884 38.5014 154.388 39.0054 154.044C39.5174 153.7 40.0974 153.528 40.7454 153.528C41.3934 153.528 41.9694 153.7 42.4734 154.044C42.9854 154.388 43.3854 154.884 43.6734 155.532C43.9614 156.172 44.1054 156.928 44.1054 157.8C44.1054 158.672 43.9614 159.432 43.6734 160.08C43.3854 160.72 42.9854 161.212 42.4734 161.556C41.9694 161.9 41.3934 162.072 40.7454 162.072ZM40.7454 161.28C41.2334 161.28 41.6614 161.144 42.0294 160.872C42.4054 160.6 42.6974 160.204 42.9054 159.684C43.1134 159.164 43.2174 158.536 43.2174 157.8C43.2174 157.064 43.1134 156.436 42.9054 155.916C42.6974 155.396 42.4054 155 42.0294 154.728C41.6614 154.456 41.2334 154.32 40.7454 154.32C40.2574 154.32 39.8254 154.456 39.4494 154.728C39.0814 155 38.7934 155.396 38.5854 155.916C38.3774 156.436 38.2734 157.064 38.2734 157.8C38.2734 158.536 38.3774 159.164 38.5854 159.684C38.7934 160.204 39.0814 160.6 39.4494 160.872C39.8254 161.144 40.2574 161.28 40.7454 161.28ZM47.6473 153.6V162H46.7833V154.368H44.8033V153.6H47.6473ZM53.1353 156.972C53.6873 156.972 54.1753 157.076 54.5993 157.284C55.0313 157.492 55.3673 157.788 55.6073 158.172C55.8473 158.548 55.9673 158.988 55.9673 159.492C55.9673 160.004 55.8433 160.456 55.5953 160.848C55.3473 161.24 55.0033 161.544 54.5633 161.76C54.1313 161.968 53.6433 162.072 53.0993 162.072C51.9873 162.072 51.1353 161.708 50.5433 160.98C49.9513 160.244 49.6553 159.208 49.6553 157.872C49.6553 156.936 49.8153 156.144 50.1353 155.496C50.4553 154.848 50.9033 154.36 51.4793 154.032C52.0553 153.696 52.7273 153.528 53.4953 153.528C54.3273 153.528 54.9913 153.68 55.4873 153.984L55.1393 154.68C54.7393 154.416 54.1953 154.284 53.5073 154.284C52.5793 154.284 51.8513 154.58 51.3233 155.172C50.7953 155.756 50.5312 156.608 50.5312 157.728C50.5312 157.928 50.5433 158.156 50.5673 158.412C50.7753 157.956 51.1073 157.604 51.5633 157.356C52.0193 157.1 52.5433 156.972 53.1353 156.972ZM53.0633 161.34C53.6713 161.34 54.1633 161.176 54.5393 160.848C54.9233 160.512 55.1153 160.068 55.1153 159.516C55.1153 158.964 54.9233 158.524 54.5393 158.196C54.1633 157.868 53.6513 157.704 53.0033 157.704C52.5793 157.704 52.2033 157.784 51.8753 157.944C51.5553 158.104 51.3033 158.324 51.1193 158.604C50.9353 158.884 50.8433 159.196 50.8433 159.54C50.8433 159.86 50.9273 160.156 51.0953 160.428C51.2713 160.7 51.5273 160.92 51.8633 161.088C52.1993 161.256 52.5993 161.34 53.0633 161.34Z" fill="#6E7477"/>
<defs>
<filter id="filter0_ii_508_22276" x="25.3433" y="19.1796" width="312.24" height="128.641" filterUnits="userSpaceOnUse" color-interpolation-filters="sRGB">
<feFlood flood-opacity="0" result="BackgroundImageFix"/>
<feBlend mode="normal" in="SourceGraphic" in2="BackgroundImageFix" result="shape"/>
<feColorMatrix in="SourceAlpha" type="matrix" values="0 0 0 0 0 0 0 0 0 0 0 0 0 0 0 0 0 0 127 0" result="hardAlpha"/>
<feOffset dx="-2.5835" dy="-2.5835"/>
<feGaussianBlur stdDeviation="2.5835"/>
<feComposite in2="hardAlpha" operator="arithmetic" k2="-1" k3="1"/>
<feColorMatrix type="matrix" values="0 0 0 0 1 0 0 0 0 1 0 0 0 0 1 0 0 0 1 0"/>
<feBlend mode="normal" in2="shape" result="effect1_innerShadow_508_22276"/>
<feColorMatrix in="SourceAlpha" type="matrix" values="0 0 0 0 0 0 0 0 0 0 0 0 0 0 0 0 0 0 127 0" result="hardAlpha"/>
<feOffset dx="2.5835" dy="2.5835"/>
<feGaussianBlur stdDeviation="2.5835"/>
<feComposite in2="hardAlpha" operator="arithmetic" k2="-1" k3="1"/>
<feColorMatrix type="matrix" values="0 0 0 0 0.657656 0 0 0 0 0.732545 0 0 0 0 0.7625 0 0 0 0.23 0"/>
<feBlend mode="normal" in2="effect1_innerShadow_508_22276" result="effect2_innerShadow_508_22276"/>
</filter>
<filter id="filter1_dd_508_22276" x="78.7726" y="0.772586" width="192.275" height="81.0279" filterUnits="userSpaceOnUse" color-interpolation-filters="sRGB">
<feFlood flood-opacity="0" result="BackgroundImageFix"/>
<feColorMatrix in="SourceAlpha" type="matrix" values="0 0 0 0 0 0 0 0 0 0 0 0 0 0 0 0 0 0 127 0" result="hardAlpha"/>
<feOffset dx="-3.40914" dy="-3.40914"/>
<feGaussianBlur stdDeviation="3.40914"/>
<feComposite in2="hardAlpha" operator="out"/>
<feColorMatrix type="matrix" values="0 0 0 0 0.980392 0 0 0 0 0.984314 0 0 0 0 1 0 0 0 1 0"/>
<feBlend mode="normal" in2="BackgroundImageFix" result="effect1_dropShadow_508_22276"/>
<feColorMatrix in="SourceAlpha" type="matrix" values="0 0 0 0 0 0 0 0 0 0 0 0 0 0 0 0 0 0 127 0" result="hardAlpha"/>
<feOffset dx="3.40914" dy="3.40914"/>
<feGaussianBlur stdDeviation="3.40914"/>
<feComposite in2="hardAlpha" operator="out"/>
<feColorMatrix type="matrix" values="0 0 0 0 0.733715 0 0 0 0 0.766181 0 0 0 0 0.779167 0 0 0 0.23 0"/>
<feBlend mode="normal" in2="effect1_dropShadow_508_22276" result="effect2_dropShadow_508_22276"/>
<feBlend mode="normal" in="SourceGraphic" in2="effect2_dropShadow_508_22276" result="shape"/>
</filter>
<linearGradient id="paint0_linear_508_22276" x1="212.6" y1="63.6367" x2="212.6" y2="184.426" gradientUnits="userSpaceOnUse">
<stop stop-color="#46B1CE"/>
<stop offset="1" stop-color="white" stop-opacity="0"/>
</linearGradient>
<linearGradient id="paint1_linear_508_22276" x1="214.172" y1="24.984" x2="216.358" y2="171.005" gradientUnits="userSpaceOnUse">
<stop stop-color="#F3BFB5"/>
<stop offset="1" stop-color="white" stop-opacity="0"/>
</linearGradient>
<clipPath id="clip0_508_22276">
<rect x="29" y="21.7627" width="306" height="123.474" rx="20.668" fill="white"/>
</clipPath>
</defs>
</svg>
