<svg width="689" height="317" viewBox="0 0 689 317" fill="none" xmlns="http://www.w3.org/2000/svg">
<g clip-path="url(#clip0_483_22164)">
<g filter="url(#filter0_ii_483_22164)">
<rect x="44.3789" y="58.999" width="613" height="227" rx="40" fill="#F6FAFB"/>
</g>
<path d="M123.475 216.365L34.8789 174.999V297.999L777.879 295.999V208.999L681.877 163.665C651.472 149.307 616.252 149.235 585.789 163.47L514.357 196.847C483.672 211.185 448.173 211.003 417.636 196.35L389.702 182.946C359.406 168.409 324.212 168.109 293.672 182.129L218.425 216.672C188.265 230.517 153.544 230.405 123.475 216.365Z" fill="url(#paint0_linear_483_22164)" stroke="#036F8C"/>
<path d="M120.611 173.566L42.8789 221.999L39.8789 290.499L776.879 287.999V146.999C764.781 162.86 741.694 164.953 726.941 151.525L681.487 110.153C652.03 83.3407 608.491 78.9806 574.302 99.4188L410.085 197.589C377.767 216.909 337.949 218.862 303.895 202.799L228.577 167.271C193.856 150.894 153.194 153.264 120.611 173.566Z" fill="url(#paint1_linear_483_22164)" stroke="#E6644D"/>
<circle cx="347.379" cy="171.999" r="10" fill="#036F8C"/>
<circle cx="536.379" cy="123.999" r="10" fill="#E6644D"/>
<g filter="url(#filter1_dd_483_22164)">
<path d="M221.379 88.999C221.379 77.9533 230.333 68.999 241.379 68.999H453.379C464.425 68.999 473.379 77.9533 473.379 88.999V129.999C473.379 141.045 464.425 149.999 453.379 149.999H410.379L349.898 157.679C348.225 157.892 346.532 157.892 344.859 157.679L284.379 149.999H241.379C230.333 149.999 221.379 141.045 221.379 129.999V88.999Z" fill="white"/>
</g>
<path d="M256.399 101.799V103.999H246.079V102.259L251.639 96.979C252.266 96.379 252.686 95.859 252.899 95.419C253.126 94.9657 253.239 94.519 253.239 94.079C253.239 93.4257 253.019 92.9257 252.579 92.579C252.139 92.2324 251.492 92.059 250.639 92.059C249.212 92.059 248.119 92.5457 247.359 93.519L245.539 92.119C246.086 91.3857 246.819 90.819 247.739 90.419C248.672 90.0057 249.712 89.799 250.859 89.799C252.379 89.799 253.592 90.159 254.499 90.879C255.406 91.599 255.859 92.579 255.859 93.819C255.859 94.579 255.699 95.2924 255.379 95.959C255.059 96.6257 254.446 97.3857 253.539 98.239L249.799 101.799H256.399ZM266.98 96.639C267.713 96.9724 268.273 97.4257 268.66 97.999C269.06 98.559 269.26 99.219 269.26 99.979C269.26 100.832 269.02 101.579 268.54 102.219C268.073 102.859 267.406 103.352 266.54 103.699C265.673 104.032 264.666 104.199 263.52 104.199C262.373 104.199 261.366 104.032 260.5 103.699C259.646 103.352 258.986 102.859 258.52 102.219C258.053 101.579 257.82 100.832 257.82 99.979C257.82 99.219 258.013 98.559 258.4 97.999C258.786 97.4257 259.34 96.9724 260.06 96.639C259.5 96.3324 259.066 95.9324 258.76 95.439C258.466 94.9324 258.32 94.3524 258.32 93.699C258.32 92.9124 258.533 92.2257 258.96 91.639C259.4 91.0524 260.013 90.599 260.8 90.279C261.586 89.959 262.493 89.799 263.52 89.799C264.56 89.799 265.473 89.959 266.26 90.279C267.046 90.599 267.66 91.0524 268.1 91.639C268.54 92.2257 268.76 92.9124 268.76 93.699C268.76 94.3524 268.606 94.9257 268.3 95.419C267.993 95.9124 267.553 96.319 266.98 96.639ZM263.52 91.839C262.706 91.839 262.06 92.0124 261.58 92.359C261.113 92.7057 260.88 93.1924 260.88 93.819C260.88 94.419 261.113 94.899 261.58 95.259C262.06 95.6057 262.706 95.779 263.52 95.779C264.346 95.779 265 95.6057 265.48 95.259C265.96 94.899 266.2 94.419 266.2 93.819C266.2 93.1924 265.953 92.7057 265.46 92.359C264.98 92.0124 264.333 91.839 263.52 91.839ZM263.52 102.159C264.48 102.159 265.24 101.959 265.8 101.559C266.36 101.159 266.64 100.606 266.64 99.899C266.64 99.2057 266.36 98.659 265.8 98.259C265.24 97.859 264.48 97.659 263.52 97.659C262.56 97.659 261.806 97.859 261.26 98.259C260.713 98.659 260.44 99.2057 260.44 99.899C260.44 100.606 260.713 101.159 261.26 101.559C261.806 101.959 262.56 102.159 263.52 102.159ZM276.786 104.199C275.666 104.199 274.666 103.919 273.786 103.359C272.906 102.786 272.213 101.959 271.706 100.879C271.2 99.7857 270.946 98.4924 270.946 96.999C270.946 95.5057 271.2 94.219 271.706 93.139C272.213 92.0457 272.906 91.219 273.786 90.659C274.666 90.0857 275.666 89.799 276.786 89.799C277.906 89.799 278.906 90.0857 279.786 90.659C280.68 91.219 281.38 92.0457 281.886 93.139C282.393 94.219 282.646 95.5057 282.646 96.999C282.646 98.4924 282.393 99.7857 281.886 100.879C281.38 101.959 280.68 102.786 279.786 103.359C278.906 103.919 277.906 104.199 276.786 104.199ZM276.786 101.939C277.786 101.939 278.573 101.526 279.146 100.699C279.733 99.8724 280.026 98.639 280.026 96.999C280.026 95.359 279.733 94.1257 279.146 93.299C278.573 92.4724 277.786 92.059 276.786 92.059C275.8 92.059 275.013 92.4724 274.426 93.299C273.853 94.1257 273.566 95.359 273.566 96.999C273.566 98.639 273.853 99.8724 274.426 100.699C275.013 101.526 275.8 101.939 276.786 101.939ZM297.643 95.455V103.999H295.643V100.687C294.821 101.082 293.963 101.279 293.067 101.279C291.968 101.279 291.125 101.028 290.539 100.527C289.952 100.015 289.659 99.2364 289.659 98.191V95.455H291.659V98.063C291.659 98.607 291.819 99.0124 292.139 99.279C292.459 99.5457 292.912 99.679 293.499 99.679C294.245 99.679 294.96 99.519 295.643 99.199V95.455H297.643ZM308.332 99.775C308.332 99.9137 308.322 100.111 308.3 100.367H301.596C301.714 100.996 302.018 101.498 302.508 101.871C303.01 102.234 303.628 102.415 304.364 102.415C305.303 102.415 306.076 102.106 306.684 101.487L307.756 102.719C307.372 103.178 306.887 103.524 306.3 103.759C305.714 103.994 305.052 104.111 304.316 104.111C303.378 104.111 302.551 103.924 301.836 103.551C301.122 103.178 300.567 102.66 300.172 101.999C299.788 101.327 299.596 100.57 299.596 99.727C299.596 98.895 299.783 98.1484 300.156 97.487C300.54 96.815 301.068 96.2924 301.74 95.919C302.412 95.5457 303.17 95.359 304.012 95.359C304.844 95.359 305.586 95.5457 306.236 95.919C306.898 96.2817 307.41 96.799 307.772 97.471C308.146 98.1324 308.332 98.9004 308.332 99.775ZM304.012 96.959C303.372 96.959 302.828 97.151 302.38 97.535C301.943 97.9084 301.676 98.4097 301.58 99.039H306.428C306.343 98.4204 306.082 97.919 305.644 97.535C305.207 97.151 304.663 96.959 304.012 96.959ZM318.154 95.455V103.999H316.154V97.151H312.954L312.874 98.847C312.821 99.9777 312.714 100.927 312.554 101.695C312.405 102.452 312.144 103.055 311.77 103.503C311.408 103.94 310.906 104.159 310.266 104.159C309.968 104.159 309.6 104.1 309.162 103.983L309.258 102.303C309.408 102.335 309.536 102.351 309.642 102.351C310.048 102.351 310.352 102.191 310.554 101.871C310.757 101.54 310.885 101.151 310.938 100.703C311.002 100.244 311.056 99.5937 311.098 98.751L311.242 95.455H318.154ZM324.656 104.111C323.792 104.111 323.013 103.924 322.32 103.551C321.627 103.178 321.083 102.66 320.688 101.999C320.304 101.327 320.112 100.57 320.112 99.727C320.112 98.8844 320.304 98.1324 320.688 97.471C321.083 96.8097 321.627 96.2924 322.32 95.919C323.013 95.5457 323.792 95.359 324.656 95.359C325.531 95.359 326.315 95.5457 327.008 95.919C327.701 96.2924 328.24 96.8097 328.624 97.471C329.019 98.1324 329.216 98.8844 329.216 99.727C329.216 100.57 329.019 101.327 328.624 101.999C328.24 102.66 327.701 103.178 327.008 103.551C326.315 103.924 325.531 104.111 324.656 104.111ZM324.656 102.399C325.392 102.399 326 102.154 326.48 101.663C326.96 101.172 327.2 100.527 327.2 99.727C327.2 98.927 326.96 98.2817 326.48 97.791C326 97.3004 325.392 97.055 324.656 97.055C323.92 97.055 323.312 97.3004 322.832 97.791C322.363 98.2817 322.128 98.927 322.128 99.727C322.128 100.527 322.363 101.172 322.832 101.663C323.312 102.154 323.92 102.399 324.656 102.399ZM337.384 99.551C338.44 99.871 338.968 100.554 338.968 101.599C338.968 102.367 338.68 102.959 338.104 103.375C337.528 103.791 336.674 103.999 335.544 103.999H331.192V95.455H335.368C336.413 95.455 337.229 95.647 337.816 96.031C338.402 96.415 338.696 96.959 338.696 97.663C338.696 98.1004 338.578 98.479 338.344 98.799C338.12 99.119 337.8 99.3697 337.384 99.551ZM333.096 99.023H335.192C336.226 99.023 336.744 98.6657 336.744 97.951C336.744 97.2577 336.226 96.911 335.192 96.911H333.096V99.023ZM335.384 102.543C336.482 102.543 337.032 102.186 337.032 101.471C337.032 101.098 336.904 100.82 336.648 100.639C336.392 100.447 335.992 100.351 335.448 100.351H333.096V102.543H335.384ZM349.098 99.775C349.098 99.9137 349.087 100.111 349.066 100.367H342.362C342.479 100.996 342.783 101.498 343.274 101.871C343.775 102.234 344.394 102.415 345.13 102.415C346.069 102.415 346.842 102.106 347.45 101.487L348.522 102.719C348.138 103.178 347.653 103.524 347.066 103.759C346.479 103.994 345.818 104.111 345.082 104.111C344.143 104.111 343.317 103.924 342.602 103.551C341.887 103.178 341.333 102.66 340.938 101.999C340.554 101.327 340.362 100.57 340.362 99.727C340.362 98.895 340.549 98.1484 340.922 97.487C341.306 96.815 341.834 96.2924 342.506 95.919C343.178 95.5457 343.935 95.359 344.778 95.359C345.61 95.359 346.351 95.5457 347.002 95.919C347.663 96.2817 348.175 96.799 348.538 97.471C348.911 98.1324 349.098 98.9004 349.098 99.775ZM344.778 96.959C344.138 96.959 343.594 97.151 343.146 97.535C342.709 97.9084 342.442 98.4097 342.346 99.039H347.194C347.109 98.4204 346.847 97.919 346.41 97.535C345.973 97.151 345.429 96.959 344.778 96.959ZM354.837 100.575H353.285V103.999H351.285V95.455H353.285V98.911H354.885L357.413 95.455H359.557L356.453 99.567L359.765 103.999H357.413L354.837 100.575Z" fill="#036F8C"/>
<path d="M246.867 121.519H248.403V127.695L253.603 121.519H254.995V129.999H253.459V123.823L248.275 129.999H246.867V121.519ZM262.428 125.583C262.993 125.732 263.43 125.972 263.74 126.303C264.049 126.634 264.204 127.044 264.204 127.535C264.204 128.036 264.033 128.484 263.692 128.879C263.35 129.263 262.876 129.567 262.268 129.791C261.67 130.004 260.998 130.111 260.252 130.111C259.622 130.111 259.004 130.031 258.396 129.871C257.798 129.7 257.265 129.46 256.796 129.151L257.26 127.983C257.665 128.239 258.129 128.442 258.652 128.591C259.174 128.73 259.702 128.799 260.236 128.799C260.961 128.799 261.537 128.676 261.964 128.431C262.401 128.175 262.62 127.834 262.62 127.407C262.62 127.012 262.444 126.708 262.092 126.495C261.75 126.282 261.265 126.175 260.636 126.175H259.084V125.071H260.524C261.1 125.071 261.553 124.97 261.884 124.767C262.214 124.564 262.38 124.287 262.38 123.935C262.38 123.551 262.182 123.252 261.788 123.039C261.404 122.826 260.881 122.719 260.22 122.719C259.377 122.719 258.486 122.938 257.548 123.375L257.132 122.191C258.166 121.668 259.249 121.407 260.38 121.407C261.062 121.407 261.676 121.503 262.22 121.695C262.764 121.887 263.19 122.159 263.5 122.511C263.809 122.863 263.964 123.263 263.964 123.711C263.964 124.127 263.825 124.5 263.548 124.831C263.27 125.162 262.897 125.412 262.428 125.583ZM270.859 121.807C271.648 121.807 272.352 121.983 272.971 122.335C273.589 122.687 274.069 123.178 274.411 123.807C274.763 124.426 274.939 125.135 274.939 125.935C274.939 126.756 274.752 127.487 274.379 128.127C274.016 128.756 273.499 129.247 272.827 129.599C272.165 129.951 271.408 130.127 270.555 130.127C269.115 130.127 268 129.636 267.211 128.655C266.432 127.663 266.043 126.271 266.043 124.479C266.043 122.74 266.4 121.38 267.115 120.399C267.829 119.407 268.923 118.751 270.395 118.431L274.267 117.567L274.491 118.975L270.923 119.743C269.813 119.988 268.987 120.404 268.443 120.991C267.899 121.578 267.589 122.42 267.515 123.519C267.877 122.975 268.347 122.554 268.923 122.255C269.499 121.956 270.144 121.807 270.859 121.807ZM270.587 128.847C271.131 128.847 271.611 128.724 272.027 128.479C272.453 128.234 272.784 127.898 273.019 127.471C273.253 127.034 273.371 126.538 273.371 125.983C273.371 125.14 273.115 124.463 272.603 123.951C272.091 123.439 271.419 123.183 270.587 123.183C269.755 123.183 269.077 123.439 268.555 123.951C268.043 124.463 267.787 125.14 267.787 125.983C267.787 126.538 267.904 127.034 268.139 127.471C268.384 127.898 268.72 128.234 269.147 128.479C269.573 128.724 270.053 128.847 270.587 128.847ZM280.078 121.439C281.252 121.439 282.148 121.727 282.766 122.303C283.396 122.879 283.71 123.738 283.71 124.879V129.999H282.254V128.879C281.998 129.274 281.63 129.578 281.15 129.791C280.681 129.994 280.121 130.095 279.47 130.095C278.521 130.095 277.758 129.866 277.182 129.407C276.617 128.948 276.334 128.346 276.334 127.599C276.334 126.852 276.606 126.255 277.15 125.807C277.694 125.348 278.558 125.119 279.742 125.119H282.174V124.815C282.174 124.154 281.982 123.647 281.598 123.295C281.214 122.943 280.649 122.767 279.902 122.767C279.401 122.767 278.91 122.852 278.43 123.023C277.95 123.183 277.545 123.402 277.214 123.679L276.574 122.527C277.012 122.175 277.534 121.908 278.142 121.727C278.75 121.535 279.396 121.439 280.078 121.439ZM279.726 128.911C280.313 128.911 280.82 128.783 281.246 128.527C281.673 128.26 281.982 127.887 282.174 127.407V126.223H279.806C278.505 126.223 277.854 126.66 277.854 127.535C277.854 127.962 278.02 128.298 278.35 128.543C278.681 128.788 279.14 128.911 279.726 128.911ZM292.252 125.599C293.351 125.876 293.9 126.564 293.9 127.663C293.9 128.41 293.618 128.986 293.052 129.391C292.498 129.796 291.666 129.999 290.556 129.999H286.476V121.519H290.412C291.415 121.519 292.199 121.711 292.764 122.095C293.33 122.468 293.612 123.002 293.612 123.695C293.612 124.143 293.49 124.532 293.244 124.863C293.01 125.183 292.679 125.428 292.252 125.599ZM287.98 125.167H290.284C290.871 125.167 291.314 125.06 291.612 124.847C291.922 124.634 292.076 124.324 292.076 123.919C292.076 123.108 291.479 122.703 290.284 122.703H287.98V125.167ZM290.444 128.815C291.084 128.815 291.564 128.714 291.884 128.511C292.204 128.308 292.364 127.994 292.364 127.567C292.364 127.13 292.215 126.804 291.916 126.591C291.628 126.378 291.17 126.271 290.54 126.271H287.98V128.815H290.444ZM296.304 121.519H297.84V127.695L303.04 121.519H304.432V129.999H302.896V123.823L297.712 129.999H296.304V121.519ZM314.694 121.519V129.999H313.158V122.863H309.51L309.414 124.751C309.36 125.892 309.259 126.847 309.11 127.615C308.96 128.372 308.715 128.98 308.374 129.439C308.032 129.898 307.558 130.127 306.95 130.127C306.672 130.127 306.358 130.079 306.006 129.983L306.102 128.687C306.24 128.719 306.368 128.735 306.486 128.735C306.912 128.735 307.232 128.548 307.446 128.175C307.659 127.802 307.798 127.359 307.862 126.847C307.926 126.335 307.984 125.604 308.038 124.655L308.182 121.519H314.694ZM317.664 121.519H319.2V127.695L324.4 121.519H325.792V129.999H324.256V123.823L319.072 129.999H317.664V121.519ZM332.469 130.095C331.605 130.095 330.832 129.908 330.149 129.535C329.477 129.162 328.949 128.65 328.565 127.999C328.181 127.338 327.989 126.591 327.989 125.759C327.989 124.927 328.181 124.186 328.565 123.535C328.949 122.874 329.477 122.362 330.149 121.999C330.832 121.626 331.605 121.439 332.469 121.439C333.237 121.439 333.92 121.594 334.517 121.903C335.125 122.212 335.594 122.66 335.925 123.247L334.757 123.999C334.49 123.594 334.16 123.29 333.765 123.087C333.37 122.884 332.933 122.783 332.453 122.783C331.898 122.783 331.397 122.906 330.949 123.151C330.512 123.396 330.165 123.748 329.909 124.207C329.664 124.655 329.541 125.172 329.541 125.759C329.541 126.356 329.664 126.884 329.909 127.343C330.165 127.791 330.512 128.138 330.949 128.383C331.397 128.628 331.898 128.751 332.453 128.751C332.933 128.751 333.37 128.65 333.765 128.447C334.16 128.244 334.49 127.94 334.757 127.535L335.925 128.271C335.594 128.858 335.125 129.311 334.517 129.631C333.92 129.94 333.237 130.095 332.469 130.095ZM341.834 124.399C342.911 124.41 343.732 124.655 344.298 125.135C344.863 125.615 345.146 126.292 345.146 127.167C345.146 128.084 344.836 128.794 344.218 129.295C343.61 129.786 342.735 130.026 341.594 130.015L337.914 129.999V121.519H339.45V124.383L341.834 124.399ZM341.466 128.847C342.159 128.858 342.682 128.719 343.034 128.431C343.396 128.143 343.578 127.716 343.578 127.151C343.578 126.596 343.402 126.191 343.05 125.935C342.708 125.679 342.18 125.546 341.466 125.535L339.45 125.503V128.831L341.466 128.847ZM355.046 130.095C354.203 130.095 353.446 129.908 352.774 129.535C352.102 129.162 351.574 128.65 351.19 127.999C350.816 127.338 350.63 126.591 350.63 125.759C350.63 124.927 350.816 124.186 351.19 123.535C351.574 122.874 352.102 122.362 352.774 121.999C353.446 121.626 354.203 121.439 355.046 121.439C355.888 121.439 356.64 121.626 357.302 121.999C357.974 122.362 358.496 122.874 358.87 123.535C359.254 124.186 359.446 124.927 359.446 125.759C359.446 126.591 359.254 127.338 358.87 127.999C358.496 128.65 357.974 129.162 357.302 129.535C356.64 129.908 355.888 130.095 355.046 130.095ZM355.046 128.751C355.59 128.751 356.075 128.628 356.502 128.383C356.939 128.127 357.28 127.775 357.526 127.327C357.771 126.868 357.894 126.346 357.894 125.759C357.894 125.172 357.771 124.655 357.526 124.207C357.28 123.748 356.939 123.396 356.502 123.151C356.075 122.906 355.59 122.783 355.046 122.783C354.502 122.783 354.011 122.906 353.574 123.151C353.147 123.396 352.806 123.748 352.55 124.207C352.304 124.655 352.182 125.172 352.182 125.759C352.182 126.346 352.304 126.868 352.55 127.327C352.806 127.775 353.147 128.127 353.574 128.383C354.011 128.628 354.502 128.751 355.046 128.751ZM367.671 122.863H364.567V129.999H363.031V122.863H359.927V121.519H367.671V122.863ZM376.563 121.439C377.736 121.439 378.632 121.727 379.251 122.303C379.88 122.879 380.195 123.738 380.195 124.879V129.999H378.739V128.879C378.483 129.274 378.115 129.578 377.635 129.791C377.165 129.994 376.605 130.095 375.955 130.095C375.005 130.095 374.243 129.866 373.667 129.407C373.101 128.948 372.819 128.346 372.819 127.599C372.819 126.852 373.091 126.255 373.635 125.807C374.179 125.348 375.043 125.119 376.227 125.119H378.659V124.815C378.659 124.154 378.467 123.647 378.083 123.295C377.699 122.943 377.133 122.767 376.387 122.767C375.885 122.767 375.395 122.852 374.915 123.023C374.435 123.183 374.029 123.402 373.699 123.679L373.059 122.527C373.496 122.175 374.019 121.908 374.627 121.727C375.235 121.535 375.88 121.439 376.563 121.439ZM376.211 128.911C376.797 128.911 377.304 128.783 377.731 128.527C378.157 128.26 378.467 127.887 378.659 127.407V126.223H376.291C374.989 126.223 374.339 126.66 374.339 127.535C374.339 127.962 374.504 128.298 374.835 128.543C375.165 128.788 375.624 128.911 376.211 128.911ZM390.241 121.519V129.999H388.705V122.863H385.057L384.961 124.751C384.907 125.892 384.806 126.847 384.657 127.615C384.507 128.372 384.262 128.98 383.921 129.439C383.579 129.898 383.105 130.127 382.497 130.127C382.219 130.127 381.905 130.079 381.553 129.983L381.649 128.687C381.787 128.719 381.915 128.735 382.033 128.735C382.459 128.735 382.779 128.548 382.993 128.175C383.206 127.802 383.345 127.359 383.409 126.847C383.473 126.335 383.531 125.604 383.585 124.655L383.729 121.519H390.241ZM396.507 126.415H394.747V129.999H393.211V121.519H394.747V125.103H396.539L399.291 121.519H400.939L397.723 125.599L401.163 129.999H399.355L396.507 126.415ZM406.124 130.095C405.281 130.095 404.524 129.908 403.852 129.535C403.18 129.162 402.652 128.65 402.268 127.999C401.895 127.338 401.708 126.591 401.708 125.759C401.708 124.927 401.895 124.186 402.268 123.535C402.652 122.874 403.18 122.362 403.852 121.999C404.524 121.626 405.281 121.439 406.124 121.439C406.967 121.439 407.719 121.626 408.38 121.999C409.052 122.362 409.575 122.874 409.948 123.535C410.332 124.186 410.524 124.927 410.524 125.759C410.524 126.591 410.332 127.338 409.948 127.999C409.575 128.65 409.052 129.162 408.38 129.535C407.719 129.908 406.967 130.095 406.124 130.095ZM406.124 128.751C406.668 128.751 407.153 128.628 407.58 128.383C408.017 128.127 408.359 127.775 408.604 127.327C408.849 126.868 408.972 126.346 408.972 125.759C408.972 125.172 408.849 124.655 408.604 124.207C408.359 123.748 408.017 123.396 407.58 123.151C407.153 122.906 406.668 122.783 406.124 122.783C405.58 122.783 405.089 122.906 404.652 123.151C404.225 123.396 403.884 123.748 403.628 124.207C403.383 124.655 403.26 125.172 403.26 125.759C403.26 126.346 403.383 126.868 403.628 127.327C403.884 127.775 404.225 128.127 404.652 128.383C405.089 128.628 405.58 128.751 406.124 128.751ZM418.982 122.863H414.278V129.999H412.742V121.519H418.982V122.863ZM423.811 130.095C422.969 130.095 422.211 129.908 421.539 129.535C420.867 129.162 420.339 128.65 419.955 127.999C419.582 127.338 419.395 126.591 419.395 125.759C419.395 124.927 419.582 124.186 419.955 123.535C420.339 122.874 420.867 122.362 421.539 121.999C422.211 121.626 422.969 121.439 423.811 121.439C424.654 121.439 425.406 121.626 426.067 121.999C426.739 122.362 427.262 122.874 427.635 123.535C428.019 124.186 428.211 124.927 428.211 125.759C428.211 126.591 428.019 127.338 427.635 127.999C427.262 128.65 426.739 129.162 426.067 129.535C425.406 129.908 424.654 130.095 423.811 130.095ZM423.811 128.751C424.355 128.751 424.841 128.628 425.267 128.383C425.705 128.127 426.046 127.775 426.291 127.327C426.537 126.868 426.659 126.346 426.659 125.759C426.659 125.172 426.537 124.655 426.291 124.207C426.046 123.748 425.705 123.396 425.267 123.151C424.841 122.906 424.355 122.783 423.811 122.783C423.267 122.783 422.777 122.906 422.339 123.151C421.913 123.396 421.571 123.748 421.315 124.207C421.07 124.655 420.947 125.172 420.947 125.759C420.947 126.346 421.07 126.868 421.315 127.327C421.571 127.775 421.913 128.127 422.339 128.383C422.777 128.628 423.267 128.751 423.811 128.751ZM437.647 121.519V129.999H436.111V122.863H432.463L432.367 124.751C432.314 125.892 432.212 126.847 432.063 127.615C431.914 128.372 431.668 128.98 431.327 129.439C430.986 129.898 430.511 130.127 429.903 130.127C429.626 130.127 429.311 130.079 428.959 129.983L429.055 128.687C429.194 128.719 429.322 128.735 429.439 128.735C429.866 128.735 430.186 128.548 430.399 128.175C430.612 127.802 430.751 127.359 430.815 126.847C430.879 126.335 430.938 125.604 430.991 124.655L431.135 121.519H437.647ZM447.417 121.519V129.999H446.041V127.311H443.577H443.401L441.545 129.999H439.897L441.961 127.103C441.321 126.911 440.83 126.596 440.489 126.159C440.148 125.711 439.977 125.156 439.977 124.495C439.977 123.524 440.308 122.788 440.969 122.287C441.63 121.775 442.542 121.519 443.705 121.519H447.417ZM441.545 124.543C441.545 125.108 441.721 125.53 442.073 125.807C442.436 126.074 442.974 126.207 443.689 126.207H446.041V122.863H443.753C442.281 122.863 441.545 123.423 441.545 124.543Z" fill="#6E7477"/>
</g>
<path d="M9.80691 227.401V240.001H8.51091V228.553H5.54091V227.401H9.80691ZM17.8408 240.109C16.8688 240.109 15.9988 239.851 15.2308 239.335C14.4748 238.819 13.8808 238.081 13.4488 237.121C13.0288 236.149 12.8188 235.009 12.8188 233.701C12.8188 232.393 13.0288 231.259 13.4488 230.299C13.8808 229.327 14.4748 228.583 15.2308 228.067C15.9988 227.551 16.8688 227.293 17.8408 227.293C18.8128 227.293 19.6768 227.551 20.4328 228.067C21.2008 228.583 21.8008 229.327 22.2328 230.299C22.6648 231.259 22.8808 232.393 22.8808 233.701C22.8808 235.009 22.6648 236.149 22.2328 237.121C21.8008 238.081 21.2008 238.819 20.4328 239.335C19.6768 239.851 18.8128 240.109 17.8408 240.109ZM17.8408 238.921C18.5728 238.921 19.2148 238.717 19.7668 238.309C20.3308 237.901 20.7688 237.307 21.0808 236.527C21.3928 235.747 21.5488 234.805 21.5488 233.701C21.5488 232.597 21.3928 231.655 21.0808 230.875C20.7688 230.095 20.3308 229.501 19.7668 229.093C19.2148 228.685 18.5728 228.481 17.8408 228.481C17.1088 228.481 16.4608 228.685 15.8968 229.093C15.3448 229.501 14.9128 230.095 14.6008 230.875C14.2888 231.655 14.1328 232.597 14.1328 233.701C14.1328 234.805 14.2888 235.747 14.6008 236.527C14.9128 237.307 15.3448 237.901 15.8968 238.309C16.4608 238.717 17.1088 238.921 17.8408 238.921ZM29.7588 240.109C28.7868 240.109 27.9168 239.851 27.1488 239.335C26.3928 238.819 25.7988 238.081 25.3668 237.121C24.9468 236.149 24.7368 235.009 24.7368 233.701C24.7368 232.393 24.9468 231.259 25.3668 230.299C25.7988 229.327 26.3928 228.583 27.1488 228.067C27.9168 227.551 28.7868 227.293 29.7588 227.293C30.7308 227.293 31.5948 227.551 32.3508 228.067C33.1188 228.583 33.7188 229.327 34.1508 230.299C34.5828 231.259 34.7988 232.393 34.7988 233.701C34.7988 235.009 34.5828 236.149 34.1508 237.121C33.7188 238.081 33.1188 238.819 32.3508 239.335C31.5948 239.851 30.7308 240.109 29.7588 240.109ZM29.7588 238.921C30.4908 238.921 31.1328 238.717 31.6848 238.309C32.2488 237.901 32.6868 237.307 32.9988 236.527C33.3108 235.747 33.4668 234.805 33.4668 233.701C33.4668 232.597 33.3108 231.655 32.9988 230.875C32.6868 230.095 32.2488 229.501 31.6848 229.093C31.1328 228.685 30.4908 228.481 29.7588 228.481C29.0268 228.481 28.3788 228.685 27.8148 229.093C27.2628 229.501 26.8308 230.095 26.5188 230.875C26.2068 231.655 26.0508 232.597 26.0508 233.701C26.0508 234.805 26.2068 235.747 26.5188 236.527C26.8308 237.307 27.2628 237.901 27.8148 238.309C28.3788 238.717 29.0268 238.921 29.7588 238.921Z" fill="#6E7477"/>
<path d="M30.3369 280.109C29.3649 280.109 28.4949 279.851 27.7269 279.335C26.9709 278.819 26.3769 278.081 25.9449 277.121C25.5249 276.149 25.3149 275.009 25.3149 273.701C25.3149 272.393 25.5249 271.259 25.9449 270.299C26.3769 269.327 26.9709 268.583 27.7269 268.067C28.4949 267.551 29.3649 267.293 30.3369 267.293C31.3089 267.293 32.1729 267.551 32.9289 268.067C33.6969 268.583 34.2969 269.327 34.7289 270.299C35.1609 271.259 35.3769 272.393 35.3769 273.701C35.3769 275.009 35.1609 276.149 34.7289 277.121C34.2969 278.081 33.6969 278.819 32.9289 279.335C32.1729 279.851 31.3089 280.109 30.3369 280.109ZM30.3369 278.921C31.0689 278.921 31.7109 278.717 32.2629 278.309C32.8269 277.901 33.2649 277.307 33.5769 276.527C33.8889 275.747 34.0449 274.805 34.0449 273.701C34.0449 272.597 33.8889 271.655 33.5769 270.875C33.2649 270.095 32.8269 269.501 32.2629 269.093C31.7109 268.685 31.0689 268.481 30.3369 268.481C29.6049 268.481 28.9569 268.685 28.3929 269.093C27.8409 269.501 27.4089 270.095 27.0969 270.875C26.7849 271.655 26.6289 272.597 26.6289 273.701C26.6289 274.805 26.7849 275.747 27.0969 276.527C27.4089 277.307 27.8409 277.901 28.3929 278.309C28.9569 278.717 29.6049 278.921 30.3369 278.921Z" fill="#6E7477"/>
<path d="M11.9189 198.849V200.001H3.08091V199.083L8.31891 193.953C8.97891 193.305 9.42291 192.747 9.65091 192.279C9.89091 191.799 10.0109 191.319 10.0109 190.839C10.0109 190.095 9.75291 189.519 9.23691 189.111C8.73291 188.691 8.00691 188.481 7.05891 188.481C5.58291 188.481 4.43691 188.949 3.62091 189.885L2.70291 189.093C3.19491 188.517 3.81891 188.073 4.57491 187.761C5.34291 187.449 6.20691 187.293 7.16691 187.293C8.45091 187.293 9.46491 187.599 10.2089 188.211C10.9649 188.811 11.3429 189.639 11.3429 190.695C11.3429 191.343 11.1989 191.967 10.9109 192.567C10.6229 193.167 10.0769 193.857 9.27291 194.637L4.98891 198.849H11.9189ZM18.4971 200.109C17.5251 200.109 16.6551 199.851 15.8871 199.335C15.1311 198.819 14.5371 198.081 14.1051 197.121C13.6851 196.149 13.4751 195.009 13.4751 193.701C13.4751 192.393 13.6851 191.259 14.1051 190.299C14.5371 189.327 15.1311 188.583 15.8871 188.067C16.6551 187.551 17.5251 187.293 18.4971 187.293C19.4691 187.293 20.3331 187.551 21.0891 188.067C21.8571 188.583 22.4571 189.327 22.8891 190.299C23.3211 191.259 23.5371 192.393 23.5371 193.701C23.5371 195.009 23.3211 196.149 22.8891 197.121C22.4571 198.081 21.8571 198.819 21.0891 199.335C20.3331 199.851 19.4691 200.109 18.4971 200.109ZM18.4971 198.921C19.2291 198.921 19.8711 198.717 20.4231 198.309C20.9871 197.901 21.4251 197.307 21.7371 196.527C22.0491 195.747 22.2051 194.805 22.2051 193.701C22.2051 192.597 22.0491 191.655 21.7371 190.875C21.4251 190.095 20.9871 189.501 20.4231 189.093C19.8711 188.685 19.2291 188.481 18.4971 188.481C17.7651 188.481 17.1171 188.685 16.5531 189.093C16.0011 189.501 15.5691 190.095 15.2571 190.875C14.9451 191.655 14.7891 192.597 14.7891 193.701C14.7891 194.805 14.9451 195.747 15.2571 196.527C15.5691 197.307 16.0011 197.901 16.5531 198.309C17.1171 198.717 17.7651 198.921 18.4971 198.921ZM30.415 200.109C29.443 200.109 28.573 199.851 27.805 199.335C27.049 198.819 26.455 198.081 26.023 197.121C25.603 196.149 25.393 195.009 25.393 193.701C25.393 192.393 25.603 191.259 26.023 190.299C26.455 189.327 27.049 188.583 27.805 188.067C28.573 187.551 29.443 187.293 30.415 187.293C31.387 187.293 32.251 187.551 33.007 188.067C33.775 188.583 34.375 189.327 34.807 190.299C35.239 191.259 35.455 192.393 35.455 193.701C35.455 195.009 35.239 196.149 34.807 197.121C34.375 198.081 33.775 198.819 33.007 199.335C32.251 199.851 31.387 200.109 30.415 200.109ZM30.415 198.921C31.147 198.921 31.789 198.717 32.341 198.309C32.905 197.901 33.343 197.307 33.655 196.527C33.967 195.747 34.123 194.805 34.123 193.701C34.123 192.597 33.967 191.655 33.655 190.875C33.343 190.095 32.905 189.501 32.341 189.093C31.789 188.685 31.147 188.481 30.415 188.481C29.683 188.481 29.035 188.685 28.471 189.093C27.919 189.501 27.487 190.095 27.175 190.875C26.863 191.655 26.707 192.597 26.707 193.701C26.707 194.805 26.863 195.747 27.175 196.527C27.487 197.307 27.919 197.901 28.471 198.309C29.035 198.717 29.683 198.921 30.415 198.921Z" fill="#6E7477"/>
<path d="M7.59891 152.801C8.91891 152.873 9.92091 153.233 10.6049 153.881C11.3009 154.517 11.6489 155.351 11.6489 156.383C11.6489 157.103 11.4749 157.745 11.1269 158.309C10.7789 158.861 10.2629 159.299 9.57891 159.623C8.89491 159.947 8.06091 160.109 7.07691 160.109C6.16491 160.109 5.30091 159.965 4.48491 159.677C3.68091 159.377 3.03291 158.981 2.54091 158.489L3.17091 157.463C3.59091 157.895 4.14891 158.249 4.84491 158.525C5.54091 158.789 6.28491 158.921 7.07691 158.921C8.10891 158.921 8.90691 158.699 9.47091 158.255C10.0349 157.799 10.3169 157.175 10.3169 156.383C10.3169 155.603 10.0349 154.991 9.47091 154.547C8.90691 154.103 8.05491 153.881 6.91491 153.881H6.01491V152.927L9.50691 148.553H3.06291V147.401H11.1629V148.319L7.59891 152.801ZM18.4971 160.109C17.5251 160.109 16.6551 159.851 15.8871 159.335C15.1311 158.819 14.5371 158.081 14.1051 157.121C13.6851 156.149 13.4751 155.009 13.4751 153.701C13.4751 152.393 13.6851 151.259 14.1051 150.299C14.5371 149.327 15.1311 148.583 15.8871 148.067C16.6551 147.551 17.5251 147.293 18.4971 147.293C19.4691 147.293 20.3331 147.551 21.0891 148.067C21.8571 148.583 22.4571 149.327 22.8891 150.299C23.3211 151.259 23.5371 152.393 23.5371 153.701C23.5371 155.009 23.3211 156.149 22.8891 157.121C22.4571 158.081 21.8571 158.819 21.0891 159.335C20.3331 159.851 19.4691 160.109 18.4971 160.109ZM18.4971 158.921C19.2291 158.921 19.8711 158.717 20.4231 158.309C20.9871 157.901 21.4251 157.307 21.7371 156.527C22.0491 155.747 22.2051 154.805 22.2051 153.701C22.2051 152.597 22.0491 151.655 21.7371 150.875C21.4251 150.095 20.9871 149.501 20.4231 149.093C19.8711 148.685 19.2291 148.481 18.4971 148.481C17.7651 148.481 17.1171 148.685 16.5531 149.093C16.0011 149.501 15.5691 150.095 15.2571 150.875C14.9451 151.655 14.7891 152.597 14.7891 153.701C14.7891 154.805 14.9451 155.747 15.2571 156.527C15.5691 157.307 16.0011 157.901 16.5531 158.309C17.1171 158.717 17.7651 158.921 18.4971 158.921ZM30.415 160.109C29.443 160.109 28.573 159.851 27.805 159.335C27.049 158.819 26.455 158.081 26.023 157.121C25.603 156.149 25.393 155.009 25.393 153.701C25.393 152.393 25.603 151.259 26.023 150.299C26.455 149.327 27.049 148.583 27.805 148.067C28.573 147.551 29.443 147.293 30.415 147.293C31.387 147.293 32.251 147.551 33.007 148.067C33.775 148.583 34.375 149.327 34.807 150.299C35.239 151.259 35.455 152.393 35.455 153.701C35.455 155.009 35.239 156.149 34.807 157.121C34.375 158.081 33.775 158.819 33.007 159.335C32.251 159.851 31.387 160.109 30.415 160.109ZM30.415 158.921C31.147 158.921 31.789 158.717 32.341 158.309C32.905 157.901 33.343 157.307 33.655 156.527C33.967 155.747 34.123 154.805 34.123 153.701C34.123 152.597 33.967 151.655 33.655 150.875C33.343 150.095 32.905 149.501 32.341 149.093C31.789 148.685 31.147 148.481 30.415 148.481C29.683 148.481 29.035 148.685 28.471 149.093C27.919 149.501 27.487 150.095 27.175 150.875C26.863 151.655 26.707 152.597 26.707 153.701C26.707 154.805 26.863 155.747 27.175 156.527C27.487 157.307 27.919 157.901 28.471 158.309C29.035 158.717 29.683 158.921 30.415 158.921Z" fill="#6E7477"/>
<path d="M12.0249 116.689H9.50491V120.001H8.20891V116.689H1.09891V115.753L7.77691 107.401H9.21691L2.77291 115.537H8.24491V112.621H9.50491V115.537H12.0249V116.689ZM18.2373 120.109C17.2653 120.109 16.3953 119.851 15.6273 119.335C14.8713 118.819 14.2773 118.081 13.8453 117.121C13.4253 116.149 13.2153 115.009 13.2153 113.701C13.2153 112.393 13.4253 111.259 13.8453 110.299C14.2773 109.327 14.8713 108.583 15.6273 108.067C16.3953 107.551 17.2653 107.293 18.2373 107.293C19.2093 107.293 20.0733 107.551 20.8293 108.067C21.5973 108.583 22.1973 109.327 22.6293 110.299C23.0613 111.259 23.2773 112.393 23.2773 113.701C23.2773 115.009 23.0613 116.149 22.6293 117.121C22.1973 118.081 21.5973 118.819 20.8293 119.335C20.0733 119.851 19.2093 120.109 18.2373 120.109ZM18.2373 118.921C18.9693 118.921 19.6113 118.717 20.1633 118.309C20.7273 117.901 21.1653 117.307 21.4773 116.527C21.7893 115.747 21.9453 114.805 21.9453 113.701C21.9453 112.597 21.7893 111.655 21.4773 110.875C21.1653 110.095 20.7273 109.501 20.1633 109.093C19.6113 108.685 18.9693 108.481 18.2373 108.481C17.5053 108.481 16.8573 108.685 16.2933 109.093C15.7413 109.501 15.3093 110.095 14.9973 110.875C14.6853 111.655 14.5293 112.597 14.5293 113.701C14.5293 114.805 14.6853 115.747 14.9973 116.527C15.3093 117.307 15.7413 117.901 16.2933 118.309C16.8573 118.717 17.5053 118.921 18.2373 118.921ZM30.1553 120.109C29.1833 120.109 28.3133 119.851 27.5453 119.335C26.7893 118.819 26.1953 118.081 25.7633 117.121C25.3433 116.149 25.1333 115.009 25.1333 113.701C25.1333 112.393 25.3433 111.259 25.7633 110.299C26.1953 109.327 26.7893 108.583 27.5453 108.067C28.3133 107.551 29.1833 107.293 30.1553 107.293C31.1273 107.293 31.9913 107.551 32.7473 108.067C33.5153 108.583 34.1153 109.327 34.5473 110.299C34.9793 111.259 35.1953 112.393 35.1953 113.701C35.1953 115.009 34.9793 116.149 34.5473 117.121C34.1153 118.081 33.5153 118.819 32.7473 119.335C31.9913 119.851 31.1273 120.109 30.1553 120.109ZM30.1553 118.921C30.8873 118.921 31.5293 118.717 32.0813 118.309C32.6453 117.901 33.0833 117.307 33.3953 116.527C33.7073 115.747 33.8633 114.805 33.8633 113.701C33.8633 112.597 33.7073 111.655 33.3953 110.875C33.0833 110.095 32.6453 109.501 32.0813 109.093C31.5293 108.685 30.8873 108.481 30.1553 108.481C29.4233 108.481 28.7753 108.685 28.2113 109.093C27.6593 109.501 27.2273 110.095 26.9153 110.875C26.6033 111.655 26.4473 112.597 26.4473 113.701C26.4473 114.805 26.6033 115.747 26.9153 116.527C27.2273 117.307 27.6593 117.901 28.2113 118.309C28.7753 118.717 29.4233 118.921 30.1553 118.921Z" fill="#6E7477"/>
<path d="M5.62691 72.567C7.45091 72.567 8.77691 72.897 9.60491 73.557C10.4449 74.205 10.8649 75.117 10.8649 76.293C10.8649 77.025 10.6909 77.679 10.3429 78.255C10.0069 78.831 9.49691 79.287 8.81291 79.623C8.12891 79.947 7.28891 80.109 6.29291 80.109C5.39291 80.109 4.53491 79.965 3.71891 79.677C2.91491 79.377 2.26691 78.981 1.77491 78.489L2.40491 77.463C2.82491 77.895 3.37691 78.249 4.06091 78.525C4.74491 78.789 5.48291 78.921 6.27491 78.921C7.31891 78.921 8.12291 78.687 8.68691 78.219C9.26291 77.751 9.55091 77.127 9.55091 76.347C9.55091 75.483 9.22691 74.829 8.57891 74.385C7.94291 73.941 6.86291 73.719 5.33891 73.719H2.65691L3.30491 67.401H10.1989V68.553H4.43891L4.00691 72.567H5.62691ZM17.5322 80.109C16.5602 80.109 15.6902 79.851 14.9222 79.335C14.1662 78.819 13.5722 78.081 13.1402 77.121C12.7202 76.149 12.5102 75.009 12.5102 73.701C12.5102 72.393 12.7202 71.259 13.1402 70.299C13.5722 69.327 14.1662 68.583 14.9222 68.067C15.6902 67.551 16.5602 67.293 17.5322 67.293C18.5042 67.293 19.3682 67.551 20.1242 68.067C20.8922 68.583 21.4922 69.327 21.9242 70.299C22.3562 71.259 22.5722 72.393 22.5722 73.701C22.5722 75.009 22.3562 76.149 21.9242 77.121C21.4922 78.081 20.8922 78.819 20.1242 79.335C19.3682 79.851 18.5042 80.109 17.5322 80.109ZM17.5322 78.921C18.2642 78.921 18.9062 78.717 19.4582 78.309C20.0222 77.901 20.4602 77.307 20.7722 76.527C21.0842 75.747 21.2402 74.805 21.2402 73.701C21.2402 72.597 21.0842 71.655 20.7722 70.875C20.4602 70.095 20.0222 69.501 19.4582 69.093C18.9062 68.685 18.2642 68.481 17.5322 68.481C16.8002 68.481 16.1522 68.685 15.5882 69.093C15.0362 69.501 14.6042 70.095 14.2922 70.875C13.9802 71.655 13.8242 72.597 13.8242 73.701C13.8242 74.805 13.9802 75.747 14.2922 76.527C14.6042 77.307 15.0362 77.901 15.5882 78.309C16.1522 78.717 16.8002 78.921 17.5322 78.921ZM29.4502 80.109C28.4782 80.109 27.6082 79.851 26.8402 79.335C26.0842 78.819 25.4902 78.081 25.0582 77.121C24.6382 76.149 24.4282 75.009 24.4282 73.701C24.4282 72.393 24.6382 71.259 25.0582 70.299C25.4902 69.327 26.0842 68.583 26.8402 68.067C27.6082 67.551 28.4782 67.293 29.4502 67.293C30.4222 67.293 31.2862 67.551 32.0422 68.067C32.8102 68.583 33.4102 69.327 33.8422 70.299C34.2742 71.259 34.4902 72.393 34.4902 73.701C34.4902 75.009 34.2742 76.149 33.8422 77.121C33.4102 78.081 32.8102 78.819 32.0422 79.335C31.2862 79.851 30.4222 80.109 29.4502 80.109ZM29.4502 78.921C30.1822 78.921 30.8242 78.717 31.3762 78.309C31.9402 77.901 32.3782 77.307 32.6902 76.527C33.0022 75.747 33.1582 74.805 33.1582 73.701C33.1582 72.597 33.0022 71.655 32.6902 70.875C32.3782 70.095 31.9402 69.501 31.3762 69.093C30.8242 68.685 30.1822 68.481 29.4502 68.481C28.7182 68.481 28.0702 68.685 27.5062 69.093C26.9542 69.501 26.5222 70.095 26.2102 70.875C25.8982 71.655 25.7422 72.597 25.7422 73.701C25.7422 74.805 25.8982 75.747 26.2102 76.527C26.5222 77.307 26.9542 77.901 27.5062 78.309C28.0702 78.717 28.7182 78.921 29.4502 78.921Z" fill="#6E7477"/>
<path d="M624.919 310.849V312.001H616.081V311.083L621.319 305.953C621.979 305.305 622.423 304.747 622.651 304.279C622.891 303.799 623.011 303.319 623.011 302.839C623.011 302.095 622.753 301.519 622.237 301.111C621.733 300.691 621.007 300.481 620.059 300.481C618.583 300.481 617.437 300.949 616.621 301.885L615.703 301.093C616.195 300.517 616.819 300.073 617.575 299.761C618.343 299.449 619.207 299.293 620.167 299.293C621.451 299.293 622.465 299.599 623.209 300.211C623.965 300.811 624.343 301.639 624.343 302.695C624.343 303.343 624.199 303.967 623.911 304.567C623.623 305.167 623.077 305.857 622.273 306.637L617.989 310.849H624.919ZM631.497 312.109C630.525 312.109 629.655 311.851 628.887 311.335C628.131 310.819 627.537 310.081 627.105 309.121C626.685 308.149 626.475 307.009 626.475 305.701C626.475 304.393 626.685 303.259 627.105 302.299C627.537 301.327 628.131 300.583 628.887 300.067C629.655 299.551 630.525 299.293 631.497 299.293C632.469 299.293 633.333 299.551 634.089 300.067C634.857 300.583 635.457 301.327 635.889 302.299C636.321 303.259 636.537 304.393 636.537 305.701C636.537 307.009 636.321 308.149 635.889 309.121C635.457 310.081 634.857 310.819 634.089 311.335C633.333 311.851 632.469 312.109 631.497 312.109ZM631.497 310.921C632.229 310.921 632.871 310.717 633.423 310.309C633.987 309.901 634.425 309.307 634.737 308.527C635.049 307.747 635.205 306.805 635.205 305.701C635.205 304.597 635.049 303.655 634.737 302.875C634.425 302.095 633.987 301.501 633.423 301.093C632.871 300.685 632.229 300.481 631.497 300.481C630.765 300.481 630.117 300.685 629.553 301.093C629.001 301.501 628.569 302.095 628.257 302.875C627.945 303.655 627.789 304.597 627.789 305.701C627.789 306.805 627.945 307.747 628.257 308.527C628.569 309.307 629.001 309.901 629.553 310.309C630.117 310.717 630.765 310.921 631.497 310.921ZM646.962 310.849V312.001H638.124V311.083L643.362 305.953C644.022 305.305 644.466 304.747 644.694 304.279C644.934 303.799 645.054 303.319 645.054 302.839C645.054 302.095 644.796 301.519 644.28 301.111C643.776 300.691 643.05 300.481 642.102 300.481C640.626 300.481 639.48 300.949 638.664 301.885L637.746 301.093C638.238 300.517 638.862 300.073 639.618 299.761C640.386 299.449 641.25 299.293 642.21 299.293C643.494 299.293 644.508 299.599 645.252 300.211C646.008 300.811 646.386 301.639 646.386 302.695C646.386 303.343 646.242 303.967 645.954 304.567C645.666 305.167 645.12 305.857 644.316 306.637L640.032 310.849H646.962ZM652.08 299.401V312.001H650.784V300.553H647.814V299.401H652.08Z" fill="#6E7477"/>
<path d="M506.919 310.849V312.001H498.081V311.083L503.319 305.953C503.979 305.305 504.423 304.747 504.651 304.279C504.891 303.799 505.011 303.319 505.011 302.839C505.011 302.095 504.753 301.519 504.237 301.111C503.733 300.691 503.007 300.481 502.059 300.481C500.583 300.481 499.437 300.949 498.621 301.885L497.703 301.093C498.195 300.517 498.819 300.073 499.575 299.761C500.343 299.449 501.207 299.293 502.167 299.293C503.451 299.293 504.465 299.599 505.209 300.211C505.965 300.811 506.343 301.639 506.343 302.695C506.343 303.343 506.199 303.967 505.911 304.567C505.623 305.167 505.077 305.857 504.273 306.637L499.989 310.849H506.919ZM513.497 312.109C512.525 312.109 511.655 311.851 510.887 311.335C510.131 310.819 509.537 310.081 509.105 309.121C508.685 308.149 508.475 307.009 508.475 305.701C508.475 304.393 508.685 303.259 509.105 302.299C509.537 301.327 510.131 300.583 510.887 300.067C511.655 299.551 512.525 299.293 513.497 299.293C514.469 299.293 515.333 299.551 516.089 300.067C516.857 300.583 517.457 301.327 517.889 302.299C518.321 303.259 518.537 304.393 518.537 305.701C518.537 307.009 518.321 308.149 517.889 309.121C517.457 310.081 516.857 310.819 516.089 311.335C515.333 311.851 514.469 312.109 513.497 312.109ZM513.497 310.921C514.229 310.921 514.871 310.717 515.423 310.309C515.987 309.901 516.425 309.307 516.737 308.527C517.049 307.747 517.205 306.805 517.205 305.701C517.205 304.597 517.049 303.655 516.737 302.875C516.425 302.095 515.987 301.501 515.423 301.093C514.871 300.685 514.229 300.481 513.497 300.481C512.765 300.481 512.117 300.685 511.553 301.093C511.001 301.501 510.569 302.095 510.257 302.875C509.945 303.655 509.789 304.597 509.789 305.701C509.789 306.805 509.945 307.747 510.257 308.527C510.569 309.307 511.001 309.901 511.553 310.309C512.117 310.717 512.765 310.921 513.497 310.921ZM528.962 310.849V312.001H520.124V311.083L525.362 305.953C526.022 305.305 526.466 304.747 526.694 304.279C526.934 303.799 527.054 303.319 527.054 302.839C527.054 302.095 526.796 301.519 526.28 301.111C525.776 300.691 525.05 300.481 524.102 300.481C522.626 300.481 521.48 300.949 520.664 301.885L519.746 301.093C520.238 300.517 520.862 300.073 521.618 299.761C522.386 299.449 523.25 299.293 524.21 299.293C525.494 299.293 526.508 299.599 527.252 300.211C528.008 300.811 528.386 301.639 528.386 302.695C528.386 303.343 528.242 303.967 527.954 304.567C527.666 305.167 527.12 305.857 526.316 306.637L522.032 310.849H528.962ZM535.54 312.109C534.568 312.109 533.698 311.851 532.93 311.335C532.174 310.819 531.58 310.081 531.148 309.121C530.728 308.149 530.518 307.009 530.518 305.701C530.518 304.393 530.728 303.259 531.148 302.299C531.58 301.327 532.174 300.583 532.93 300.067C533.698 299.551 534.568 299.293 535.54 299.293C536.512 299.293 537.376 299.551 538.132 300.067C538.9 300.583 539.5 301.327 539.932 302.299C540.364 303.259 540.58 304.393 540.58 305.701C540.58 307.009 540.364 308.149 539.932 309.121C539.5 310.081 538.9 310.819 538.132 311.335C537.376 311.851 536.512 312.109 535.54 312.109ZM535.54 310.921C536.272 310.921 536.914 310.717 537.466 310.309C538.03 309.901 538.468 309.307 538.78 308.527C539.092 307.747 539.248 306.805 539.248 305.701C539.248 304.597 539.092 303.655 538.78 302.875C538.468 302.095 538.03 301.501 537.466 301.093C536.914 300.685 536.272 300.481 535.54 300.481C534.808 300.481 534.16 300.685 533.596 301.093C533.044 301.501 532.612 302.095 532.3 302.875C531.988 303.655 531.832 304.597 531.832 305.701C531.832 306.805 531.988 307.747 532.3 308.527C532.612 309.307 533.044 309.901 533.596 310.309C534.16 310.717 534.808 310.921 535.54 310.921Z" fill="#6E7477"/>
<path d="M393.919 310.849V312.001H385.081V311.083L390.319 305.953C390.979 305.305 391.423 304.747 391.651 304.279C391.891 303.799 392.011 303.319 392.011 302.839C392.011 302.095 391.753 301.519 391.237 301.111C390.733 300.691 390.007 300.481 389.059 300.481C387.583 300.481 386.437 300.949 385.621 301.885L384.703 301.093C385.195 300.517 385.819 300.073 386.575 299.761C387.343 299.449 388.207 299.293 389.167 299.293C390.451 299.293 391.465 299.599 392.209 300.211C392.965 300.811 393.343 301.639 393.343 302.695C393.343 303.343 393.199 303.967 392.911 304.567C392.623 305.167 392.077 305.857 391.273 306.637L386.989 310.849H393.919ZM400.497 312.109C399.525 312.109 398.655 311.851 397.887 311.335C397.131 310.819 396.537 310.081 396.105 309.121C395.685 308.149 395.475 307.009 395.475 305.701C395.475 304.393 395.685 303.259 396.105 302.299C396.537 301.327 397.131 300.583 397.887 300.067C398.655 299.551 399.525 299.293 400.497 299.293C401.469 299.293 402.333 299.551 403.089 300.067C403.857 300.583 404.457 301.327 404.889 302.299C405.321 303.259 405.537 304.393 405.537 305.701C405.537 307.009 405.321 308.149 404.889 309.121C404.457 310.081 403.857 310.819 403.089 311.335C402.333 311.851 401.469 312.109 400.497 312.109ZM400.497 310.921C401.229 310.921 401.871 310.717 402.423 310.309C402.987 309.901 403.425 309.307 403.737 308.527C404.049 307.747 404.205 306.805 404.205 305.701C404.205 304.597 404.049 303.655 403.737 302.875C403.425 302.095 402.987 301.501 402.423 301.093C401.871 300.685 401.229 300.481 400.497 300.481C399.765 300.481 399.117 300.685 398.553 301.093C398.001 301.501 397.569 302.095 397.257 302.875C396.945 303.655 396.789 304.597 396.789 305.701C396.789 306.805 396.945 307.747 397.257 308.527C397.569 309.307 398.001 309.901 398.553 310.309C399.117 310.717 399.765 310.921 400.497 310.921ZM410.85 299.401V312.001H409.554V300.553H406.584V299.401H410.85ZM417.786 299.293C419.454 299.293 420.732 299.845 421.62 300.949C422.508 302.041 422.952 303.589 422.952 305.593C422.952 306.997 422.712 308.185 422.232 309.157C421.752 310.129 421.08 310.867 420.216 311.371C419.352 311.863 418.344 312.109 417.192 312.109C415.944 312.109 414.948 311.881 414.204 311.425L414.726 310.381C415.326 310.777 416.142 310.975 417.174 310.975C418.566 310.975 419.658 310.537 420.45 309.661C421.242 308.773 421.638 307.489 421.638 305.809C421.638 305.497 421.62 305.155 421.584 304.783C421.272 305.467 420.774 306.001 420.09 306.385C419.406 306.757 418.62 306.943 417.732 306.943C416.904 306.943 416.166 306.787 415.518 306.475C414.882 306.163 414.384 305.725 414.024 305.161C413.664 304.585 413.484 303.919 413.484 303.163C413.484 302.395 413.67 301.717 414.042 301.129C414.414 300.541 414.924 300.091 415.572 299.779C416.232 299.455 416.97 299.293 417.786 299.293ZM417.93 305.845C418.566 305.845 419.124 305.725 419.604 305.485C420.096 305.245 420.48 304.915 420.756 304.495C421.032 304.075 421.17 303.607 421.17 303.091C421.17 302.611 421.038 302.167 420.774 301.759C420.522 301.351 420.144 301.021 419.64 300.769C419.136 300.517 418.536 300.391 417.84 300.391C416.928 300.391 416.184 300.643 415.608 301.147C415.044 301.639 414.762 302.299 414.762 303.127C414.762 303.955 415.044 304.615 415.608 305.107C416.184 305.599 416.958 305.845 417.93 305.845Z" fill="#6E7477"/>
<path d="M279.919 310.849V312.001H271.081V311.083L276.319 305.953C276.979 305.305 277.423 304.747 277.651 304.279C277.891 303.799 278.011 303.319 278.011 302.839C278.011 302.095 277.753 301.519 277.237 301.111C276.733 300.691 276.007 300.481 275.059 300.481C273.583 300.481 272.437 300.949 271.621 301.885L270.703 301.093C271.195 300.517 271.819 300.073 272.575 299.761C273.343 299.449 274.207 299.293 275.167 299.293C276.451 299.293 277.465 299.599 278.209 300.211C278.965 300.811 279.343 301.639 279.343 302.695C279.343 303.343 279.199 303.967 278.911 304.567C278.623 305.167 278.077 305.857 277.273 306.637L272.989 310.849H279.919ZM286.497 312.109C285.525 312.109 284.655 311.851 283.887 311.335C283.131 310.819 282.537 310.081 282.105 309.121C281.685 308.149 281.475 307.009 281.475 305.701C281.475 304.393 281.685 303.259 282.105 302.299C282.537 301.327 283.131 300.583 283.887 300.067C284.655 299.551 285.525 299.293 286.497 299.293C287.469 299.293 288.333 299.551 289.089 300.067C289.857 300.583 290.457 301.327 290.889 302.299C291.321 303.259 291.537 304.393 291.537 305.701C291.537 307.009 291.321 308.149 290.889 309.121C290.457 310.081 289.857 310.819 289.089 311.335C288.333 311.851 287.469 312.109 286.497 312.109ZM286.497 310.921C287.229 310.921 287.871 310.717 288.423 310.309C288.987 309.901 289.425 309.307 289.737 308.527C290.049 307.747 290.205 306.805 290.205 305.701C290.205 304.597 290.049 303.655 289.737 302.875C289.425 302.095 288.987 301.501 288.423 301.093C287.871 300.685 287.229 300.481 286.497 300.481C285.765 300.481 285.117 300.685 284.553 301.093C284.001 301.501 283.569 302.095 283.257 302.875C282.945 303.655 282.789 304.597 282.789 305.701C282.789 306.805 282.945 307.747 283.257 308.527C283.569 309.307 284.001 309.901 284.553 310.309C285.117 310.717 285.765 310.921 286.497 310.921ZM296.85 299.401V312.001H295.554V300.553H292.584V299.401H296.85ZM307.08 305.395C307.872 305.659 308.478 306.055 308.898 306.583C309.33 307.111 309.546 307.747 309.546 308.491C309.546 309.223 309.348 309.865 308.952 310.417C308.556 310.957 307.986 311.377 307.242 311.677C306.51 311.965 305.646 312.109 304.65 312.109C303.138 312.109 301.95 311.785 301.086 311.137C300.222 310.489 299.79 309.607 299.79 308.491C299.79 307.735 299.994 307.099 300.402 306.583C300.822 306.055 301.428 305.659 302.22 305.395C301.572 305.143 301.08 304.783 300.744 304.315C300.408 303.835 300.24 303.271 300.24 302.623C300.24 301.603 300.636 300.793 301.428 300.193C302.232 299.593 303.306 299.293 304.65 299.293C305.538 299.293 306.312 299.431 306.972 299.707C307.644 299.971 308.166 300.355 308.538 300.859C308.91 301.363 309.096 301.951 309.096 302.623C309.096 303.271 308.922 303.835 308.574 304.315C308.226 304.783 307.728 305.143 307.08 305.395ZM301.536 302.659C301.536 303.355 301.812 303.907 302.364 304.315C302.916 304.723 303.678 304.927 304.65 304.927C305.622 304.927 306.384 304.723 306.936 304.315C307.5 303.907 307.782 303.361 307.782 302.677C307.782 301.969 307.494 301.411 306.918 301.003C306.354 300.595 305.598 300.391 304.65 300.391C303.69 300.391 302.928 300.595 302.364 301.003C301.812 301.411 301.536 301.963 301.536 302.659ZM304.65 311.011C305.766 311.011 306.636 310.783 307.26 310.327C307.896 309.871 308.214 309.253 308.214 308.473C308.214 307.693 307.896 307.081 307.26 306.637C306.636 306.181 305.766 305.953 304.65 305.953C303.546 305.953 302.676 306.181 302.04 306.637C301.416 307.081 301.104 307.693 301.104 308.473C301.104 309.265 301.416 309.889 302.04 310.345C302.664 310.789 303.534 311.011 304.65 311.011Z" fill="#6E7477"/>
<path d="M166.919 310.849V312.001H158.081V311.083L163.319 305.953C163.979 305.305 164.423 304.747 164.651 304.279C164.891 303.799 165.011 303.319 165.011 302.839C165.011 302.095 164.753 301.519 164.237 301.111C163.733 300.691 163.007 300.481 162.059 300.481C160.583 300.481 159.437 300.949 158.621 301.885L157.703 301.093C158.195 300.517 158.819 300.073 159.575 299.761C160.343 299.449 161.207 299.293 162.167 299.293C163.451 299.293 164.465 299.599 165.209 300.211C165.965 300.811 166.343 301.639 166.343 302.695C166.343 303.343 166.199 303.967 165.911 304.567C165.623 305.167 165.077 305.857 164.273 306.637L159.989 310.849H166.919ZM173.497 312.109C172.525 312.109 171.655 311.851 170.887 311.335C170.131 310.819 169.537 310.081 169.105 309.121C168.685 308.149 168.475 307.009 168.475 305.701C168.475 304.393 168.685 303.259 169.105 302.299C169.537 301.327 170.131 300.583 170.887 300.067C171.655 299.551 172.525 299.293 173.497 299.293C174.469 299.293 175.333 299.551 176.089 300.067C176.857 300.583 177.457 301.327 177.889 302.299C178.321 303.259 178.537 304.393 178.537 305.701C178.537 307.009 178.321 308.149 177.889 309.121C177.457 310.081 176.857 310.819 176.089 311.335C175.333 311.851 174.469 312.109 173.497 312.109ZM173.497 310.921C174.229 310.921 174.871 310.717 175.423 310.309C175.987 309.901 176.425 309.307 176.737 308.527C177.049 307.747 177.205 306.805 177.205 305.701C177.205 304.597 177.049 303.655 176.737 302.875C176.425 302.095 175.987 301.501 175.423 301.093C174.871 300.685 174.229 300.481 173.497 300.481C172.765 300.481 172.117 300.685 171.553 301.093C171.001 301.501 170.569 302.095 170.257 302.875C169.945 303.655 169.789 304.597 169.789 305.701C169.789 306.805 169.945 307.747 170.257 308.527C170.569 309.307 171.001 309.901 171.553 310.309C172.117 310.717 172.765 310.921 173.497 310.921ZM183.85 299.401V312.001H182.554V300.553H179.584V299.401H183.85ZM195.754 299.401V300.319L190.48 312.001H189.076L194.26 300.553H187.78V302.911H186.502V299.401H195.754Z" fill="#6E7477"/>
<path d="M53.9189 310.849V312.001H45.0809V311.083L50.3189 305.953C50.9789 305.305 51.4229 304.747 51.6509 304.279C51.8909 303.799 52.0109 303.319 52.0109 302.839C52.0109 302.095 51.7529 301.519 51.2369 301.111C50.7329 300.691 50.0069 300.481 49.0589 300.481C47.5829 300.481 46.4369 300.949 45.6209 301.885L44.7029 301.093C45.1949 300.517 45.8189 300.073 46.5749 299.761C47.3429 299.449 48.2069 299.293 49.1669 299.293C50.4509 299.293 51.4649 299.599 52.2089 300.211C52.9649 300.811 53.3429 301.639 53.3429 302.695C53.3429 303.343 53.1989 303.967 52.9109 304.567C52.6229 305.167 52.0769 305.857 51.2729 306.637L46.9889 310.849H53.9189ZM60.4971 312.109C59.5251 312.109 58.6551 311.851 57.8871 311.335C57.1311 310.819 56.5371 310.081 56.1051 309.121C55.6851 308.149 55.4751 307.009 55.4751 305.701C55.4751 304.393 55.6851 303.259 56.1051 302.299C56.5371 301.327 57.1311 300.583 57.8871 300.067C58.6551 299.551 59.5251 299.293 60.4971 299.293C61.4691 299.293 62.3331 299.551 63.0891 300.067C63.8571 300.583 64.4571 301.327 64.8891 302.299C65.3211 303.259 65.5371 304.393 65.5371 305.701C65.5371 307.009 65.3211 308.149 64.8891 309.121C64.4571 310.081 63.8571 310.819 63.0891 311.335C62.3331 311.851 61.4691 312.109 60.4971 312.109ZM60.4971 310.921C61.2291 310.921 61.8711 310.717 62.4231 310.309C62.9871 309.901 63.4251 309.307 63.7371 308.527C64.0491 307.747 64.2051 306.805 64.2051 305.701C64.2051 304.597 64.0491 303.655 63.7371 302.875C63.4251 302.095 62.9871 301.501 62.4231 301.093C61.8711 300.685 61.2291 300.481 60.4971 300.481C59.7651 300.481 59.1171 300.685 58.5531 301.093C58.0011 301.501 57.5691 302.095 57.2571 302.875C56.9451 303.655 56.7891 304.597 56.7891 305.701C56.7891 306.805 56.9451 307.747 57.2571 308.527C57.5691 309.307 58.0011 309.901 58.5531 310.309C59.1171 310.717 59.7651 310.921 60.4971 310.921ZM70.8499 299.401V312.001H69.5539V300.553H66.5839V299.401H70.8499ZM79.0818 304.459C79.9098 304.459 80.6418 304.615 81.2778 304.927C81.9258 305.239 82.4298 305.683 82.7898 306.259C83.1498 306.823 83.3298 307.483 83.3298 308.239C83.3298 309.007 83.1438 309.685 82.7718 310.273C82.3998 310.861 81.8838 311.317 81.2238 311.641C80.5758 311.953 79.8438 312.109 79.0278 312.109C77.3598 312.109 76.0818 311.563 75.1938 310.471C74.3058 309.367 73.8618 307.813 73.8618 305.809C73.8618 304.405 74.1018 303.217 74.5818 302.245C75.0618 301.273 75.7338 300.541 76.5978 300.049C77.4618 299.545 78.4698 299.293 79.6218 299.293C80.8698 299.293 81.8658 299.521 82.6098 299.977L82.0878 301.021C81.4878 300.625 80.6718 300.427 79.6398 300.427C78.2478 300.427 77.1558 300.871 76.3638 301.759C75.5718 302.635 75.1758 303.913 75.1758 305.593C75.1758 305.893 75.1938 306.235 75.2298 306.619C75.5418 305.935 76.0398 305.407 76.7238 305.035C77.4078 304.651 78.1938 304.459 79.0818 304.459ZM78.9738 311.011C79.8858 311.011 80.6238 310.765 81.1878 310.273C81.7638 309.769 82.0518 309.103 82.0518 308.275C82.0518 307.447 81.7638 306.787 81.1878 306.295C80.6238 305.803 79.8558 305.557 78.8838 305.557C78.2478 305.557 77.6838 305.677 77.1918 305.917C76.7118 306.157 76.3338 306.487 76.0578 306.907C75.7818 307.327 75.6438 307.795 75.6438 308.311C75.6438 308.791 75.7698 309.235 76.0218 309.643C76.2858 310.051 76.6698 310.381 77.1738 310.633C77.6778 310.885 78.2778 311.011 78.9738 311.011Z" fill="#6E7477"/>
<g filter="url(#filter2_dd_483_22164)">
<path d="M399.379 34.999C399.379 23.9533 408.333 14.999 419.379 14.999H653.379C664.425 14.999 673.379 23.9533 673.379 34.999V75.999C673.379 87.0447 664.425 95.999 653.379 95.999H604.879L538.699 103.728C537.157 103.908 535.6 103.908 534.059 103.728L467.879 95.999H419.379C408.333 95.999 399.379 87.0447 399.379 75.999V34.999Z" fill="white"/>
</g>
<path d="M436.739 46.819H434.259V49.999H431.739V46.819H424.059V45.019L430.959 35.999H433.739L427.239 44.619H431.819V41.799H434.259V44.619H436.739V46.819ZM442.155 41.419C444.128 41.419 445.588 41.8057 446.535 42.579C447.481 43.339 447.955 44.379 447.955 45.699C447.955 46.539 447.748 47.299 447.335 47.979C446.921 48.659 446.301 49.199 445.475 49.599C444.648 49.999 443.628 50.199 442.415 50.199C441.415 50.199 440.448 50.059 439.515 49.779C438.581 49.4857 437.795 49.0857 437.155 48.579L438.255 46.559C438.775 46.9857 439.395 47.3257 440.115 47.579C440.848 47.819 441.601 47.939 442.375 47.939C443.295 47.939 444.015 47.7524 444.535 47.379C445.068 46.9924 445.335 46.4657 445.335 45.799C445.335 45.079 445.048 44.539 444.475 44.179C443.915 43.8057 442.948 43.619 441.575 43.619H438.195L438.915 35.999H447.135V38.179H441.115L440.815 41.419H442.155ZM455.294 50.199C454.174 50.199 453.174 49.919 452.294 49.359C451.414 48.7857 450.721 47.959 450.214 46.879C449.708 45.7857 449.454 44.4924 449.454 42.999C449.454 41.5057 449.708 40.219 450.214 39.139C450.721 38.0457 451.414 37.219 452.294 36.659C453.174 36.0857 454.174 35.799 455.294 35.799C456.414 35.799 457.414 36.0857 458.294 36.659C459.188 37.219 459.888 38.0457 460.394 39.139C460.901 40.219 461.154 41.5057 461.154 42.999C461.154 44.4924 460.901 45.7857 460.394 46.879C459.888 47.959 459.188 48.7857 458.294 49.359C457.414 49.919 456.414 50.199 455.294 50.199ZM455.294 47.939C456.294 47.939 457.081 47.5257 457.654 46.699C458.241 45.8724 458.534 44.639 458.534 42.999C458.534 41.359 458.241 40.1257 457.654 39.299C457.081 38.4724 456.294 38.059 455.294 38.059C454.308 38.059 453.521 38.4724 452.934 39.299C452.361 40.1257 452.074 41.359 452.074 42.999C452.074 44.639 452.361 45.8724 452.934 46.699C453.521 47.5257 454.308 47.939 455.294 47.939ZM476.151 41.455V49.999H474.151V46.687C473.329 47.0817 472.471 47.279 471.575 47.279C470.476 47.279 469.633 47.0284 469.047 46.527C468.46 46.015 468.167 45.2364 468.167 44.191V41.455H470.167V44.063C470.167 44.607 470.327 45.0124 470.647 45.279C470.967 45.5457 471.42 45.679 472.007 45.679C472.753 45.679 473.468 45.519 474.151 45.199V41.455H476.151ZM486.84 45.775C486.84 45.9137 486.829 46.111 486.808 46.367H480.104C480.221 46.9964 480.525 47.4977 481.016 47.871C481.517 48.2337 482.136 48.415 482.872 48.415C483.811 48.415 484.584 48.1057 485.192 47.487L486.264 48.719C485.88 49.1777 485.395 49.5244 484.808 49.759C484.221 49.9937 483.56 50.111 482.824 50.111C481.885 50.111 481.059 49.9244 480.344 49.551C479.629 49.1777 479.075 48.6604 478.68 47.999C478.296 47.327 478.104 46.5697 478.104 45.727C478.104 44.895 478.291 44.1484 478.664 43.487C479.048 42.815 479.576 42.2924 480.248 41.919C480.92 41.5457 481.677 41.359 482.52 41.359C483.352 41.359 484.093 41.5457 484.744 41.919C485.405 42.2817 485.917 42.799 486.28 43.471C486.653 44.1324 486.84 44.9004 486.84 45.775ZM482.52 42.959C481.88 42.959 481.336 43.151 480.888 43.535C480.451 43.9084 480.184 44.4097 480.088 45.039H484.936C484.851 44.4204 484.589 43.919 484.152 43.535C483.715 43.151 483.171 42.959 482.52 42.959ZM496.662 41.455V49.999H494.662V43.151H491.462L491.382 44.847C491.329 45.9777 491.222 46.927 491.062 47.695C490.913 48.4524 490.652 49.055 490.278 49.503C489.916 49.9404 489.414 50.159 488.774 50.159C488.476 50.159 488.108 50.1004 487.67 49.983L487.766 48.303C487.916 48.335 488.044 48.351 488.15 48.351C488.556 48.351 488.86 48.191 489.062 47.871C489.265 47.5404 489.393 47.151 489.446 46.703C489.51 46.2444 489.564 45.5937 489.606 44.751L489.75 41.455H496.662ZM503.164 50.111C502.3 50.111 501.521 49.9244 500.828 49.551C500.134 49.1777 499.59 48.6604 499.196 47.999C498.812 47.327 498.62 46.5697 498.62 45.727C498.62 44.8844 498.812 44.1324 499.196 43.471C499.59 42.8097 500.134 42.2924 500.828 41.919C501.521 41.5457 502.3 41.359 503.164 41.359C504.038 41.359 504.822 41.5457 505.516 41.919C506.209 42.2924 506.748 42.8097 507.132 43.471C507.526 44.1324 507.724 44.8844 507.724 45.727C507.724 46.5697 507.526 47.327 507.132 47.999C506.748 48.6604 506.209 49.1777 505.516 49.551C504.822 49.9244 504.038 50.111 503.164 50.111ZM503.164 48.399C503.9 48.399 504.508 48.1537 504.988 47.663C505.468 47.1724 505.708 46.527 505.708 45.727C505.708 44.927 505.468 44.2817 504.988 43.791C504.508 43.3004 503.9 43.055 503.164 43.055C502.428 43.055 501.82 43.3004 501.34 43.791C500.87 44.2817 500.636 44.927 500.636 45.727C500.636 46.527 500.87 47.1724 501.34 47.663C501.82 48.1537 502.428 48.399 503.164 48.399ZM515.891 45.551C516.947 45.871 517.475 46.5537 517.475 47.599C517.475 48.367 517.187 48.959 516.611 49.375C516.035 49.791 515.182 49.999 514.051 49.999H509.699V41.455H513.875C514.921 41.455 515.737 41.647 516.323 42.031C516.91 42.415 517.203 42.959 517.203 43.663C517.203 44.1004 517.086 44.479 516.851 44.799C516.627 45.119 516.307 45.3697 515.891 45.551ZM511.603 45.023H513.699C514.734 45.023 515.251 44.6657 515.251 43.951C515.251 43.2577 514.734 42.911 513.699 42.911H511.603V45.023ZM513.891 48.543C514.99 48.543 515.539 48.1857 515.539 47.471C515.539 47.0977 515.411 46.8204 515.155 46.639C514.899 46.447 514.499 46.351 513.955 46.351H511.603V48.543H513.891ZM527.606 45.775C527.606 45.9137 527.595 46.111 527.574 46.367H520.87C520.987 46.9964 521.291 47.4977 521.782 47.871C522.283 48.2337 522.902 48.415 523.638 48.415C524.576 48.415 525.35 48.1057 525.958 47.487L527.03 48.719C526.646 49.1777 526.16 49.5244 525.574 49.759C524.987 49.9937 524.326 50.111 523.59 50.111C522.651 50.111 521.824 49.9244 521.11 49.551C520.395 49.1777 519.84 48.6604 519.446 47.999C519.062 47.327 518.87 46.5697 518.87 45.727C518.87 44.895 519.056 44.1484 519.43 43.487C519.814 42.815 520.342 42.2924 521.014 41.919C521.686 41.5457 522.443 41.359 523.286 41.359C524.118 41.359 524.859 41.5457 525.51 41.919C526.171 42.2817 526.683 42.799 527.046 43.471C527.419 44.1324 527.606 44.9004 527.606 45.775ZM523.286 42.959C522.646 42.959 522.102 43.151 521.654 43.535C521.216 43.9084 520.95 44.4097 520.854 45.039H525.702C525.616 44.4204 525.355 43.919 524.918 43.535C524.48 43.151 523.936 42.959 523.286 42.959ZM533.345 46.575H531.793V49.999H529.793V41.455H531.793V44.911H533.393L535.921 41.455H538.065L534.961 45.567L538.273 49.999H535.921L533.345 46.575Z" fill="#E6644D"/>
<path d="M424.867 67.519H426.403V73.695L431.603 67.519H432.995V75.999H431.459V69.823L426.275 75.999H424.867V67.519ZM440.428 71.583C440.993 71.7324 441.43 71.9724 441.74 72.303C442.049 72.6337 442.204 73.0444 442.204 73.535C442.204 74.0364 442.033 74.4844 441.692 74.879C441.35 75.263 440.876 75.567 440.268 75.791C439.67 76.0044 438.998 76.111 438.252 76.111C437.622 76.111 437.004 76.031 436.396 75.871C435.798 75.7004 435.265 75.4604 434.796 75.151L435.26 73.983C435.665 74.239 436.129 74.4417 436.652 74.591C437.174 74.7297 437.702 74.799 438.236 74.799C438.961 74.799 439.537 74.6764 439.964 74.431C440.401 74.175 440.62 73.8337 440.62 73.407C440.62 73.0124 440.444 72.7084 440.092 72.495C439.75 72.2817 439.265 72.175 438.636 72.175H437.084V71.071H438.524C439.1 71.071 439.553 70.9697 439.884 70.767C440.214 70.5644 440.38 70.287 440.38 69.935C440.38 69.551 440.182 69.2524 439.788 69.039C439.404 68.8257 438.881 68.719 438.22 68.719C437.377 68.719 436.486 68.9377 435.548 69.375L435.132 68.191C436.166 67.6684 437.249 67.407 438.38 67.407C439.062 67.407 439.676 67.503 440.22 67.695C440.764 67.887 441.19 68.159 441.5 68.511C441.809 68.863 441.964 69.263 441.964 69.711C441.964 70.127 441.825 70.5004 441.548 70.831C441.27 71.1617 440.897 71.4124 440.428 71.583ZM448.859 67.807C449.648 67.807 450.352 67.983 450.971 68.335C451.589 68.687 452.069 69.1777 452.411 69.807C452.763 70.4257 452.939 71.135 452.939 71.935C452.939 72.7564 452.752 73.487 452.379 74.127C452.016 74.7564 451.499 75.247 450.827 75.599C450.165 75.951 449.408 76.127 448.555 76.127C447.115 76.127 446 75.6364 445.211 74.655C444.432 73.663 444.043 72.271 444.043 70.479C444.043 68.7404 444.4 67.3804 445.115 66.399C445.829 65.407 446.923 64.751 448.395 64.431L452.267 63.567L452.491 64.975L448.923 65.743C447.813 65.9884 446.987 66.4044 446.443 66.991C445.899 67.5777 445.589 68.4204 445.515 69.519C445.877 68.975 446.347 68.5537 446.923 68.255C447.499 67.9564 448.144 67.807 448.859 67.807ZM448.587 74.847C449.131 74.847 449.611 74.7244 450.027 74.479C450.453 74.2337 450.784 73.8977 451.019 73.471C451.253 73.0337 451.371 72.5377 451.371 71.983C451.371 71.1404 451.115 70.463 450.603 69.951C450.091 69.439 449.419 69.183 448.587 69.183C447.755 69.183 447.077 69.439 446.555 69.951C446.043 70.463 445.787 71.1404 445.787 71.983C445.787 72.5377 445.904 73.0337 446.139 73.471C446.384 73.8977 446.72 74.2337 447.147 74.479C447.573 74.7244 448.053 74.847 448.587 74.847ZM458.078 67.439C459.252 67.439 460.148 67.727 460.766 68.303C461.396 68.879 461.71 69.7377 461.71 70.879V75.999H460.254V74.879C459.998 75.2737 459.63 75.5777 459.15 75.791C458.681 75.9937 458.121 76.095 457.47 76.095C456.521 76.095 455.758 75.8657 455.182 75.407C454.617 74.9484 454.334 74.3457 454.334 73.599C454.334 72.8524 454.606 72.255 455.15 71.807C455.694 71.3484 456.558 71.119 457.742 71.119H460.174V70.815C460.174 70.1537 459.982 69.647 459.598 69.295C459.214 68.943 458.649 68.767 457.902 68.767C457.401 68.767 456.91 68.8524 456.43 69.023C455.95 69.183 455.545 69.4017 455.214 69.679L454.574 68.527C455.012 68.175 455.534 67.9084 456.142 67.727C456.75 67.535 457.396 67.439 458.078 67.439ZM457.726 74.911C458.313 74.911 458.82 74.783 459.246 74.527C459.673 74.2604 459.982 73.887 460.174 73.407V72.223H457.806C456.505 72.223 455.854 72.6604 455.854 73.535C455.854 73.9617 456.02 74.2977 456.35 74.543C456.681 74.7884 457.14 74.911 457.726 74.911ZM470.252 71.599C471.351 71.8764 471.9 72.5644 471.9 73.663C471.9 74.4097 471.618 74.9857 471.052 75.391C470.498 75.7964 469.666 75.999 468.556 75.999H464.476V67.519H468.412C469.415 67.519 470.199 67.711 470.764 68.095C471.33 68.4684 471.612 69.0017 471.612 69.695C471.612 70.143 471.49 70.5324 471.244 70.863C471.01 71.183 470.679 71.4284 470.252 71.599ZM465.98 71.167H468.284C468.871 71.167 469.314 71.0604 469.612 70.847C469.922 70.6337 470.076 70.3244 470.076 69.919C470.076 69.1084 469.479 68.703 468.284 68.703H465.98V71.167ZM468.444 74.815C469.084 74.815 469.564 74.7137 469.884 74.511C470.204 74.3084 470.364 73.9937 470.364 73.567C470.364 73.1297 470.215 72.8044 469.916 72.591C469.628 72.3777 469.17 72.271 468.54 72.271H465.98V74.815H468.444ZM474.304 67.519H475.84V73.695L481.04 67.519H482.432V75.999H480.896V69.823L475.712 75.999H474.304V67.519ZM492.694 67.519V75.999H491.158V68.863H487.51L487.414 70.751C487.36 71.8924 487.259 72.847 487.11 73.615C486.96 74.3724 486.715 74.9804 486.374 75.439C486.032 75.8977 485.558 76.127 484.95 76.127C484.672 76.127 484.358 76.079 484.006 75.983L484.102 74.687C484.24 74.719 484.368 74.735 484.486 74.735C484.912 74.735 485.232 74.5484 485.446 74.175C485.659 73.8017 485.798 73.359 485.862 72.847C485.926 72.335 485.984 71.6044 486.038 70.655L486.182 67.519H492.694ZM495.664 67.519H497.2V73.695L502.4 67.519H503.792V75.999H502.256V69.823L497.072 75.999H495.664V67.519ZM510.469 76.095C509.605 76.095 508.832 75.9084 508.149 75.535C507.477 75.1617 506.949 74.6497 506.565 73.999C506.181 73.3377 505.989 72.591 505.989 71.759C505.989 70.927 506.181 70.1857 506.565 69.535C506.949 68.8737 507.477 68.3617 508.149 67.999C508.832 67.6257 509.605 67.439 510.469 67.439C511.237 67.439 511.92 67.5937 512.517 67.903C513.125 68.2124 513.594 68.6604 513.925 69.247L512.757 69.999C512.49 69.5937 512.16 69.2897 511.765 69.087C511.37 68.8844 510.933 68.783 510.453 68.783C509.898 68.783 509.397 68.9057 508.949 69.151C508.512 69.3964 508.165 69.7484 507.909 70.207C507.664 70.655 507.541 71.1724 507.541 71.759C507.541 72.3564 507.664 72.8844 507.909 73.343C508.165 73.791 508.512 74.1377 508.949 74.383C509.397 74.6284 509.898 74.751 510.453 74.751C510.933 74.751 511.37 74.6497 511.765 74.447C512.16 74.2444 512.49 73.9404 512.757 73.535L513.925 74.271C513.594 74.8577 513.125 75.311 512.517 75.631C511.92 75.9404 511.237 76.095 510.469 76.095ZM519.834 70.399C520.911 70.4097 521.732 70.655 522.298 71.135C522.863 71.615 523.146 72.2924 523.146 73.167C523.146 74.0844 522.836 74.7937 522.218 75.295C521.61 75.7857 520.735 76.0257 519.594 76.015L515.914 75.999V67.519H517.45V70.383L519.834 70.399ZM519.466 74.847C520.159 74.8577 520.682 74.719 521.034 74.431C521.396 74.143 521.578 73.7164 521.578 73.151C521.578 72.5964 521.402 72.191 521.05 71.935C520.708 71.679 520.18 71.5457 519.466 71.535L517.45 71.503V74.831L519.466 74.847ZM533.046 76.095C532.203 76.095 531.446 75.9084 530.774 75.535C530.102 75.1617 529.574 74.6497 529.19 73.999C528.816 73.3377 528.63 72.591 528.63 71.759C528.63 70.927 528.816 70.1857 529.19 69.535C529.574 68.8737 530.102 68.3617 530.774 67.999C531.446 67.6257 532.203 67.439 533.046 67.439C533.888 67.439 534.64 67.6257 535.302 67.999C535.974 68.3617 536.496 68.8737 536.87 69.535C537.254 70.1857 537.446 70.927 537.446 71.759C537.446 72.591 537.254 73.3377 536.87 73.999C536.496 74.6497 535.974 75.1617 535.302 75.535C534.64 75.9084 533.888 76.095 533.046 76.095ZM533.046 74.751C533.59 74.751 534.075 74.6284 534.502 74.383C534.939 74.127 535.28 73.775 535.526 73.327C535.771 72.8684 535.894 72.3457 535.894 71.759C535.894 71.1724 535.771 70.655 535.526 70.207C535.28 69.7484 534.939 69.3964 534.502 69.151C534.075 68.9057 533.59 68.783 533.046 68.783C532.502 68.783 532.011 68.9057 531.574 69.151C531.147 69.3964 530.806 69.7484 530.55 70.207C530.304 70.655 530.182 71.1724 530.182 71.759C530.182 72.3457 530.304 72.8684 530.55 73.327C530.806 73.775 531.147 74.127 531.574 74.383C532.011 74.6284 532.502 74.751 533.046 74.751ZM545.671 68.863H542.567V75.999H541.031V68.863H537.927V67.519H545.671V68.863ZM551.539 67.519H553.075V71.119H557.907V67.519H559.443V75.999H557.907V72.447H553.075V75.999H551.539V67.519ZM565.453 67.439C566.627 67.439 567.523 67.727 568.141 68.303C568.771 68.879 569.085 69.7377 569.085 70.879V75.999H567.629V74.879C567.373 75.2737 567.005 75.5777 566.525 75.791C566.056 75.9937 565.496 76.095 564.845 76.095C563.896 76.095 563.133 75.8657 562.557 75.407C561.992 74.9484 561.709 74.3457 561.709 73.599C561.709 72.8524 561.981 72.255 562.525 71.807C563.069 71.3484 563.933 71.119 565.117 71.119H567.549V70.815C567.549 70.1537 567.357 69.647 566.973 69.295C566.589 68.943 566.024 68.767 565.277 68.767C564.776 68.767 564.285 68.8524 563.805 69.023C563.325 69.183 562.92 69.4017 562.589 69.679L561.949 68.527C562.387 68.175 562.909 67.9084 563.517 67.727C564.125 67.535 564.771 67.439 565.453 67.439ZM565.101 74.911C565.688 74.911 566.195 74.783 566.621 74.527C567.048 74.2604 567.357 73.887 567.549 73.407V72.223H565.181C563.88 72.223 563.229 72.6604 563.229 73.535C563.229 73.9617 563.395 74.2977 563.725 74.543C564.056 74.7884 564.515 74.911 565.101 74.911ZM576.347 67.439C577.169 67.439 577.905 67.6204 578.555 67.983C579.206 68.3457 579.713 68.8524 580.075 69.503C580.449 70.1537 580.635 70.9057 580.635 71.759C580.635 72.6124 580.449 73.3697 580.075 74.031C579.713 74.6817 579.206 75.1884 578.555 75.551C577.905 75.9137 577.169 76.095 576.347 76.095C575.739 76.095 575.179 75.9777 574.667 75.743C574.166 75.5084 573.739 75.167 573.387 74.719V79.103H571.851V67.519H573.323V68.863C573.665 68.3937 574.097 68.0417 574.619 67.807C575.142 67.5617 575.718 67.439 576.347 67.439ZM576.219 74.751C576.763 74.751 577.249 74.6284 577.675 74.383C578.113 74.127 578.454 73.775 578.699 73.327C578.955 72.8684 579.083 72.3457 579.083 71.759C579.083 71.1724 578.955 70.655 578.699 70.207C578.454 69.7484 578.113 69.3964 577.675 69.151C577.249 68.9057 576.763 68.783 576.219 68.783C575.686 68.783 575.201 68.911 574.763 69.167C574.337 69.4124 573.995 69.759 573.739 70.207C573.494 70.655 573.371 71.1724 573.371 71.759C573.371 72.3457 573.494 72.8684 573.739 73.327C573.985 73.775 574.326 74.127 574.763 74.383C575.201 74.6284 575.686 74.751 576.219 74.751ZM586.163 72.415H584.403V75.999H582.867V67.519H584.403V71.103H586.195L588.947 67.519H590.595L587.379 71.599L590.819 75.999H589.011L586.163 72.415ZM595.78 76.095C594.937 76.095 594.18 75.9084 593.508 75.535C592.836 75.1617 592.308 74.6497 591.924 73.999C591.551 73.3377 591.364 72.591 591.364 71.759C591.364 70.927 591.551 70.1857 591.924 69.535C592.308 68.8737 592.836 68.3617 593.508 67.999C594.18 67.6257 594.937 67.439 595.78 67.439C596.623 67.439 597.375 67.6257 598.036 67.999C598.708 68.3617 599.231 68.8737 599.604 69.535C599.988 70.1857 600.18 70.927 600.18 71.759C600.18 72.591 599.988 73.3377 599.604 73.999C599.231 74.6497 598.708 75.1617 598.036 75.535C597.375 75.9084 596.623 76.095 595.78 76.095ZM595.78 74.751C596.324 74.751 596.809 74.6284 597.236 74.383C597.673 74.127 598.015 73.775 598.26 73.327C598.505 72.8684 598.628 72.3457 598.628 71.759C598.628 71.1724 598.505 70.655 598.26 70.207C598.015 69.7484 597.673 69.3964 597.236 69.151C596.809 68.9057 596.324 68.783 595.78 68.783C595.236 68.783 594.745 68.9057 594.308 69.151C593.881 69.3964 593.54 69.7484 593.284 70.207C593.039 70.655 592.916 71.1724 592.916 71.759C592.916 72.3457 593.039 72.8684 593.284 73.327C593.54 73.775 593.881 74.127 594.308 74.383C594.745 74.6284 595.236 74.751 595.78 74.751ZM608.406 68.863H605.302V75.999H603.766V68.863H600.662V67.519H608.406V68.863ZM609.976 67.519H611.512V73.695L616.712 67.519H618.104V75.999H616.568V69.823L611.384 75.999H609.976V67.519ZM624.382 72.415H622.622V75.999H621.086V67.519H622.622V71.103H624.414L627.166 67.519H628.814L625.598 71.599L629.038 75.999H627.23L624.382 72.415ZM633.999 76.095C633.156 76.095 632.399 75.9084 631.727 75.535C631.055 75.1617 630.527 74.6497 630.143 73.999C629.77 73.3377 629.583 72.591 629.583 71.759C629.583 70.927 629.77 70.1857 630.143 69.535C630.527 68.8737 631.055 68.3617 631.727 67.999C632.399 67.6257 633.156 67.439 633.999 67.439C634.842 67.439 635.594 67.6257 636.255 67.999C636.927 68.3617 637.45 68.8737 637.823 69.535C638.207 70.1857 638.399 70.927 638.399 71.759C638.399 72.591 638.207 73.3377 637.823 73.999C637.45 74.6497 636.927 75.1617 636.255 75.535C635.594 75.9084 634.842 76.095 633.999 76.095ZM633.999 74.751C634.543 74.751 635.028 74.6284 635.455 74.383C635.892 74.127 636.234 73.775 636.479 73.327C636.724 72.8684 636.847 72.3457 636.847 71.759C636.847 71.1724 636.724 70.655 636.479 70.207C636.234 69.7484 635.892 69.3964 635.455 69.151C635.028 68.9057 634.543 68.783 633.999 68.783C633.455 68.783 632.964 68.9057 632.527 69.151C632.1 69.3964 631.759 69.7484 631.503 70.207C631.258 70.655 631.135 71.1724 631.135 71.759C631.135 72.3457 631.258 72.8684 631.503 73.327C631.759 73.775 632.1 74.127 632.527 74.383C632.964 74.6284 633.455 74.751 633.999 74.751ZM646.393 71.599C647.492 71.8764 648.041 72.5644 648.041 73.663C648.041 74.4097 647.758 74.9857 647.193 75.391C646.638 75.7964 645.806 75.999 644.697 75.999H640.617V67.519H644.553C645.556 67.519 646.34 67.711 646.905 68.095C647.47 68.4684 647.753 69.0017 647.753 69.695C647.753 70.143 647.63 70.5324 647.385 70.863C647.15 71.183 646.82 71.4284 646.393 71.599ZM642.121 71.167H644.425C645.012 71.167 645.454 71.0604 645.753 70.847C646.062 70.6337 646.217 70.3244 646.217 69.919C646.217 69.1084 645.62 68.703 644.425 68.703H642.121V71.167ZM644.585 74.815C645.225 74.815 645.705 74.7137 646.025 74.511C646.345 74.3084 646.505 73.9937 646.505 73.567C646.505 73.1297 646.356 72.8044 646.057 72.591C645.769 72.3777 645.31 72.271 644.681 72.271H642.121V74.815H644.585Z" fill="#6E7477"/>
<defs>
<filter id="filter0_ii_483_22164" x="39.3789" y="53.999" width="623" height="237" filterUnits="userSpaceOnUse" color-interpolation-filters="sRGB">
<feFlood flood-opacity="0" result="BackgroundImageFix"/>
<feBlend mode="normal" in="SourceGraphic" in2="BackgroundImageFix" result="shape"/>
<feColorMatrix in="SourceAlpha" type="matrix" values="0 0 0 0 0 0 0 0 0 0 0 0 0 0 0 0 0 0 127 0" result="hardAlpha"/>
<feOffset dx="-5" dy="-5"/>
<feGaussianBlur stdDeviation="5"/>
<feComposite in2="hardAlpha" operator="arithmetic" k2="-1" k3="1"/>
<feColorMatrix type="matrix" values="0 0 0 0 1 0 0 0 0 1 0 0 0 0 1 0 0 0 1 0"/>
<feBlend mode="normal" in2="shape" result="effect1_innerShadow_483_22164"/>
<feColorMatrix in="SourceAlpha" type="matrix" values="0 0 0 0 0 0 0 0 0 0 0 0 0 0 0 0 0 0 127 0" result="hardAlpha"/>
<feOffset dx="5" dy="5"/>
<feGaussianBlur stdDeviation="5"/>
<feComposite in2="hardAlpha" operator="arithmetic" k2="-1" k3="1"/>
<feColorMatrix type="matrix" values="0 0 0 0 0.657656 0 0 0 0 0.732545 0 0 0 0 0.7625 0 0 0 0.23 0"/>
<feBlend mode="normal" in2="effect1_innerShadow_483_22164" result="effect2_innerShadow_483_22164"/>
</filter>
<filter id="filter1_dd_483_22164" x="206.379" y="53.999" width="282" height="118.839" filterUnits="userSpaceOnUse" color-interpolation-filters="sRGB">
<feFlood flood-opacity="0" result="BackgroundImageFix"/>
<feColorMatrix in="SourceAlpha" type="matrix" values="0 0 0 0 0 0 0 0 0 0 0 0 0 0 0 0 0 0 127 0" result="hardAlpha"/>
<feOffset dx="-5" dy="-5"/>
<feGaussianBlur stdDeviation="5"/>
<feComposite in2="hardAlpha" operator="out"/>
<feColorMatrix type="matrix" values="0 0 0 0 0.980392 0 0 0 0 0.984314 0 0 0 0 1 0 0 0 1 0"/>
<feBlend mode="normal" in2="BackgroundImageFix" result="effect1_dropShadow_483_22164"/>
<feColorMatrix in="SourceAlpha" type="matrix" values="0 0 0 0 0 0 0 0 0 0 0 0 0 0 0 0 0 0 127 0" result="hardAlpha"/>
<feOffset dx="5" dy="5"/>
<feGaussianBlur stdDeviation="5"/>
<feComposite in2="hardAlpha" operator="out"/>
<feColorMatrix type="matrix" values="0 0 0 0 0.733715 0 0 0 0 0.766181 0 0 0 0 0.779167 0 0 0 0.23 0"/>
<feBlend mode="normal" in2="effect1_dropShadow_483_22164" result="effect2_dropShadow_483_22164"/>
<feBlend mode="normal" in="SourceGraphic" in2="effect2_dropShadow_483_22164" result="shape"/>
</filter>
<filter id="filter2_dd_483_22164" x="384.379" y="-0.000976562" width="304" height="118.864" filterUnits="userSpaceOnUse" color-interpolation-filters="sRGB">
<feFlood flood-opacity="0" result="BackgroundImageFix"/>
<feColorMatrix in="SourceAlpha" type="matrix" values="0 0 0 0 0 0 0 0 0 0 0 0 0 0 0 0 0 0 127 0" result="hardAlpha"/>
<feOffset dx="-5" dy="-5"/>
<feGaussianBlur stdDeviation="5"/>
<feComposite in2="hardAlpha" operator="out"/>
<feColorMatrix type="matrix" values="0 0 0 0 0.980392 0 0 0 0 0.984314 0 0 0 0 1 0 0 0 1 0"/>
<feBlend mode="normal" in2="BackgroundImageFix" result="effect1_dropShadow_483_22164"/>
<feColorMatrix in="SourceAlpha" type="matrix" values="0 0 0 0 0 0 0 0 0 0 0 0 0 0 0 0 0 0 127 0" result="hardAlpha"/>
<feOffset dx="5" dy="5"/>
<feGaussianBlur stdDeviation="5"/>
<feComposite in2="hardAlpha" operator="out"/>
<feColorMatrix type="matrix" values="0 0 0 0 0.733715 0 0 0 0 0.766181 0 0 0 0 0.779167 0 0 0 0.23 0"/>
<feBlend mode="normal" in2="effect1_dropShadow_483_22164" result="effect2_dropShadow_483_22164"/>
<feBlend mode="normal" in="SourceGraphic" in2="effect2_dropShadow_483_22164" result="shape"/>
</filter>
<linearGradient id="paint0_linear_483_22164" x1="406.379" y1="140.999" x2="406.379" y2="297.999" gradientUnits="userSpaceOnUse">
<stop stop-color="#46B1CE"/>
<stop offset="1" stop-color="white" stop-opacity="0"/>
</linearGradient>
<linearGradient id="paint1_linear_483_22164" x1="409.379" y1="64.999" x2="409.379" y2="283.499" gradientUnits="userSpaceOnUse">
<stop stop-color="#F3BFB5"/>
<stop offset="1" stop-color="white" stop-opacity="0"/>
</linearGradient>
<clipPath id="clip0_483_22164">
<rect x="44.3789" y="58.999" width="613" height="227" rx="40" fill="white"/>
</clipPath>
</defs>
</svg>
