<svg width="60" height="60" viewBox="0 0 60 60" fill="none" xmlns="http://www.w3.org/2000/svg">
<path d="M0 60L4.23806 44.5938C1.62385 40.0848 0.248789 34.97 0.25071 29.7299C0.257434 13.3369 13.6584 0 30.1256 0C38.1166 0.0033468 45.6173 3.09959 51.2578 8.7193C56.8978 14.339 60.0029 21.809 60 29.7538C59.9928 46.1463 46.5899 59.4851 30.1256 59.4851H30.1126C25.1128 59.4832 20.2004 58.2348 15.837 55.8658L0 60Z" fill="url(#paint0_linear_401_13397)"/>
<path d="M0 60L4.23806 44.5938C1.62385 40.0848 0.248789 34.97 0.25071 29.7299C0.257434 13.3369 13.6584 0 30.1256 0C38.1166 0.0033468 45.6173 3.09959 51.2578 8.7193C56.8978 14.339 60.0029 21.809 60 29.7538C59.9928 46.1463 46.5899 59.4851 30.1256 59.4851H30.1126C25.1128 59.4832 20.2004 58.2348 15.837 55.8658L0 60Z" fill="url(#paint1_linear_401_13397)"/>
<path d="M6 54L9.39045 41.6751C7.29908 38.0678 6.19903 33.976 6.20057 29.7839C6.20595 16.6695 16.9267 6 30.1005 6C36.4933 6.00268 42.4938 8.47967 47.0062 12.9754C51.5183 17.4712 54.0023 23.4472 54 29.803C53.9942 42.917 43.2719 53.5881 30.1005 53.5881H30.0901C26.0903 53.5865 22.1604 52.5879 18.6696 50.6926L6 54Z" fill="#BBAACC"/>
<path d="M6 54L9.39045 41.6751C7.29908 38.0678 6.19903 33.976 6.20057 29.7839C6.20595 16.6695 16.9267 6 30.1005 6C36.4933 6.00268 42.4938 8.47967 47.0062 12.9754C51.5183 17.4712 54.0023 23.4472 54 29.803C53.9942 42.917 43.2719 53.5881 30.1005 53.5881H30.0901C26.0903 53.5865 22.1604 52.5879 18.6696 50.6926L6 54Z" fill="url(#paint2_linear_401_13397)"/>
<path d="M1.38867 58.9466L5.42798 44.1961C2.93637 39.8789 1.62579 34.9818 1.62762 29.9647C1.63403 14.2693 14.4066 1.5 30.1014 1.5C37.7177 1.5032 44.8666 4.46768 50.2426 9.84824C55.6181 15.2288 58.5775 22.3809 58.5748 29.9876C58.5679 45.6824 45.7936 58.4536 30.1014 58.4536C30.1005 58.4536 30.1019 58.4536 30.1014 58.4536H30.0891C25.3238 58.4518 20.6418 57.2565 16.483 54.9883L1.38867 58.9466ZM17.182 49.8353L18.0467 50.3475C21.6795 52.5036 25.8447 53.6439 30.0923 53.6462H30.1014C43.145 53.6462 53.7614 43.0315 53.7669 29.9857C53.7692 23.6635 51.3101 17.7186 46.8419 13.2467C42.3732 8.77478 36.4319 6.31064 30.1101 6.30789C17.0561 6.30789 6.44009 16.9211 6.43506 29.9665C6.43323 34.437 7.68384 38.7903 10.0532 42.5577L10.6163 43.4531L8.22492 52.1836L17.182 49.8353Z" fill="white"/>
<path fill-rule="evenodd" clip-rule="evenodd" d="M22.985 18.0644C22.4521 16.8797 21.8909 16.8559 21.3837 16.8353C20.969 16.8175 20.4943 16.8184 20.0205 16.8184C19.5462 16.8184 18.7754 16.9969 18.1235 17.7087C17.4712 18.4205 15.6328 20.1417 15.6328 23.6422C15.6328 27.1432 18.1826 30.5256 18.5382 31.0008C18.8939 31.4755 23.4601 38.8885 30.6914 41.7404C36.7014 44.1107 37.9241 43.6392 39.2287 43.5206C40.5333 43.4021 43.4378 41.7994 44.0306 40.1382C44.6239 38.477 44.6239 37.0533 44.4458 36.7553C44.2677 36.4592 43.7935 36.2811 43.0821 35.9254C42.3708 35.5697 38.873 33.8481 38.2207 33.611C37.5684 33.3734 37.0941 33.2553 36.6199 33.9676C36.1452 34.6789 34.7829 36.2811 34.3677 36.7553C33.9525 37.231 33.5373 37.2905 32.826 36.9343C32.1146 36.5777 29.823 35.827 27.1048 33.4031C24.99 31.5176 23.5617 29.1885 23.1465 28.4762C22.7318 27.7649 23.1397 27.4133 23.4592 27.0247C24.0346 26.3247 25 25.0663 25.2371 24.5921C25.4743 24.1169 25.3557 23.7018 25.1781 23.3456C25 22.9899 23.6171 19.4716 22.985 18.0644Z" fill="white"/>
<defs>
<linearGradient id="paint0_linear_401_13397" x1="53.4438" y1="67.7778" x2="-14.3333" y2="-0.294901" gradientUnits="userSpaceOnUse">
<stop stop-color="#C1C9DE"/>
<stop offset="1" stop-color="white"/>
</linearGradient>
<linearGradient id="paint1_linear_401_13397" x1="58.5" y1="22.5" x2="5.3046" y2="0.442799" gradientUnits="userSpaceOnUse">
<stop stop-color="#C7E4EF"/>
<stop offset="0.996209" stop-color="white"/>
</linearGradient>
<linearGradient id="paint2_linear_401_13397" x1="30" y1="6" x2="30" y2="54" gradientUnits="userSpaceOnUse">
<stop stop-color="#8FEA8B"/>
<stop offset="1" stop-color="#5EBB5A"/>
</linearGradient>
</defs>
</svg>
